<svg viewBox="0 0 218 139" fill="none" xmlns="http://www.w3.org/2000/svg">
<path d="M112.368 97.166L112.425 97.1756L112.483 97.1884C112.535 97.2044 112.535 97.2044 112.588 97.2268L112.592 97.23C112.645 97.2556 112.645 97.2556 112.693 97.2877L112.697 97.2941C112.726 97.3165 112.755 97.3389 112.778 97.3677C112.797 97.3933 112.817 97.4157 112.836 97.4413C112.864 97.4797 112.893 97.5437 112.907 97.5918C112.922 97.6366 112.936 97.6782 112.941 97.723C112.964 97.8895 112.931 98.0591 112.893 98.2192C112.879 98.2704 112.864 98.3184 112.85 98.3664C112.831 98.44 112.807 98.5137 112.788 98.5873C112.764 98.6513 112.745 98.7121 112.726 98.7761C112.702 98.8434 112.678 98.9074 112.64 98.9682C112.607 99.0226 112.592 99.0322 112.549 99.077C111.004 100.505 109.463 101.929 107.922 103.357C106.557 104.624 105.193 105.889 103.828 107.16C103.422 107.537 103.022 107.915 102.616 108.29C102.215 108.661 101.819 109.029 101.419 109.4C100.655 110.098 99.8919 110.796 99.1333 111.494C98.3223 112.243 97.5112 112.998 96.7001 113.747C96.4043 114.016 96.1085 114.288 95.8127 114.557C95.5742 114.772 95.3356 114.989 95.0875 115.198C95.0541 115.226 95.0541 115.226 95.0207 115.255C94.9635 115.294 94.9062 115.338 94.8394 115.361C94.8013 115.386 94.7679 115.412 94.7345 115.441C94.5245 115.617 94.3194 115.799 94.119 115.985L93.723 116.331L93.2745 116.721L93.1982 116.776C93.1219 116.814 93.1075 116.83 93.0264 116.849C92.807 116.9 92.5732 116.817 92.4348 116.644C92.3824 116.577 92.3776 116.555 92.3442 116.478L89.076 107.483L73.7325 117.797L73.6514 117.842C73.6228 117.851 73.5941 117.864 73.5607 117.874C73.5035 117.89 73.4415 117.896 73.3794 117.893C73.1886 117.886 73.0121 117.781 72.9119 117.621C72.8785 117.57 72.8546 117.512 72.8403 117.451C72.826 117.39 72.8212 117.326 72.826 117.265C72.826 117.233 72.8355 117.201 72.8403 117.173C72.888 116.977 72.931 116.782 72.9787 116.59C72.993 116.529 73.0121 116.468 73.0264 116.408C73.0312 116.369 73.0312 116.369 73.0407 116.327V116.324L73.0264 116.276L73.0168 116.19C73.0216 116.1 73.0216 116.1 73.0359 116.014C73.0646 115.937 73.0646 115.937 73.098 115.867C73.1075 115.851 73.1218 115.835 73.1314 115.819C73.1743 115.758 73.2268 115.706 73.2745 115.655C73.3842 115.546 73.4939 115.441 73.5989 115.332C74.0092 114.938 74.4195 114.541 74.8298 114.148C75.6552 113.344 76.4854 112.544 77.3155 111.744C78.3699 110.726 79.4243 109.714 80.4787 108.696C80.8938 108.293 81.3089 107.893 81.7239 107.489L82.1438 107.083L86.3852 103.011L91.1753 98.4176L91.2421 98.36C91.3089 98.3184 91.3232 98.3056 91.3995 98.28C91.5999 98.216 91.8241 98.2672 91.9768 98.4112C92.0198 98.4496 92.0532 98.4977 92.0818 98.5489C92.1009 98.5745 92.1104 98.6033 92.1199 98.6289L95.7173 108.04C98.3223 106.311 100.927 104.583 103.527 102.851C104.31 102.336 105.088 101.82 105.87 101.302C107.378 100.3 108.89 99.2979 110.402 98.296C110.789 98.0399 111.175 97.7838 111.567 97.5277C111.676 97.4573 111.786 97.3901 111.896 97.3197C111.948 97.2877 111.948 97.2877 112.001 97.2556C112.034 97.2364 112.077 97.214 112.115 97.2012C112.163 97.1884 112.158 97.1884 112.206 97.1756H112.211L112.287 97.166C112.316 97.166 112.339 97.166 112.368 97.166ZM73.7277 115.598C73.6991 115.591 73.6991 115.591 73.6705 115.588C73.6896 115.591 73.7086 115.594 73.7277 115.598ZM94.6915 115.396C94.7249 115.393 94.7249 115.393 94.7631 115.383C94.7392 115.386 94.7154 115.393 94.6915 115.396ZM87.1915 103.853L82.9548 107.922C82.2631 108.594 81.5713 109.263 80.8795 109.932C79.9587 110.818 79.0426 111.699 78.1218 112.582C77.2964 113.383 76.4663 114.183 75.6409 114.986L75.2258 115.386L89.0427 106.1C89.0665 106.084 89.0951 106.068 89.119 106.055C89.1715 106.03 89.2287 106.014 89.286 106.004C89.4959 105.975 89.7058 106.065 89.8346 106.228C89.8823 106.292 89.8823 106.311 89.9157 106.385L93.1505 115.281C93.3366 115.114 93.5226 114.945 93.7135 114.781C93.785 114.717 93.8566 114.657 93.9282 114.596C94.057 114.487 94.1906 114.375 94.3432 114.298C94.4148 114.237 94.4911 114.173 94.5627 114.109C95.3929 113.37 96.2087 112.614 97.0245 111.859C97.4635 111.449 97.9024 111.043 98.3413 110.636C99.2335 109.813 100.13 108.997 101.023 108.174C101.695 107.553 102.363 106.932 103.031 106.308C104.038 105.37 105.045 104.432 106.056 103.498C107.163 102.473 108.27 101.446 109.377 100.421L109.553 100.258C108.284 101.1 107.015 101.945 105.746 102.787L104.963 103.302L104.172 103.824C102.855 104.701 101.538 105.575 100.221 106.449C98.7326 107.438 97.244 108.427 95.7555 109.413L95.6743 109.461C95.5932 109.487 95.5742 109.5 95.493 109.509C95.3022 109.528 95.1066 109.448 94.9873 109.298C94.9301 109.234 94.9253 109.212 94.8919 109.135L91.347 99.8677C89.9635 101.196 88.5799 102.525 87.1915 103.853ZM94.4148 114.269L94.4053 114.272C94.41 114.272 94.4196 114.269 94.4148 114.269ZM94.515 114.244L94.4768 114.253L94.5532 114.237C94.5388 114.24 94.5245 114.24 94.515 114.244Z" fill="currentColor"/>
<path d="M93.056 84.9126C93.792 84.9189 94.528 84.945 95.2616 84.9996C96.8001 85.1118 98.3298 85.3355 99.8357 85.6715C100.464 85.8122 101.089 85.9719 101.708 86.1522C105.801 87.3419 109.67 89.4061 112.801 92.3153C113.611 93.0671 114.37 93.875 115.065 94.7343C115.836 95.6877 116.53 96.7044 117.127 97.7764C117.81 98.9993 118.366 100.293 118.774 101.633C119.255 103.212 119.527 104.853 119.577 106.502C119.637 108.443 119.391 110.39 118.854 112.255C118.205 114.507 117.135 116.627 115.758 118.52C114.043 120.878 111.862 122.881 109.427 124.479C106.377 126.48 102.928 127.85 99.3583 128.589C97.5653 128.959 95.7399 129.171 93.9098 129.229C92.0829 129.286 90.2512 129.189 88.44 128.936C87.3957 128.789 86.3593 128.589 85.334 128.341L85.2565 128.322L72.1888 138.14L72.0821 138.209C72.0433 138.226 72.0062 138.247 71.9666 138.261C71.8465 138.305 71.7176 138.323 71.5911 138.312C71.2915 138.288 71.0196 138.104 70.8828 137.836C70.8449 137.761 70.8172 137.68 70.8022 137.596C70.7871 137.512 70.784 137.427 70.7935 137.342C70.7982 137.3 70.8093 137.259 70.8172 137.217L74.5154 123.171C74.4157 123.092 74.3161 123.012 74.2173 122.932C74.0924 122.83 73.9683 122.728 73.845 122.624C73.1604 122.043 72.5042 121.429 71.8868 120.777C70.6282 119.448 69.527 117.968 68.6376 116.367C67.5649 114.435 66.8067 112.328 66.4399 110.147C66.1348 108.334 66.1024 106.478 66.3411 104.655C66.5419 103.123 66.9356 101.618 67.5024 100.18C67.9831 98.9614 68.5863 97.7922 69.293 96.6886C69.9326 95.6901 70.6559 94.7454 71.448 93.8616C72.1579 93.0695 72.9232 92.3255 73.7319 91.6346C77.2957 88.5894 81.6801 86.5727 86.2518 85.602C87.7096 85.2929 89.1895 85.0881 90.6757 84.9869C91.354 84.9411 92.0338 84.9181 92.7129 84.9126C92.8276 84.9126 92.9422 84.9126 93.056 84.9126ZM92.7224 86.6629C92.0789 86.6684 91.4362 86.6897 90.7943 86.7332C89.4417 86.8257 88.0938 87.0083 86.7657 87.2827C86.168 87.406 85.5751 87.5483 84.9861 87.7095C81.1219 88.7665 77.4514 90.6425 74.4592 93.3232C73.728 93.9786 73.0394 94.6814 72.4022 95.4292C71.6971 96.2569 71.0559 97.14 70.4939 98.0712C69.8551 99.1306 69.3199 100.252 68.908 101.418C68.4258 102.783 68.1159 104.208 67.9934 105.65C67.8487 107.362 67.9681 109.092 68.3444 110.768C68.7989 112.787 69.6227 114.715 70.7286 116.462C71.6678 117.946 72.8078 119.299 74.0877 120.499C74.7067 121.079 75.3597 121.622 76.0372 122.132L76.1344 122.218C76.1621 122.251 76.1921 122.282 76.2174 122.316C76.3194 122.456 76.3779 122.626 76.3842 122.798C76.389 122.913 76.3771 122.942 76.3565 123.054L73.1509 135.228L84.5411 126.671L84.6509 126.6C84.6905 126.583 84.7292 126.562 84.7703 126.547C84.8936 126.502 85.0272 126.487 85.1577 126.5C85.2012 126.505 85.2431 126.516 85.2865 126.524C85.4407 126.564 85.5949 126.603 85.7498 126.641C86.6787 126.866 87.6179 127.049 88.5641 127.186C90.3152 127.438 92.0876 127.535 93.8553 127.48C95.6356 127.423 97.4119 127.213 99.1543 126.843C102.454 126.142 105.643 124.868 108.468 123.015C110.69 121.558 112.686 119.739 114.266 117.596C115.535 115.874 116.528 113.946 117.136 111.892C117.636 110.206 117.872 108.445 117.832 106.687C117.798 105.233 117.575 103.785 117.172 102.387C116.819 101.161 116.328 99.9757 115.723 98.8539C115.188 97.8641 114.564 96.9234 113.869 96.0403C113.237 95.2395 112.546 94.4853 111.807 93.7825C108.805 90.9263 105.046 88.9222 101.075 87.791C100.44 87.6099 99.7994 87.451 99.1543 87.3143C97.8807 87.0439 96.5898 86.8589 95.2925 86.7569C94.6529 86.7063 94.0126 86.6779 93.3715 86.666C93.1548 86.6637 92.939 86.6621 92.7224 86.6629Z" fill="currentColor"/>
<path d="M152.677 0.225331C143.86 3.86732 135.618 8.85111 127.183 13.2598C118.174 17.8602 109.357 23.0357 100.348 27.8278C99.7727 28.2112 99.9643 29.3613 100.539 29.3613C106.482 30.3197 112.232 31.6615 117.983 33.195C118.174 39.7122 117.983 46.4211 117.983 52.9384C117.983 53.8968 118.941 54.0885 119.324 53.3218C122.391 48.338 125.458 43.5459 128.717 38.7538C133.317 41.8207 137.918 44.8877 142.135 48.338C142.518 48.7214 143.093 48.338 143.285 47.7629C144.627 39.9039 145.968 32.2365 148.077 24.3775C149.994 16.7101 151.911 8.8511 153.444 0.992066C153.827 0.800382 153.252 0.0336468 152.677 0.225331ZM123.158 33.5783C122.966 33.77 122.775 33.9617 122.775 34.3451C122.583 34.9201 122.2 35.6868 122.008 36.6453C121.05 40.6706 120.475 44.696 119.516 48.7214C119.516 43.3542 119.516 38.1787 119.516 32.8116C128.525 23.9941 137.726 15.3684 147.119 7.12595C141.56 13.2598 136.001 19.3937 130.25 25.7193C128.525 27.6361 126.8 29.553 125.075 31.4698C124.117 32.2365 123.541 32.8116 123.158 33.5783ZM148.844 3.67564C138.493 12.6848 128.334 22.0773 118.558 31.6615C113.382 30.3197 108.207 28.9779 103.031 28.0195C111.274 23.8024 119.133 19.3937 127.183 15.1767C134.467 11.343 141.56 7.12595 148.844 3.67564ZM120.666 48.5297C121.625 45.0794 122.2 41.4374 122.966 37.7954C123.158 36.837 123.35 36.0702 123.541 35.3035C124.883 36.2619 126.225 37.2203 127.567 37.9871C125.267 41.4374 122.966 45.0794 120.666 48.5297ZM146.735 24.3775C144.818 31.6615 143.477 38.9455 142.135 46.4211C136.384 42.0124 130.25 37.9871 124.308 33.9617C124.308 33.9617 124.308 33.77 124.5 33.77C125.267 32.8116 126.033 32.0449 126.8 31.2781C128.525 29.3613 130.25 27.4444 131.976 25.5276C138.493 18.4353 145.01 11.1513 151.527 4.05901C150.186 10.7679 148.46 17.4769 146.735 24.3775Z" fill="currentColor"/>
<path d="M113.573 27.8275C115.298 26.6774 117.215 25.5273 118.94 24.3772C119.515 23.9938 118.94 22.8437 118.365 23.2271C116.64 24.3772 114.723 25.5273 112.998 26.6774C112.231 27.0607 112.806 28.2108 113.573 27.8275Z" fill="currentColor"/>
<path d="M118.75 26.1027C117.983 26.6777 117.024 27.0611 116.258 27.6362C115.683 28.0195 116.258 29.1696 116.833 28.7863C117.6 28.2112 118.558 27.8278 119.325 27.2528C119.9 26.6777 119.325 25.7193 118.75 26.1027Z" fill="currentColor"/>
<path d="M32.6566 31.0562H22.4335C11.726 31.0562 3.01465 39.7655 3.01465 50.4709V59.6801C3.01465 67.6524 7.91357 74.8174 15.2798 77.7354V83.7055C15.2798 84.1103 15.518 84.4762 15.888 84.6397C16.0209 84.699 16.1619 84.7276 16.3019 84.7276C16.5503 84.7276 16.7966 84.6367 16.9878 84.4629L22.9149 79.0948H32.6566C43.3641 79.0948 52.0754 70.3855 52.0754 59.6801V50.4709C52.0754 39.7655 43.3641 31.0562 32.6566 31.0562ZM50.5829 59.6801C50.5829 69.2582 42.9225 77.7354 33.3414 77.7354H22.7118C22.8999 77.5648 22.4584 77.7354 22.7118 77.7354L16.7978 82.6591V78.6112C16.7978 78.1778 16.8671 76.4419 16.4583 76.2988C9.53048 73.8489 4.52681 67.03 4.52681 59.6801V50.4709C4.52681 40.8928 12.8534 32.5912 22.4335 32.5912H32.6566C42.2377 32.5912 50.5829 40.8928 50.5829 50.4709V59.6801Z" fill="currentColor"/>
<path d="M41.0528 62.2229L34.771 58.1427C34.0841 57.696 33.2665 57.5448 32.4662 57.7103C31.6648 57.879 30.9759 58.3522 30.5293 59.0421L30.2339 59.4959C27.5151 58.5975 24.5173 57.4497 22.7225 52.2544L23.4656 51.6084C24.7411 50.4994 24.875 48.5595 23.7661 47.2819L18.8518 41.6286C18.4818 41.2024 17.8358 41.1584 17.4096 41.5274L14.3239 44.2094C11.6174 46.5623 12.8817 50.0425 13.2977 51.1863C13.3161 51.2374 13.3386 51.2864 13.3652 51.3345C13.4725 51.5266 16.0349 56.0995 20.1734 60.3146C24.3282 64.5472 31.8294 68.4557 32.0594 68.5691C32.9159 69.1251 33.8797 69.3919 34.8333 69.3919C36.5075 69.3919 38.149 68.5712 39.1282 67.0666L41.3543 63.6385C41.661 63.1632 41.5261 62.5306 41.0528 62.2229ZM37.4131 65.9525C36.4922 67.3712 34.5891 67.7739 33.0866 66.805C33.012 66.7661 25.5598 62.8852 21.6319 58.8837C17.9605 55.1438 15.5228 50.989 15.1906 50.4095C14.3811 48.1394 14.5242 46.7442 15.6649 45.7528L17.9799 43.7413L22.2237 48.6228C22.6009 49.0562 22.5569 49.6899 22.1256 50.065L20.8715 51.1546C20.5659 51.4203 20.4452 51.8404 20.5648 52.2268C22.7031 59.175 26.861 60.5395 29.8966 61.5361L30.3392 61.6822C30.7817 61.8314 31.2662 61.6608 31.5197 61.2703L32.2444 60.1542C32.3936 59.9232 32.6225 59.7668 32.8883 59.7106C33.1551 59.6533 33.4269 59.7065 33.6579 59.8567L39.0832 63.3799L37.4131 65.9525Z" fill="currentColor"/>
<path d="M29.8782 47.6621C29.3345 47.5057 28.7692 47.8215 28.6149 48.3653C28.4606 48.908 28.7754 49.4733 29.3181 49.6276C30.841 50.061 32.0543 51.2762 32.4836 52.8002C32.6103 53.2499 33.0202 53.5453 33.4668 53.5453C33.5588 53.5453 33.6518 53.533 33.7448 53.5075C34.2876 53.3542 34.6044 52.79 34.4511 52.2462C33.8307 50.0446 32.0778 48.2876 29.8782 47.6621Z" fill="currentColor"/>
<path d="M37.6572 53.7663C37.7492 53.7663 37.8422 53.754 37.9353 53.7285C38.479 53.5752 38.7948 53.01 38.6415 52.4672C37.4354 48.1918 34.0329 44.782 29.7605 43.5658C29.2178 43.4094 28.6525 43.7272 28.4982 44.27C28.3439 44.8127 28.6587 45.3779 29.2014 45.5323C32.7961 46.5544 35.659 49.4254 36.674 53.0222C36.8017 53.4719 37.2106 53.7663 37.6572 53.7663Z" fill="currentColor"/>
<path d="M29.3196 38.8056C28.7759 38.6493 28.2107 38.9651 28.0563 39.5099C27.902 40.0526 28.2168 40.6178 28.7595 40.7722C34.8502 42.5046 39.7021 47.3678 41.4213 53.4626C41.548 53.9123 41.9579 54.2077 42.4046 54.2077C42.4965 54.2077 42.5896 54.1954 42.6826 54.1699C43.2253 54.0165 43.5421 53.4513 43.3888 52.9086C41.4785 46.1351 36.088 40.7323 29.3196 38.8056Z" fill="currentColor"/>
<path d="M207.134 100.247C206.539 100.247 205.334 100.106 203.929 99.1558C202.87 98.4335 201.845 97.2773 200.855 96.157C199.35 94.4552 197.91 92.8786 196.751 93.2431C195.172 93.7418 194.797 96.6623 194.819 98.1383C194.817 98.2836 194.783 98.8673 194.39 99.2877C194.094 99.5829 193.699 99.6992 192.952 99.7215L189.635 99.7282C189.638 99.7305 189.477 99.7394 189.211 99.7394C187.531 99.7394 181.643 99.319 176.403 93.9229C169.652 86.9749 163.681 73.2466 163.621 73.1079L163.775 71.6879C163.787 71.6812 163.798 71.6723 163.807 71.6655L164.153 71.4934C164.589 71.3413 165.097 71.3301 165.222 71.3301L172.714 71.2831C172.919 71.3033 173.613 71.433 174.098 71.7729C174.527 72.0949 174.767 72.6405 174.778 72.6651C174.802 72.7255 176.026 75.7892 177.667 78.5733C180.61 83.6071 182.173 85.3156 183.443 84.6425C184.233 84.2176 184.888 81.675 184.559 76.9655C184.568 76.0016 184.416 74.0986 183.759 73.2309C183.347 72.6741 182.739 72.3498 182.303 72.1754L180.845 71.594L182.028 70.5653C182.2 70.4155 182.381 70.2925 182.564 70.2008C183.573 69.7155 185.123 69.0737 187.021 69.0737H189.644C190.982 69.0737 191.704 69.3801 192.283 69.6261C192.547 69.7357 192.777 69.8341 193.023 69.8944C195.072 70.3775 194.998 72.2827 194.864 75.74C194.823 76.7687 194.777 77.9405 194.777 79.2621C194.777 79.5595 194.768 79.8771 194.759 80.2013C194.712 81.8718 194.654 83.9157 195.803 84.6514C196.447 85.0517 197.869 84.6246 201.416 78.6628C203.107 75.8093 204.345 72.5623 204.357 72.531C204.39 72.4527 204.663 71.8601 205.074 71.6029C205.347 71.4352 205.674 71.4017 205.902 71.4017L206.202 71.4173L214.292 71.3547C214.288 71.3525 214.538 71.3279 214.874 71.3279C216.019 71.3279 216.526 71.6029 216.656 71.6857L216.918 71.8556L217.032 72.1486C217.466 73.298 216.052 76.0329 212.823 80.2796C212.13 81.1875 211.522 81.9724 210.989 82.6545C207.376 87.2835 207.376 87.2835 211.293 90.8772C214.706 94.0034 216.092 95.949 216.654 97.0291C217.117 97.776 217.231 98.4536 216.965 98.9836C216.452 99.9765 214.793 100.108 214.724 100.115L207.364 100.236C207.376 100.238 207.277 100.247 207.134 100.247ZM197.12 91.2708C199.092 91.2708 200.575 92.9457 202.293 94.8845C203.205 95.9177 204.149 96.9821 205.01 97.5658C206.054 98.2724 206.901 98.3306 207.136 98.3306V99.2877L207.215 98.3261L214.639 98.2009C214.762 98.1897 214.923 98.1517 215.064 98.1047C215.044 98.0622 215.017 98.0198 214.988 97.9683C214.554 97.1387 213.373 95.381 210.001 92.286C205.314 87.9902 205.26 86.8765 209.48 81.4737C210.012 80.7962 210.616 80.0202 211.3 79.119C213.841 75.7758 214.726 74.0472 215.035 73.2443C214.784 73.2376 214.476 73.2578 214.429 73.2622L206.152 73.3293L206.061 73.3248C205.88 73.8951 204.665 76.9319 203.064 79.64C199.39 85.8076 197.579 86.6596 196.165 86.6618C195.662 86.6618 195.197 86.5277 194.781 86.2683C192.71 84.9399 192.786 82.1849 192.842 80.1722C192.853 79.839 192.862 79.5394 192.862 79.2576C192.862 77.9069 192.909 76.7105 192.95 75.6595C193.086 72.2179 192.947 71.84 192.583 71.755C192.236 71.67 191.903 71.5426 191.541 71.3882C191.031 71.1713 190.595 70.9857 189.644 70.9857H187.021C186.145 70.9857 185.344 71.1669 184.666 71.3972C184.89 71.594 185.103 71.8221 185.293 72.0815C186.455 73.6156 186.48 76.3729 186.473 76.9096C186.842 82.1737 186.127 85.367 184.349 86.3264C183.895 86.5679 183.416 86.6909 182.922 86.6909C180.883 86.6909 179.138 84.884 176.017 79.5371C174.272 76.5831 173.02 73.4188 173.007 73.3875C172.926 73.2935 172.678 73.2086 172.548 73.184L165.781 73.2399C167.219 76.3773 172.28 86.9324 177.777 92.5924C182.495 97.4473 187.721 97.8252 189.211 97.8252C189.412 97.8252 189.537 97.8163 189.568 97.814L192.905 97.8095C192.927 96.4387 193.247 92.3374 196.174 91.4183C196.476 91.3199 196.796 91.2708 197.12 91.2708Z" fill="currentColor"/>
</svg>
