<svg viewBox="0 0 114 151" fill="none" xmlns="http://www.w3.org/2000/svg">
<path d="M60.9223 123.874C60.9249 123.826 60.9302 123.781 60.9408 123.736C59.6527 122.268 58.293 121.032 56.7822 120.264C56.26 120.001 56.0506 119.365 56.313 118.843C56.5754 118.321 57.2116 118.111 57.7337 118.374C61.2085 120.139 63.7769 123.736 66.3479 127.336C67.2835 128.648 68.2218 129.96 69.1946 131.166C69.2449 131.227 69.2926 131.277 69.343 131.317C69.4782 131.428 69.6345 131.476 69.7989 131.463C70.0136 131.447 70.2574 131.338 70.5039 131.139C70.6364 131.03 70.769 130.901 70.8909 130.749C71.8716 129.546 72.4892 128.147 72.7754 126.625C73.3055 123.816 72.7224 120.595 71.2355 117.436C69.722 114.218 67.2809 111.082 64.1215 108.506C60.7818 105.781 56.6496 103.692 51.9821 102.809C51.0226 102.629 49.4084 102.473 47.4974 102.359C45.544 102.245 43.3175 102.179 41.1759 102.184C39.0343 102.179 36.8052 102.245 34.8544 102.359C32.9434 102.47 31.3292 102.627 30.3697 102.809C25.6995 103.692 21.5673 105.781 18.2303 108.506C15.0736 111.082 12.6298 114.22 11.1163 117.436C9.6294 120.595 9.04629 123.816 9.57639 126.625C9.86265 128.144 10.4802 129.546 11.4609 130.749C11.5855 130.903 11.7154 131.033 11.8479 131.139C12.0944 131.338 12.3356 131.447 12.5529 131.463C12.7173 131.476 12.8736 131.428 13.0088 131.317C13.0565 131.277 13.1069 131.227 13.1572 131.166C14.13 129.96 15.0683 128.648 16.0039 127.336C18.5723 123.736 21.1433 120.139 24.6181 118.374C25.1402 118.111 25.7764 118.321 26.0388 118.843C26.3012 119.365 26.0918 120.001 25.5696 120.264C24.0588 121.03 22.6965 122.265 21.411 123.733C21.4189 123.778 21.4269 123.823 21.4295 123.871C21.9623 131.995 24.2788 137.986 27.5178 142.123C31.2815 146.929 36.2989 149.23 41.1759 149.45C46.0555 149.23 51.0729 146.929 54.834 142.123C58.073 137.986 60.3895 131.993 60.9223 123.871V123.874ZM25.4981 68.3118V70.4323H23.3777V68.3118H25.4981ZM59.2578 68.3118H57.3043V70.4323H59.2578V68.3118ZM50.9431 68.3118V70.4323H48.8227V68.3118H50.9431ZM42.4614 68.3118V70.4323H40.341V68.3118H42.4614ZM33.9797 68.3118V70.4323H31.8593V68.3118H33.9797ZM58.3513 22.6896C58.8098 23.6014 59.1146 24.158 59.3532 24.5954C59.4751 24.8207 59.5864 25.0195 59.6182 25.0804C60.0132 25.8252 60.3259 26.5277 60.4796 27.2831C60.6466 28.0942 60.6228 28.9132 60.3233 29.8197C60.2968 29.8992 60.2623 29.9734 60.2199 30.0424L57.5296 35.0414C57.3096 35.4469 57.1559 35.7332 57.4687 35.9877C57.7258 36.1997 57.9749 36.0407 58.3248 35.8207C58.3937 35.7783 58.3592 35.7995 58.3248 35.8207L58.4652 35.7332C59.8011 34.8956 61.3252 33.793 62.8519 32.685C65.4838 30.7792 68.129 28.8628 70.3846 27.9457C71.0473 27.6754 71.7417 27.4739 72.5793 27.3546C73.3665 27.2407 74.2783 27.2009 75.41 27.246V27.2433H104.309C104.497 27.2433 104.378 27.246 104.309 27.246H104.364C106.964 27.2248 108.809 25.653 110.013 23.4742C111.298 21.1469 111.873 18.1544 111.873 15.517C111.873 15.3978 111.873 15.3606 111.873 15.3606C111.873 15.3606 111.873 15.3209 111.873 15.2043C111.873 12.5669 111.301 9.57437 110.013 7.24714C108.809 5.07099 106.964 3.49653 104.364 3.47533H104.309C104.378 3.47798 104.497 3.47798 104.309 3.47798H64.4263C64.2381 3.47798 64.3574 3.47533 64.4263 3.47533H64.3706C61.7704 3.49653 59.9257 5.06834 58.7223 7.24714C57.4368 9.57437 56.8617 12.5669 56.8617 15.2043C56.8617 15.6045 56.8564 15.0797 56.859 15.3527V15.3686C56.8511 16.4315 56.9385 17.5633 57.1718 18.7852C57.405 20.0045 57.7814 21.3007 58.3486 22.6896H58.3513ZM57.4978 25.6052C57.2593 25.1705 56.9545 24.6139 56.4615 23.6305C56.4403 23.5934 56.4217 23.5563 56.4058 23.5166C55.7723 21.9686 55.3509 20.532 55.0938 19.1828C54.8367 17.8337 54.7386 16.564 54.7492 15.3606C54.7466 14.9975 54.7439 15.4958 54.7439 15.2043C54.7439 12.2594 55.3986 8.88521 56.8696 6.22931C58.4202 3.42231 60.856 1.3946 64.3574 1.36544H64.4316V1.36279C64.368 1.36279 64.2858 1.36279 64.4316 1.36279H104.314C104.46 1.36279 104.378 1.36279 104.314 1.36279V1.36544H104.388C107.89 1.3946 110.325 3.42231 111.876 6.22931C113.344 8.88786 114.002 12.2594 114.002 15.2043C114.002 15.4985 113.999 15.0002 113.996 15.3606C113.999 15.7211 114.002 15.2255 114.002 15.517C114.002 18.4619 113.347 21.8361 111.876 24.492C110.325 27.299 107.89 29.3267 104.388 29.3558H104.314V29.3585C104.378 29.3585 104.46 29.3585 104.314 29.3585H75.4153V29.3558C75.4021 29.3558 75.3888 29.3558 75.3729 29.3558C74.3657 29.3134 73.5626 29.3479 72.8814 29.446C72.2374 29.5387 71.6993 29.6951 71.1824 29.9045C69.1654 30.7262 66.6262 32.5657 64.095 34.3973C62.5842 35.492 61.0787 36.5814 59.5838 37.5197C59.2684 37.7185 59.7057 37.4455 59.4512 37.6072C58.3486 38.3043 57.5694 38.8 56.1275 37.6178C54.4683 36.2554 54.9613 35.3436 55.6663 34.0368L58.3354 29.0802C58.4865 28.5819 58.4971 28.1366 58.4096 27.7045C58.3062 27.1956 58.0624 26.6575 57.747 26.0664C57.6197 25.8279 57.5641 25.7245 57.5005 25.6079L57.4978 25.6052ZM58.3221 35.8207C58.2877 35.8445 58.2506 35.8657 58.3221 35.8207V35.8207ZM104.309 27.2486C104.266 27.2486 104.242 27.2486 104.309 27.2486V27.2486ZM104.309 29.3611C104.224 29.3611 104.261 29.3638 104.309 29.3638V29.3611ZM111.876 15.3633C111.879 15.3633 111.879 15.5621 111.879 15.3712V15.3553C111.881 15.1645 111.879 15.3633 111.876 15.3633ZM104.309 3.47798C104.242 3.47798 104.266 3.47798 104.309 3.47798V3.47798ZM104.309 1.36279C104.261 1.36279 104.224 1.36544 104.309 1.36544V1.36279ZM64.4263 3.47798C64.4687 3.47798 64.4925 3.47798 64.4263 3.47798V3.47798ZM64.4263 1.36544C64.5111 1.36544 64.474 1.36279 64.4263 1.36279V1.36544ZM10.4246 41.7183C9.31929 41.7183 8.32005 42.1662 7.59645 42.8898C6.87286 43.6135 6.42492 44.6127 6.42492 45.718C6.42492 46.8233 6.87286 47.8226 7.59645 48.5462C8.32005 49.2699 9.31929 49.7178 10.4246 49.7178C11.5298 49.7178 12.5291 49.2699 13.2527 48.5462C13.9763 47.8226 14.4242 46.8233 14.4242 45.718C14.4242 44.6127 13.9763 43.6135 13.2527 42.8898C12.5291 42.1662 11.5298 41.7183 10.4246 41.7183ZM6.09891 41.3896C7.20683 40.2816 8.73618 39.5978 10.4246 39.5978C12.1129 39.5978 13.6423 40.2816 14.7502 41.3896C15.8581 42.4976 16.542 44.027 16.542 45.7154C16.542 47.4038 15.8581 48.9332 14.7502 50.0412C13.8861 50.9053 12.765 51.5123 11.5139 51.7376V61.452C13.1493 57.6007 15.5083 54.1337 18.4238 51.218C24.2709 45.3708 32.3523 41.7527 41.274 41.7527C50.1983 41.7527 58.2771 45.3708 64.1241 51.218C67.0927 54.1867 69.4861 57.7332 71.1241 61.6694V51.7349C69.8704 51.5096 68.7493 50.9026 67.8878 50.0385C66.7799 48.9306 66.0961 47.4012 66.0961 45.7127C66.0961 44.0243 66.7799 42.4949 67.8878 41.387C68.9958 40.279 70.5251 39.5951 72.2135 39.5951C73.9019 39.5951 75.4312 40.279 76.5391 41.387C77.6471 42.4949 78.3309 44.0243 78.3309 45.7127C78.3309 47.4012 77.6471 48.9306 76.5391 50.0385C75.6618 50.9159 74.5195 51.5282 73.2446 51.7429V64.6593C73.5229 64.5426 73.8171 64.4631 74.1245 64.4154C74.8985 64.2961 75.7599 64.3995 76.6134 64.6831C78.1851 65.2053 79.7807 66.3689 80.7694 67.893C81.9754 69.7511 82.6009 72.1737 82.6406 74.5911C82.6804 77.0058 82.1317 79.4444 80.9867 81.3316C80.0564 82.8663 78.4528 84.0432 76.8307 84.5892C75.9348 84.8914 75.0125 85.0106 74.1722 84.8993C73.3638 84.7933 72.6296 84.4832 72.0492 83.9345C71.2196 86.5188 70.0745 88.9627 68.6591 91.2184C65.8337 95.7217 61.9268 99.4803 57.3043 102.126C60.3392 103.289 63.0798 104.925 65.4494 106.857C68.8553 109.635 71.4979 113.035 73.1412 116.534C74.8137 120.089 75.4604 123.757 74.8455 127.007C74.493 128.868 73.7349 130.588 72.521 132.075C72.2983 132.348 72.0624 132.584 71.8186 132.78C71.2302 133.254 70.5834 133.522 69.9394 133.567C69.2449 133.617 68.5743 133.416 68.0018 132.949C67.8348 132.814 67.6811 132.658 67.5406 132.483C66.5361 131.237 65.5766 129.896 64.6198 128.552C64.0313 127.73 63.4456 126.906 62.8492 126.111C62.0434 133.639 59.6871 139.34 56.4959 143.417C52.3054 148.768 46.6863 151.324 41.213 151.557C41.1759 151.559 41.1388 151.557 41.1043 151.557C35.639 151.316 30.0305 148.76 25.8479 143.417C22.6567 139.34 20.3004 133.639 19.4946 126.111C18.8983 126.906 18.3099 127.73 17.7241 128.552C16.7646 129.896 15.8078 131.237 14.8032 132.483C14.6627 132.658 14.5064 132.814 14.342 132.949C13.7695 133.416 13.0989 133.62 12.4045 133.567C11.7604 133.519 11.111 133.252 10.5253 132.78C10.2814 132.584 10.0455 132.348 9.82289 132.075C8.60895 130.588 7.8509 128.868 7.49838 127.007C6.88346 123.755 7.53284 120.086 9.20267 116.534C10.8486 113.038 13.4886 109.637 16.8945 106.857C19.2959 104.898 22.0789 103.244 25.1641 102.078C20.5071 99.3928 16.5817 95.5813 13.7642 91.0169C12.4178 88.8355 11.3231 86.4817 10.52 83.9981C9.95012 84.507 9.24508 84.7959 8.46848 84.8967C7.62826 85.008 6.70853 84.8887 5.81 84.5865C4.18788 84.0379 2.58697 82.861 1.65399 81.3289C0.508961 79.4417 -0.0396965 77.0032 6.13225e-05 74.5884C0.0398191 72.1711 0.665342 69.7458 1.87133 67.8904C2.85997 66.3663 4.45559 65.2026 6.02735 64.6805C6.88346 64.3969 7.74223 64.2935 8.51618 64.4128C8.82364 64.4605 9.11785 64.54 9.39616 64.6566V51.7402C8.12126 51.5229 6.97888 50.9106 6.10156 50.0359C4.99364 48.9279 4.30981 47.3985 4.30981 45.7101C4.30981 44.0217 4.99364 42.4923 6.10156 41.3843L6.09891 41.3896ZM9.43061 68.5265C9.43857 67.7976 9.29279 67.2913 9.04364 66.9706C8.84485 66.7161 8.54534 66.5704 8.19017 66.5147C7.74223 66.4458 7.22273 66.512 6.68733 66.6896C5.537 67.0713 4.36812 67.9275 3.63923 69.046C2.65323 70.5648 2.14168 72.5872 2.10723 74.6256C2.07277 76.6665 2.52071 78.6995 3.45634 80.2395C4.12162 81.3369 5.28785 82.1851 6.47528 82.588C7.0796 82.7921 7.67332 82.8742 8.19017 82.808C8.6169 82.7523 8.98533 82.588 9.23713 82.2964C9.48893 82.0022 9.65591 81.5569 9.69036 80.934C9.21062 78.7207 8.95882 76.4253 8.95882 74.0689C8.95882 72.179 9.1205 70.3263 9.43326 68.5239L9.43061 68.5265ZM72.8947 80.7564H72.9424C72.953 81.4747 73.1253 81.9783 73.4009 82.2991C73.6527 82.5906 74.0212 82.755 74.4479 82.8106C74.9621 82.8769 75.5558 82.7947 76.1628 82.5906C77.3502 82.1877 78.5164 81.3395 79.1817 80.2422C80.1174 78.7022 80.5626 76.6692 80.5308 74.6282C80.4964 72.5872 79.9848 70.5675 78.9988 69.0487C78.2726 67.9301 77.1011 67.074 75.9507 66.6923C75.4153 66.5147 74.8932 66.4484 74.4479 66.5173C74.0927 66.573 73.7932 66.7188 73.5944 66.9733C73.3426 67.2966 73.1942 67.8082 73.2074 68.5477L73.12 68.5504C73.4301 70.3448 73.5918 72.1897 73.5918 74.0742C73.5918 76.3643 73.3532 78.6015 72.8973 80.7591L72.8947 80.7564ZM75.039 42.8898C74.3154 42.1662 73.3161 41.7183 72.2108 41.7183C71.1056 41.7183 70.1063 42.1662 69.3827 42.8898C68.6591 43.6135 68.2112 44.6127 68.2112 45.718C68.2112 46.8233 68.6591 47.8226 69.3827 48.5462C70.1063 49.2699 71.1056 49.7178 72.2108 49.7178C73.3161 49.7178 74.3154 49.2699 75.039 48.5462C75.7625 47.8226 76.2105 46.8233 76.2105 45.718C76.2105 44.6127 75.7625 43.6135 75.039 42.8898ZM46.6837 83.8709H35.6178V83.8762C34.8756 83.8762 34.3985 84.014 34.1361 84.2367C33.9956 84.3533 33.9214 84.515 33.9002 84.7005C33.8684 84.9656 33.9294 85.2783 34.0619 85.607C34.3985 86.4261 35.1433 87.2583 36.1161 87.7779C37.4837 88.5068 39.3073 88.8699 41.152 88.8699C42.9968 88.8699 44.8204 88.5068 46.188 87.7779C47.1608 87.261 47.9056 86.4261 48.2422 85.607C48.3774 85.2783 48.4357 84.9656 48.4039 84.7005C48.3827 84.515 48.3058 84.3559 48.168 84.2367C47.9056 84.014 47.4285 83.8762 46.6863 83.8762V83.8709H46.6837ZM35.6178 81.7583H46.6837V81.753C47.9665 81.753 48.8995 82.0844 49.533 82.6198C50.1135 83.1101 50.4236 83.7436 50.5084 84.4487C50.5826 85.0742 50.4686 85.7475 50.1956 86.4075C49.6894 87.6453 48.5921 88.8858 47.182 89.6386C45.4936 90.5371 43.3122 90.9877 41.152 90.9877C38.9919 90.9877 36.8105 90.5371 35.1221 89.6386C33.7094 88.8858 32.6147 87.6453 32.1085 86.4075C31.8381 85.7475 31.7215 85.0742 31.7957 84.4487C31.8805 83.7436 32.1906 83.1075 32.7711 82.6198C33.4046 82.0844 34.3376 81.753 35.6204 81.753V81.7583H35.6178ZM27.7484 101.084C27.812 101.116 27.8729 101.155 27.9286 101.198C28.5992 101.02 29.2804 100.864 29.9748 100.734C31.0218 100.535 32.7313 100.368 34.7325 100.252C36.6859 100.138 38.9548 100.071 41.1706 100.077C43.3891 100.071 45.6553 100.138 47.6087 100.252C49.6099 100.368 51.3194 100.535 52.3664 100.734C53.0926 100.872 53.8083 101.036 54.5107 101.224C59.597 98.7408 63.8829 94.8682 66.8727 90.0998C69.7856 85.4586 71.4687 79.9639 71.4687 74.0716C71.4687 65.7328 68.0893 58.1838 62.6239 52.7183C57.1585 47.2527 49.6099 43.8732 41.2713 43.8732C32.9328 43.8732 25.3841 47.2527 19.9187 52.7183C14.4534 58.1838 11.0739 65.7328 11.0739 74.0716C11.0739 79.887 12.712 85.3128 15.5533 89.9143C18.4927 94.6774 22.7203 98.5605 27.7457 101.084H27.7484ZM41.2236 50.2294C47.8075 50.2294 53.7685 52.8985 58.0809 57.2137C62.396 61.5289 65.065 67.4901 65.065 74.0716C65.065 80.6557 62.396 86.6169 58.0809 90.9294C53.7659 95.2446 47.8049 97.9138 41.2236 97.9138C34.6397 97.9138 28.6787 95.2446 24.3663 90.9294C20.0513 86.6143 17.3822 80.653 17.3822 74.0716C17.3822 67.4875 20.0513 61.5263 24.3663 57.2137C28.6813 52.8985 34.6424 50.2294 41.2236 50.2294ZM56.5834 58.7113C52.6527 54.7805 47.2217 52.3499 41.2236 52.3499C35.2255 52.3499 29.7946 54.7805 25.8638 58.7113C21.9331 62.6422 19.5026 68.0733 19.5026 74.0716C19.5026 80.0699 21.9331 85.501 25.8638 89.4318C29.7946 93.3627 35.2255 95.7933 41.2236 95.7933C47.2217 95.7933 52.6527 93.3627 56.5834 89.4318C60.5141 85.501 62.9446 80.0699 62.9446 74.0716C62.9446 68.0733 60.5141 62.6422 56.5834 58.7113Z" fill="currentColor"/>
</svg>
