<svg viewBox="0 0 175 141" fill="none" xmlns="http://www.w3.org/2000/svg">
<path fill-rule="evenodd" clip-rule="evenodd" d="M56.6949 1.11572C75.0048 1.11572 89.841 15.9567 89.841 34.2618C89.841 52.5669 75.0048 67.4079 56.6949 67.4079C38.3898 67.4079 23.5488 52.5669 23.5488 34.2618C23.5488 15.9567 38.3898 1.11572 56.6949 1.11572Z" fill="currentColor"/>
<path fill-rule="evenodd" clip-rule="evenodd" d="M56.6949 73.2612C82.1147 73.2612 103.884 91.4469 112.939 117.249C98.3795 131.316 78.5549 139.969 56.6949 139.969C34.8348 139.969 15.0102 131.316 0.451172 117.249C9.50578 91.4469 31.2751 73.2612 56.6949 73.2612Z" fill="currentColor"/>
<path fill-rule="evenodd" clip-rule="evenodd" d="M128.157 0.12207C143.418 0.12207 155.784 12.4927 155.784 27.7494C155.784 43.006 143.418 55.3719 128.157 55.3719C112.9 55.3719 100.529 43.006 100.529 27.7494C100.529 12.4927 112.9 0.12207 128.157 0.12207V0.12207Z" fill="currentColor"/>
<path fill-rule="evenodd" clip-rule="evenodd" d="M128.157 60.2505C149.343 60.2505 167.486 75.4068 175.036 96.9133C162.899 108.639 146.376 115.849 128.157 115.849C126.456 115.849 124.774 115.787 123.107 115.663C117.368 99.374 108.466 85.5843 94.2656 75.4116C103.239 65.9891 115.122 60.2505 128.157 60.2505Z" fill="currentColor"/>
</svg>
