<svg viewBox="0 0 300 170" fill="none" xmlns="http://www.w3.org/2000/svg">
<rect x="8.64844" y="6.07471" width="1.4" height="15.4852" rx="0.7" fill="#C4C4C4"/>
<rect x="0.5" y="0.817383" width="299" height="26" rx="4.5" stroke="#C4C4C4"/>
<path d="M109.045 71.1017C108.927 71.1017 108.828 71.0622 108.749 70.9832C108.67 70.9043 108.637 70.8056 108.651 70.6871L109.045 68.1012H106.854C106.723 68.1012 106.617 68.0617 106.538 67.9828C106.459 67.9038 106.42 67.7985 106.42 67.6669V67.3906C106.42 67.259 106.459 67.1537 106.538 67.0747C106.617 66.9958 106.723 66.9563 106.854 66.9563H109.203L109.776 63.0873H107.367C107.236 63.0873 107.131 63.0478 107.052 62.9688C106.973 62.8899 106.933 62.7846 106.933 62.653V62.3766C106.933 62.245 106.973 62.1398 107.052 62.0608C107.131 61.9818 107.236 61.9424 107.367 61.9424H109.953L110.348 59.3564C110.374 59.238 110.421 59.1393 110.486 59.0603C110.565 58.9814 110.664 58.9419 110.782 58.9419H111.138C111.256 58.9419 111.355 58.9814 111.434 59.0603C111.513 59.1393 111.546 59.238 111.533 59.3564L111.138 61.9424H114.434L114.829 59.3564C114.855 59.238 114.901 59.1393 114.967 59.0603C115.046 58.9814 115.145 58.9419 115.263 58.9419H115.619C115.737 58.9419 115.836 58.9814 115.915 59.0603C115.994 59.1393 116.027 59.238 116.014 59.3564L115.619 61.9424H117.77C117.902 61.9424 118.007 61.9818 118.086 62.0608C118.165 62.1398 118.205 62.245 118.205 62.3766V62.653C118.205 62.7846 118.165 62.8899 118.086 62.9688C118.007 63.0478 117.902 63.0873 117.77 63.0873H115.461L114.888 66.9563H117.257C117.389 66.9563 117.494 66.9958 117.573 67.0747C117.652 67.1537 117.691 67.259 117.691 67.3906V67.6669C117.691 67.7985 117.652 67.9038 117.573 67.9828C117.494 68.0617 117.389 68.1012 117.257 68.1012H114.711L114.336 70.6871C114.309 70.8056 114.257 70.9043 114.178 70.9832C114.099 71.0622 114 71.1017 113.882 71.1017H113.526C113.408 71.1017 113.309 71.0622 113.23 70.9832C113.151 70.9043 113.118 70.8056 113.131 70.6871L113.526 68.1012H110.23L109.855 70.6871C109.828 70.8056 109.776 70.9043 109.697 70.9832C109.618 71.0622 109.519 71.1017 109.401 71.1017H109.045ZM113.684 66.9563L114.257 63.0873H110.98L110.407 66.9563H113.684Z" fill="#C4C4C4"/>
<rect x="101.594" y="52.1279" width="51" height="26" rx="4.5" stroke="#C4C4C4"/>
<path d="M175.741 56.3673C175.622 56.3673 175.523 56.3278 175.445 56.2488C175.366 56.1699 175.333 56.0712 175.346 55.9527L175.741 53.3668H173.55C173.418 53.3668 173.313 53.3273 173.234 53.2484C173.155 53.1694 173.115 53.0641 173.115 52.9325V52.6562C173.115 52.5246 173.155 52.4193 173.234 52.3403C173.313 52.2614 173.418 52.2219 173.55 52.2219H175.899L176.471 48.3529H174.063C173.931 48.3529 173.826 48.3134 173.747 48.2345C173.668 48.1555 173.628 48.0502 173.628 47.9186V47.6423C173.628 47.5107 173.668 47.4054 173.747 47.3264C173.826 47.2475 173.931 47.208 174.063 47.208H176.649L177.043 44.6221C177.07 44.5036 177.116 44.4049 177.182 44.326C177.261 44.247 177.359 44.2075 177.478 44.2075H177.833C177.952 44.2075 178.05 44.247 178.129 44.326C178.208 44.4049 178.241 44.5036 178.228 44.6221L177.833 47.208H181.13L181.524 44.6221C181.551 44.5036 181.597 44.4049 181.663 44.326C181.742 44.247 181.84 44.2075 181.959 44.2075H182.314C182.432 44.2075 182.531 44.247 182.61 44.326C182.689 44.4049 182.722 44.5036 182.709 44.6221L182.314 47.208H184.466C184.597 47.208 184.703 47.2475 184.782 47.3264C184.86 47.4054 184.9 47.5107 184.9 47.6423V47.9186C184.9 48.0502 184.86 48.1555 184.782 48.2345C184.703 48.3134 184.597 48.3529 184.466 48.3529H182.156L181.584 52.2219H183.952C184.084 52.2219 184.189 52.2614 184.268 52.3403C184.347 52.4193 184.387 52.5246 184.387 52.6562V52.9325C184.387 53.0641 184.347 53.1694 184.268 53.2484C184.189 53.3273 184.084 53.3668 183.952 53.3668H181.406L181.031 55.9527C181.005 56.0712 180.952 56.1699 180.873 56.2488C180.794 56.3278 180.695 56.3673 180.577 56.3673H180.222C180.103 56.3673 180.004 56.3278 179.925 56.2488C179.847 56.1699 179.814 56.0712 179.827 55.9527L180.222 53.3668H176.925L176.55 55.9527C176.524 56.0712 176.471 56.1699 176.392 56.2488C176.313 56.3278 176.214 56.3673 176.096 56.3673H175.741ZM180.38 52.2219L180.952 48.3529H177.675L177.103 52.2219H180.38Z" fill="#C4C4C4"/>
<rect x="168.5" y="37.8174" width="131" height="26" rx="4.5" stroke="#C4C4C4"/>
<path d="M77.2406 119.075C77.1222 119.075 77.0235 119.035 76.9445 118.956C76.8656 118.877 76.8327 118.779 76.8458 118.66L77.2406 116.074H75.0495C74.9179 116.074 74.8126 116.035 74.7337 115.956C74.6547 115.877 74.6152 115.772 74.6152 115.64V115.364C74.6152 115.232 74.6547 115.127 74.7337 115.048C74.8126 114.969 74.9179 114.929 75.0495 114.929H77.3986L77.971 111.06H75.5627C75.4311 111.06 75.3259 111.021 75.2469 110.942C75.168 110.863 75.1285 110.758 75.1285 110.626V110.35C75.1285 110.218 75.168 110.113 75.2469 110.034C75.3259 109.955 75.4311 109.916 75.5627 109.916H78.1487L78.5435 107.33C78.5698 107.211 78.6158 107.112 78.6816 107.033C78.7606 106.955 78.8593 106.915 78.9777 106.915H79.3331C79.4515 106.915 79.5502 106.955 79.6292 107.033C79.7081 107.112 79.741 107.211 79.7279 107.33L79.3331 109.916H82.6296L83.0244 107.33C83.0507 107.211 83.0968 107.112 83.1626 107.033C83.2416 106.955 83.3403 106.915 83.4587 106.915H83.814C83.9325 106.915 84.0312 106.955 84.1101 107.033C84.1891 107.112 84.222 107.211 84.2088 107.33L83.814 109.916H85.9657C86.0973 109.916 86.2025 109.955 86.2815 110.034C86.3605 110.113 86.3999 110.218 86.3999 110.35V110.626C86.3999 110.758 86.3605 110.863 86.2815 110.942C86.2025 111.021 86.0973 111.06 85.9657 111.06H83.6561L83.0836 114.929H85.4524C85.584 114.929 85.6893 114.969 85.7683 115.048C85.8472 115.127 85.8867 115.232 85.8867 115.364V115.64C85.8867 115.772 85.8472 115.877 85.7683 115.956C85.6893 116.035 85.584 116.074 85.4524 116.074H82.906L82.5309 118.66C82.5046 118.779 82.452 118.877 82.373 118.956C82.294 119.035 82.1953 119.075 82.0769 119.075H81.7216C81.6032 119.075 81.5045 119.035 81.4255 118.956C81.3465 118.877 81.3136 118.779 81.3268 118.66L81.7216 116.074H78.425L78.05 118.66C78.0237 118.779 77.971 118.877 77.8921 118.956C77.8131 119.035 77.7144 119.075 77.596 119.075H77.2406ZM81.8795 114.929L82.452 111.06H79.1751L78.6027 114.929H81.8795Z" fill="#C4C4C4"/>
<rect x="69.7891" y="100.101" width="86" height="26" rx="4.5" stroke="#C4C4C4"/>
<path d="M7.35197 77.0748C7.23353 77.0748 7.13483 77.0353 7.05587 76.9564C6.97691 76.8774 6.94401 76.7787 6.95717 76.6603L7.35197 74.0743H5.16084C5.02924 74.0743 4.92396 74.0349 4.845 73.9559C4.76604 73.8769 4.72656 73.7717 4.72656 73.6401V73.3637C4.72656 73.2321 4.76604 73.1268 4.845 73.0479C4.92396 72.9689 5.02924 72.9294 5.16084 72.9294H7.50989L8.08234 69.0604H5.67408C5.54248 69.0604 5.4372 69.0209 5.35824 68.942C5.27928 68.863 5.2398 68.7577 5.2398 68.6261V68.3498C5.2398 68.2182 5.27928 68.1129 5.35824 68.0339C5.4372 67.955 5.54248 67.9155 5.67408 67.9155H8.26L8.6548 65.3296C8.68112 65.2111 8.72718 65.1124 8.79298 65.0335C8.87194 64.9545 8.97064 64.915 9.08908 64.915H9.44439C9.56283 64.915 9.66153 64.9545 9.74049 65.0335C9.81945 65.1124 9.85235 65.2111 9.83919 65.3296L9.44439 67.9155H12.741L13.1357 65.3296C13.1621 65.2111 13.2081 65.1124 13.2739 65.0335C13.3529 64.9545 13.4516 64.915 13.57 64.915H13.9253C14.0438 64.915 14.1425 64.9545 14.2214 65.0335C14.3004 65.1124 14.3333 65.2111 14.3201 65.3296L13.9253 67.9155H16.077C16.2086 67.9155 16.3139 67.955 16.3928 68.0339C16.4718 68.1129 16.5113 68.2182 16.5113 68.3498V68.6261C16.5113 68.7577 16.4718 68.863 16.3928 68.942C16.3139 69.0209 16.2086 69.0604 16.077 69.0604H13.7674L13.195 72.9294H15.5638C15.6954 72.9294 15.8006 72.9689 15.8796 73.0479C15.9586 73.1268 15.998 73.2321 15.998 73.3637V73.6401C15.998 73.7717 15.9586 73.8769 15.8796 73.9559C15.8006 74.0349 15.6954 74.0743 15.5638 74.0743H13.0173L12.6423 76.6603C12.6159 76.7787 12.5633 76.8774 12.4843 76.9564C12.4054 77.0353 12.3067 77.0748 12.1882 77.0748H11.8329C11.7145 77.0748 11.6158 77.0353 11.5368 76.9564C11.4579 76.8774 11.425 76.7787 11.4381 76.6603L11.8329 74.0743H8.53636L8.1613 76.6603C8.13498 76.7787 8.08234 76.8774 8.00338 76.9564C7.92442 77.0353 7.82572 77.0748 7.70728 77.0748H7.35197ZM11.9908 72.9294L12.5633 69.0604H9.28647L8.71402 72.9294H11.9908Z" fill="#C4C4C4"/>
<rect x="-0.0996094" y="58.1011" width="86" height="26" rx="4.5" stroke="#C4C4C4"/>
<path d="M122.459 161.075C122.341 161.075 122.242 161.035 122.163 160.956C122.084 160.877 122.051 160.779 122.065 160.66L122.459 158.074H120.268C120.137 158.074 120.031 158.035 119.952 157.956C119.873 157.877 119.834 157.772 119.834 157.64V157.364C119.834 157.232 119.873 157.127 119.952 157.048C120.031 156.969 120.137 156.929 120.268 156.929H122.617L123.19 153.06H120.781C120.65 153.06 120.545 153.021 120.466 152.942C120.387 152.863 120.347 152.758 120.347 152.626V152.35C120.347 152.218 120.387 152.113 120.466 152.034C120.545 151.955 120.65 151.916 120.781 151.916H123.367L123.762 149.33C123.789 149.211 123.835 149.112 123.9 149.033C123.979 148.955 124.078 148.915 124.196 148.915H124.552C124.67 148.915 124.769 148.955 124.848 149.033C124.927 149.112 124.96 149.211 124.947 149.33L124.552 151.916H127.848L128.243 149.33C128.269 149.211 128.316 149.112 128.381 149.033C128.46 148.955 128.559 148.915 128.677 148.915H129.033C129.151 148.915 129.25 148.955 129.329 149.033C129.408 149.112 129.441 149.211 129.428 149.33L129.033 151.916H131.184C131.316 151.916 131.421 151.955 131.5 152.034C131.579 152.113 131.619 152.218 131.619 152.35V152.626C131.619 152.758 131.579 152.863 131.5 152.942C131.421 153.021 131.316 153.06 131.184 153.06H128.875L128.302 156.929H130.671C130.803 156.929 130.908 156.969 130.987 157.048C131.066 157.127 131.105 157.232 131.105 157.364V157.64C131.105 157.772 131.066 157.877 130.987 157.956C130.908 158.035 130.803 158.074 130.671 158.074H128.125L127.75 160.66C127.723 160.779 127.671 160.877 127.592 160.956C127.513 161.035 127.414 161.075 127.296 161.075H126.94C126.822 161.075 126.723 161.035 126.644 160.956C126.565 160.877 126.532 160.779 126.546 160.66L126.94 158.074H123.644L123.269 160.66C123.242 160.779 123.19 160.877 123.111 160.956C123.032 161.035 122.933 161.075 122.815 161.075H122.459ZM127.098 156.929L127.671 153.06H124.394L123.821 156.929H127.098Z" fill="#C4C4C4"/>
<rect x="114.789" y="142.101" width="143" height="26" rx="4.5" stroke="#C4C4C4"/>
<path d="M178.741 98.0484C178.622 98.0484 178.523 98.009 178.445 97.93C178.366 97.851 178.333 97.7523 178.346 97.6339L178.741 95.048H176.55C176.418 95.048 176.313 95.0085 176.234 94.9295C176.155 94.8506 176.115 94.7453 176.115 94.6137V94.3373C176.115 94.2057 176.155 94.1005 176.234 94.0215C176.313 93.9425 176.418 93.9031 176.55 93.9031H178.899L179.471 90.034H177.063C176.931 90.034 176.826 89.9946 176.747 89.9156C176.668 89.8366 176.628 89.7314 176.628 89.5998V89.3234C176.628 89.1918 176.668 89.0865 176.747 89.0076C176.826 88.9286 176.931 88.8891 177.063 88.8891H179.649L180.043 86.3032C180.07 86.1848 180.116 86.0861 180.182 86.0071C180.261 85.9282 180.359 85.8887 180.478 85.8887H180.833C180.952 85.8887 181.05 85.9282 181.129 86.0071C181.208 86.0861 181.241 86.1848 181.228 86.3032L180.833 88.8891H184.13L184.524 86.3032C184.551 86.1848 184.597 86.0861 184.663 86.0071C184.742 85.9282 184.84 85.8887 184.959 85.8887H185.314C185.432 85.8887 185.531 85.9282 185.61 86.0071C185.689 86.0861 185.722 86.1848 185.709 86.3032L185.314 88.8891H187.466C187.597 88.8891 187.703 88.9286 187.782 89.0076C187.86 89.0865 187.9 89.1918 187.9 89.3234V89.5998C187.9 89.7314 187.86 89.8366 187.782 89.9156C187.703 89.9946 187.597 90.034 187.466 90.034H185.156L184.584 93.9031H186.952C187.084 93.9031 187.189 93.9425 187.268 94.0215C187.347 94.1005 187.387 94.2057 187.387 94.3373V94.6137C187.387 94.7453 187.347 94.8506 187.268 94.9295C187.189 95.0085 187.084 95.048 186.952 95.048H184.406L184.031 97.6339C184.005 97.7523 183.952 97.851 183.873 97.93C183.794 98.009 183.695 98.0484 183.577 98.0484H183.222C183.103 98.0484 183.004 98.009 182.925 97.93C182.847 97.851 182.814 97.7523 182.827 97.6339L183.222 95.048H179.925L179.55 97.6339C179.524 97.7523 179.471 97.851 179.392 97.93C179.313 98.009 179.214 98.0484 179.096 98.0484H178.741ZM183.38 93.9031L183.952 90.034H180.675L180.103 93.9031H183.38Z" fill="#C4C4C4"/>
<rect x="171.439" y="79.2247" width="66.7" height="25.7" rx="4.35" stroke="#C4C4C4" stroke-width="1.3"/>
</svg>
