<svg viewBox="0 0 383 179" fill="none" xmlns="http://www.w3.org/2000/svg">
<path d="M52.7695 51.5584L96.5686 33.327C96.9244 33.1789 97.2174 33.1034 97.5499 33.0114C99.3336 32.7332 100.971 33.6765 101.655 35.3415C101.786 35.6586 101.876 35.9922 101.944 36.3819L106.52 64.1887C106.732 65.4932 106.46 66.8597 105.781 68.0243C105.159 69.212 104.168 70.1814 102.982 70.675L59.1832 88.9064C58.8669 89.038 58.5344 89.13 58.2414 89.2056C57.3298 89.3529 56.5181 89.1801 55.7994 88.7829C55.0807 88.3857 54.4781 87.708 54.136 86.8755C54.0057 86.5584 53.9149 86.2248 53.8473 85.8351L49.2714 58.0283C48.8241 55.4754 50.3581 52.5621 52.7695 51.5584ZM51.1703 54.3132L77.6908 60.4974L99.0549 34.1955C98.6246 34.0496 98.2037 34.0391 97.72 34.1012C97.5061 34.1438 97.2526 34.2029 96.9759 34.3181L53.1767 52.5495C52.3861 52.8786 51.6701 53.5016 51.1703 54.3132ZM99.9737 34.7415L78.312 61.4458C78.1865 61.5909 77.9888 61.6732 77.7423 61.6366L50.6404 55.2765C50.3313 56.1015 50.1897 56.9961 50.3574 57.8548L54.9333 85.6616C54.952 85.9324 55.0661 86.2099 55.1638 86.4477C55.4245 87.082 55.8107 87.5712 56.3293 87.8195C56.8248 88.124 57.4295 88.2437 58.0713 88.1158C58.2852 88.0731 58.5387 88.0141 58.7759 87.9153L102.575 69.6839C103.524 69.289 104.349 68.4813 104.879 67.5179C105.369 66.571 105.644 65.4355 105.434 64.3622L100.858 36.5554C100.8 36.3011 100.725 36.0071 100.627 35.7693C100.465 35.3728 100.239 35.049 99.9737 34.7415Z" fill="currentColor"/>
<path d="M71.3207 62.4072C71.509 62.1896 71.8579 62.1372 72.0742 62.3257C72.3301 62.4978 72.3651 62.8082 72.1931 63.0655L57.115 83.0375C56.943 83.2948 56.5942 83.3472 56.3383 83.1751C56.122 82.9866 56.0707 82.6365 56.259 82.4189L71.3207 62.4072Z" fill="currentColor"/>
<path d="M83.3848 59.3976C83.0824 59.3377 82.9125 59.037 82.9729 58.7332C83.0333 58.4295 83.3333 58.2582 83.6357 58.318L102.775 62.9809C103.077 63.0407 103.247 63.3415 103.17 63.6056C103.11 63.9093 102.81 64.0806 102.508 64.0207L83.3848 59.3976Z" fill="currentColor"/>
<path d="M57.1399 54.1746C57.1399 58.7281 53.4676 62.416 48.9418 62.416C44.416 62.416 40.7438 58.7281 40.7438 54.1746C40.7438 49.6211 44.416 45.9332 48.9418 45.9332C53.4676 45.9332 57.1399 49.6211 57.1399 54.1746Z" fill="transparent" stroke="currentColor" stroke-width="0.8"/>
<path d="M45.761 58.0439C45.681 58.0439 45.617 58.0199 45.569 57.9719C45.521 57.9239 45.497 57.8599 45.497 57.7799V57.5999C45.497 57.4399 45.597 57.2719 45.797 57.0959L48.905 53.9879C49.345 53.5799 49.641 53.2359 49.793 52.9559C49.945 52.6759 50.021 52.3439 50.021 51.9599C50.021 51.4239 49.865 51.0039 49.553 50.6999C49.249 50.3959 48.813 50.2439 48.245 50.2439C47.709 50.2439 47.281 50.3999 46.961 50.7119C46.641 51.0239 46.449 51.4439 46.385 51.9719C46.377 52.0599 46.341 52.1279 46.277 52.1759C46.221 52.2239 46.165 52.2479 46.109 52.2479H45.869C45.789 52.2479 45.725 52.2279 45.677 52.1879C45.637 52.1399 45.617 52.0839 45.617 52.0199C45.633 51.6279 45.737 51.2399 45.929 50.8559C46.121 50.4719 46.413 50.1559 46.805 49.9079C47.197 49.6519 47.677 49.5239 48.245 49.5239C49.101 49.5239 49.737 49.7559 50.153 50.2199C50.569 50.6839 50.777 51.2639 50.777 51.9599C50.777 52.4399 50.673 52.8719 50.465 53.2559C50.257 53.6399 49.925 54.0439 49.469 54.4679L46.661 57.3239H50.681C50.769 57.3239 50.837 57.3479 50.885 57.3959C50.933 57.4439 50.957 57.5119 50.957 57.5999V57.7799C50.957 57.8599 50.929 57.9239 50.873 57.9719C50.825 58.0199 50.761 58.0439 50.681 58.0439H45.761Z" fill="currentColor"/>
<path d="M150.66 74.9969L197.629 81.2902C198.01 81.3414 198.301 81.4237 198.635 81.5117C200.317 82.17 201.265 83.8127 201.03 85.5998C200.985 85.9402 200.898 86.2749 200.763 86.6465L190.902 113.038C190.437 114.275 189.523 115.322 188.357 115.988C187.227 116.703 185.888 117.043 184.617 116.873L137.648 110.579C137.309 110.534 136.975 110.446 136.684 110.364C135.822 110.032 135.205 109.473 134.781 108.766C134.356 108.06 134.172 107.169 134.289 106.276C134.334 105.935 134.421 105.6 134.557 105.229L144.417 78.8369C145.299 76.4003 148.074 74.6504 150.66 74.9969ZM147.907 76.5766L167.786 95.3051L199.349 83.2961C199.049 82.9528 198.69 82.7315 198.24 82.5414C198.034 82.4704 197.785 82.3938 197.489 82.354L150.52 76.0607C149.672 75.9471 148.743 76.1256 147.907 76.5766ZM199.873 84.2323L167.852 96.4398C167.671 96.5022 167.46 96.4738 167.264 96.3178L146.969 77.1438C146.292 77.7025 145.725 78.4059 145.443 79.2342L135.583 105.626C135.464 105.87 135.425 106.168 135.391 106.423C135.302 107.104 135.393 107.722 135.718 108.199C135.996 108.713 136.46 109.121 137.079 109.334C137.285 109.405 137.534 109.482 137.788 109.516L184.757 115.809C185.774 115.945 186.89 115.662 187.827 115.095C188.722 114.522 189.524 113.676 189.876 112.641L199.736 86.2492C199.812 85.9996 199.894 85.7074 199.928 85.4521C199.984 85.0266 199.949 84.6323 199.873 84.2323Z" fill="currentColor"/>
<path d="M154.719 75.3903C154.721 79.9406 151.054 83.6238 146.531 83.6209C142.008 83.618 138.336 79.9301 138.333 75.3798C138.33 70.8295 141.998 67.1463 146.521 67.1492C151.044 67.1521 154.716 70.84 154.719 75.3903Z" fill="transparent" stroke="currentColor" stroke-width="0.8"/>
<path d="M145.893 79.3778C145.317 79.3774 144.813 79.2811 144.381 79.0888C143.957 78.8965 143.629 78.6442 143.397 78.332C143.165 78.0198 143.04 77.6837 143.024 77.3236C143.024 77.2516 143.048 77.1956 143.096 77.1556C143.144 77.1157 143.204 77.0957 143.276 77.0957L143.444 77.0958C143.524 77.0959 143.592 77.1159 143.648 77.156C143.704 77.188 143.744 77.2601 143.768 77.3721C143.88 77.8443 144.132 78.1765 144.525 78.3688C144.925 78.561 145.381 78.6574 145.892 78.6577C146.532 78.6581 147.044 78.5064 147.428 78.2026C147.812 77.8988 148.003 77.4588 148.003 76.8827C148.002 75.7785 147.338 75.226 146.01 75.2252L144.954 75.2245C144.874 75.2244 144.81 75.2004 144.762 75.1524C144.714 75.1043 144.69 75.0403 144.69 74.9603L144.69 74.7802C144.69 74.6922 144.726 74.5962 144.798 74.4923L147.268 71.5773L143.644 71.575C143.564 71.575 143.5 71.5509 143.452 71.5029C143.404 71.4549 143.38 71.3908 143.38 71.3108L143.38 71.1308C143.38 71.0508 143.404 70.9868 143.452 70.9388C143.5 70.8828 143.564 70.8549 143.644 70.8549L148.119 70.8578C148.207 70.8578 148.275 70.8819 148.323 70.9299C148.371 70.9779 148.395 71.046 148.395 71.134L148.395 71.314C148.395 71.386 148.364 71.462 148.3 71.542L145.77 74.5049L146.01 74.505C146.858 74.5056 147.526 74.706 148.014 75.1064C148.51 75.5068 148.758 76.0991 148.759 76.8832C148.759 77.3953 148.635 77.8433 148.388 78.2272C148.14 78.6031 147.8 78.8909 147.368 79.0907C146.937 79.2824 146.445 79.3782 145.893 79.3778Z" fill="currentColor"/>
<path d="M161.308 93.7581C161.579 93.6645 161.907 93.7951 162.001 94.0674C162.137 94.3455 162.013 94.632 161.736 94.7681L138.76 104.464C138.483 104.6 138.155 104.47 138.019 104.191C137.926 103.919 138.055 103.59 138.327 103.497L161.308 93.7581Z" fill="currentColor"/>
<path d="M173.265 97.2062C173.033 97.0019 173.035 96.6558 173.238 96.4231C173.442 96.1905 173.786 96.1934 174.018 96.3977L188.265 110.087C188.497 110.291 188.494 110.637 188.297 110.827C188.093 111.06 187.749 111.057 187.517 110.853L173.265 97.2062Z" fill="currentColor"/>
<path d="M65.1293 141.29L112.409 138.286C112.793 138.261 113.094 138.285 113.438 138.306C115.215 138.624 116.46 140.051 116.572 141.851C116.594 142.194 116.573 142.539 116.511 142.93L111.907 170.76C111.688 172.065 110.992 173.271 109.976 174.153C109.005 175.075 107.757 175.671 106.477 175.752L59.1978 178.757C58.8564 178.778 58.5123 178.757 58.211 178.733C57.3015 178.576 56.5894 178.148 56.0372 177.537C55.4851 176.927 55.1329 176.089 55.0768 175.189C55.0554 174.846 55.0767 174.501 55.138 174.109L59.7427 146.279C60.1398 143.715 62.5264 141.455 65.1293 141.29ZM62.732 143.379L85.8272 157.874L114.481 139.918C114.121 139.64 113.726 139.493 113.249 139.394C113.033 139.365 112.774 139.338 112.476 139.357L65.1961 142.361C64.3427 142.416 63.4653 142.773 62.732 143.379ZM115.175 140.735L86.1101 158.975C85.9447 159.072 85.7314 159.085 85.51 158.97L61.9213 144.119C61.364 144.799 60.9428 145.601 60.8255 146.469L56.2208 174.299C56.1515 174.561 56.1702 174.861 56.1863 175.118C56.229 175.804 56.4371 176.393 56.8479 176.798C57.2187 177.247 57.7521 177.558 58.4002 177.646C58.6162 177.675 58.8749 177.701 59.1309 177.685L106.41 174.681C107.435 174.616 108.475 174.12 109.285 173.38C110.053 172.642 110.677 171.656 110.824 170.571L115.428 142.741C115.455 142.481 115.479 142.178 115.463 141.921C115.436 141.493 115.327 141.112 115.175 140.735Z" fill="currentColor"/>
<path d="M79.1761 157.607C79.4241 157.462 79.7708 157.526 79.9149 157.775C80.1016 158.022 80.0349 158.327 79.7896 158.515L59.1144 172.522C58.8691 172.71 58.5223 172.646 58.3356 172.399C58.1916 172.15 58.2555 171.802 58.5035 171.657L79.1761 157.607Z" fill="currentColor"/>
<path d="M91.5752 158.677C91.3085 158.522 91.2444 158.181 91.3991 157.913C91.5537 157.645 91.8924 157.581 92.1592 157.736L108.761 168.386C109.027 168.541 109.091 168.881 108.934 169.106C108.779 169.374 108.441 169.439 108.174 169.284L91.5752 158.677Z" fill="currentColor"/>
<path d="M328.911 74.1093L373.225 57.1832C373.585 57.0457 373.88 56.9789 374.215 56.8968C376.006 56.6715 377.615 57.6629 378.25 59.3475C378.371 59.6684 378.452 60.0045 378.508 60.396L382.265 88.3269C382.439 89.6371 382.127 90.995 381.414 92.139C380.757 93.3078 379.738 94.2474 378.539 94.7057L334.224 111.632C333.905 111.754 333.569 111.836 333.274 111.903C332.359 112.023 331.553 111.826 330.846 111.408C330.139 110.99 329.557 110.295 329.239 109.452C329.118 109.131 329.038 108.795 328.981 108.404L325.225 80.4728C324.853 77.9078 326.472 75.0411 328.911 74.1093ZM327.232 76.8155L353.558 83.783L375.685 58.1249C375.259 57.9664 374.839 57.9434 374.353 57.9912C374.138 58.0274 373.883 58.079 373.603 58.1859L329.289 75.112C328.489 75.4175 327.755 76.0191 327.232 76.8155ZM376.587 58.698L354.151 84.7494C354.021 84.8907 353.821 84.9671 353.576 84.9232L326.674 77.7628C326.341 78.5783 326.173 79.4683 326.315 80.3316L330.072 108.262C330.083 108.534 330.189 108.814 330.279 109.055C330.521 109.697 330.893 110.197 331.404 110.461C331.89 110.78 332.491 110.917 333.136 110.809C333.351 110.772 333.607 110.721 333.847 110.629L378.161 93.703C379.121 93.3364 379.969 92.5534 380.527 91.6061C381.045 90.6741 381.353 89.5473 381.175 88.4681L377.418 60.5373C377.367 60.2814 377.301 59.9853 377.211 59.7447C377.059 59.3436 376.843 59.0131 376.587 58.698Z" fill="currentColor"/>
<path d="M347.136 85.5031C347.331 85.2911 347.681 85.2491 347.891 85.4439C348.142 85.6235 348.168 85.9348 347.989 86.1869L332.331 105.704C332.151 105.956 331.801 105.998 331.55 105.818C331.34 105.624 331.299 105.272 331.493 105.06L347.136 85.5031Z" fill="currentColor"/>
<path d="M359.283 82.8528C358.982 82.784 358.821 82.4784 358.891 82.1765C358.96 81.8747 359.265 81.7124 359.565 81.7812L378.558 87.0092C378.859 87.078 379.02 87.3837 378.935 87.6454C378.866 87.9472 378.561 88.1096 378.261 88.0408L359.283 82.8528Z" fill="currentColor"/>
<path d="M334.939 75.385C334.939 79.9385 331.266 83.6264 326.741 83.6264C322.215 83.6264 318.543 79.9385 318.543 75.385C318.543 70.8315 322.215 67.1437 326.741 67.1437C331.266 67.1437 334.939 70.8315 334.939 75.385Z" fill="transparent" stroke="currentColor" stroke-width="0.8"/>
<path d="M326.032 79.3744C325.472 79.3744 324.984 79.2704 324.568 79.0624C324.16 78.8464 323.844 78.5704 323.62 78.2344C323.404 77.8984 323.288 77.5384 323.272 77.1544V77.1304C323.272 77.0664 323.292 77.0184 323.332 76.9864C323.38 76.9464 323.44 76.9264 323.512 76.9264H323.74C323.82 76.9264 323.884 76.9464 323.932 76.9864C323.98 77.0184 324.016 77.0904 324.04 77.2024C324.16 77.6904 324.404 78.0544 324.772 78.2944C325.14 78.5344 325.56 78.6544 326.032 78.6544C326.648 78.6544 327.156 78.4704 327.556 78.1024C327.964 77.7344 328.168 77.2224 328.168 76.5664C328.168 76.1664 328.072 75.8184 327.88 75.5224C327.696 75.2264 327.44 74.9984 327.112 74.8384C326.784 74.6784 326.424 74.5984 326.032 74.5984C325.712 74.5984 325.452 74.6424 325.252 74.7304C325.06 74.8104 324.864 74.9224 324.664 75.0664C324.544 75.1544 324.444 75.2184 324.364 75.2584C324.292 75.2984 324.212 75.3184 324.124 75.3184H323.908C323.836 75.3184 323.772 75.2944 323.716 75.2464C323.66 75.1904 323.636 75.1264 323.644 75.0544L324.004 71.1304C324.012 71.0424 324.036 70.9744 324.076 70.9264C324.124 70.8784 324.188 70.8544 324.268 70.8544H328.18C328.26 70.8544 328.324 70.8784 328.372 70.9264C328.42 70.9744 328.444 71.0384 328.444 71.1184V71.3104C328.444 71.3904 328.42 71.4544 328.372 71.5024C328.324 71.5504 328.26 71.5744 328.18 71.5744H324.736L324.484 74.2864C324.908 74.0144 325.424 73.8784 326.032 73.8784C326.576 73.8784 327.064 73.9824 327.496 74.1904C327.936 74.3984 328.284 74.7064 328.54 75.1144C328.796 75.5144 328.924 75.9984 328.924 76.5664C328.924 77.1664 328.796 77.6784 328.54 78.1024C328.284 78.5264 327.936 78.8464 327.496 79.0624C327.064 79.2704 326.576 79.3744 326.032 79.3744Z" fill="currentColor"/>
<path d="M234.604 8.63429L279.05 25.2077C279.411 25.3423 279.677 25.4872 279.983 25.6471C281.48 26.6627 282.045 28.4746 281.423 30.1642C281.304 30.486 281.146 30.7929 280.932 31.125L265.522 54.6575C264.798 55.7597 263.676 56.5766 262.392 56.967C261.133 57.4126 259.752 57.4466 258.549 56.9978L214.103 40.4244C213.782 40.3048 213.476 40.1449 213.21 39.9999C212.442 39.4847 211.963 38.8028 211.703 38.0199C211.444 37.237 211.459 36.3277 211.77 35.4829C211.888 35.1611 212.047 34.8542 212.26 34.5221L227.67 10.9896C229.065 8.81053 232.157 7.72185 234.604 8.63429ZM231.571 9.56205L246.859 32.2351L280.288 27.5451C280.071 27.1439 279.769 26.8483 279.372 26.5631C279.186 26.4481 278.961 26.3181 278.68 26.2134L234.234 9.64C233.432 9.34084 232.486 9.30832 231.571 9.56205ZM280.594 28.5741L246.674 33.3558C246.484 33.3764 246.284 33.3016 246.128 33.1062L230.532 9.90655C229.749 10.3006 229.041 10.8601 228.584 11.6049L213.174 35.1374C213.005 35.3488 212.902 35.6304 212.813 35.8718C212.576 36.5155 212.529 37.1385 212.742 37.6754C212.9 38.2376 213.263 38.7389 213.821 39.084C214.006 39.199 214.232 39.329 214.473 39.4187L258.919 55.9921C259.881 56.3511 261.032 56.3228 262.071 55.9783C263.07 55.6188 264.038 54.9731 264.608 54.0422L280.018 30.5097C280.147 30.2833 280.291 30.0166 280.38 29.7752C280.528 29.373 280.581 28.981 280.594 28.5741Z" fill="currentColor"/>
<path d="M240.884 29.2951C241.169 29.2642 241.46 29.4643 241.492 29.7506C241.563 30.0518 241.379 30.3035 241.08 30.3746L216.535 34.7184C216.235 34.7896 215.944 34.5895 215.872 34.2882C215.841 34.002 216.04 33.7101 216.325 33.6791L240.884 29.2951Z" fill="currentColor"/>
<path d="M251.779 35.306C251.598 35.0553 251.676 34.7185 251.926 34.5369C252.175 34.3553 252.511 34.4348 252.692 34.6855L263.59 51.1956C263.771 51.4463 263.693 51.7831 263.458 51.9245C263.209 52.1061 262.873 52.0266 262.692 51.7759L251.779 35.306Z" fill="currentColor"/>
<path d="M238.959 9.07937C238.959 13.6329 235.287 17.3207 230.761 17.3207C226.235 17.3207 222.563 13.6329 222.563 9.07937C222.563 4.52588 226.235 0.837988 230.761 0.837988C235.287 0.837988 238.959 4.52588 238.959 9.07937Z" fill="transparent" stroke="currentColor" stroke-width="0.8"/>
<path d="M231.564 12.9487C231.484 12.9487 231.42 12.9247 231.372 12.8767C231.324 12.8287 231.3 12.7647 231.3 12.6847V10.7887H227.34C227.26 10.7887 227.196 10.7647 227.148 10.7167C227.1 10.6687 227.076 10.6047 227.076 10.5247V10.3327C227.076 10.2127 227.12 10.0927 227.208 9.97273L230.856 4.75273C230.896 4.68873 230.956 4.64073 231.036 4.60873C231.116 4.56873 231.204 4.54873 231.3 4.54873H231.792C231.872 4.54873 231.936 4.57273 231.984 4.62073C232.032 4.66873 232.056 4.73273 232.056 4.81273V10.0687H233.148C233.228 10.0687 233.292 10.0927 233.34 10.1407C233.388 10.1887 233.412 10.2527 233.412 10.3327V10.5247C233.412 10.6047 233.388 10.6687 233.34 10.7167C233.292 10.7647 233.228 10.7887 233.148 10.7887H232.056V12.6847C232.056 12.7647 232.032 12.8287 231.984 12.8767C231.936 12.9247 231.872 12.9487 231.792 12.9487H231.564ZM231.3 10.0687V5.40073L228.024 10.0687H231.3Z" fill="currentColor"/>
<path d="M46.0309 72.9354C46.0634 72.8592 46.0279 72.7711 45.9517 72.7387L44.71 72.2097C44.6338 72.1772 44.5457 72.2127 44.5132 72.2889C44.4807 72.3651 44.5161 72.4532 44.5923 72.4857L45.6961 72.9559L45.2253 74.06C45.1928 74.1362 45.2282 74.2243 45.3044 74.2568C45.3806 74.2892 45.4687 74.2538 45.5012 74.1775L46.0309 72.9354ZM55.8963 159.099C54.5678 159.007 53.2552 158.884 51.9595 158.729L51.9238 159.027C53.2245 159.183 54.5421 159.306 55.8757 159.398L55.8963 159.099ZM46.1237 157.803C43.4866 157.278 40.9347 156.621 38.4794 155.844L38.3887 156.13C40.8546 156.91 43.4172 157.57 46.065 158.098L46.1237 157.803ZM32.9295 153.817C30.4455 152.783 28.0848 151.619 25.8616 150.341L25.712 150.601C27.9464 151.886 30.3186 153.055 32.8141 154.094L32.9295 153.817ZM20.889 147.128C18.7051 145.545 16.6991 143.84 14.8895 142.032L14.6775 142.244C16.4987 144.063 18.5168 145.779 20.7128 147.371L20.889 147.128ZM11.0049 137.599C9.37565 135.459 7.99886 133.215 6.89862 130.893L6.6275 131.021C7.73718 133.364 9.12506 135.626 10.7661 137.781L11.0049 137.599ZM4.85182 125.369C4.16545 122.834 3.80054 120.234 3.78468 117.599L3.4847 117.601C3.50072 120.263 3.86934 122.888 4.56225 125.448L4.85182 125.369ZM4.32926 111.727C4.80635 109.245 5.60242 106.749 6.74019 104.263L6.46743 104.139C5.32001 106.645 4.51643 109.164 4.03467 111.671L4.32926 111.727ZM9.60591 99.1167C10.9752 97.0397 12.5992 94.9809 14.4918 92.9546L14.2727 92.7499C12.3693 94.7877 10.7346 96.8596 9.35548 98.9516L9.60591 99.1167ZM18.7529 88.85C20.6367 87.2078 22.7126 85.5946 24.9884 84.0187L24.8177 83.7721C22.5334 85.3539 20.4486 86.9739 18.5558 88.6239L18.7529 88.85ZM29.9651 80.8257C32.1246 79.5398 34.4307 78.2846 36.8883 77.0649L36.755 76.7962C34.291 78.0191 31.9781 79.2779 29.8117 80.5679L29.9651 80.8257ZM42.255 74.5654C43.4549 74.0409 44.6861 73.5242 45.9488 73.0158L45.8369 72.7375C44.5715 73.247 43.3377 73.7648 42.135 74.2906L42.255 74.5654ZM46.1688 72.9942C46.2338 72.8418 46.163 72.6656 46.0106 72.6006L43.5271 71.5427C43.3747 71.4778 43.1985 71.5487 43.1335 71.7012C43.0685 71.8536 43.1393 72.0298 43.2917 72.0948L45.4993 73.0351L44.5577 75.2433C44.4927 75.3958 44.5636 75.572 44.716 75.6369C44.8684 75.7018 45.0446 75.6308 45.1096 75.4784L46.1688 72.9942ZM55.9067 158.949C54.5807 158.858 53.2705 158.735 51.9774 158.58L51.906 159.176C53.2091 159.332 54.5293 159.456 55.8653 159.547L55.9067 158.949ZM46.1531 157.656C43.5213 157.132 40.9747 156.476 38.5247 155.701L38.3433 156.273C40.8146 157.055 43.3825 157.716 46.0356 158.245L46.1531 157.656ZM32.9872 153.679C30.5089 152.647 28.1539 151.486 25.9364 150.211L25.6372 150.731C27.8773 152.019 30.2552 153.191 32.7564 154.233L32.9872 153.679ZM20.977 147.006C18.7992 145.428 16.7993 143.728 14.9956 141.925L14.5714 142.35C16.3984 144.175 18.4226 145.896 20.6248 147.492L20.977 147.006ZM11.1242 137.508C9.50094 135.376 8.1297 133.141 7.03418 130.828L6.49194 131.086C7.60634 133.438 8.99977 135.709 10.6468 137.872L11.1242 137.508ZM4.99661 125.33C4.31351 122.807 3.95046 120.22 3.93468 117.598L3.33471 117.602C3.35081 120.277 3.72128 122.916 4.41747 125.487L4.99661 125.33ZM4.47656 111.755C4.95132 109.285 5.74362 106.801 6.87657 104.326L6.33105 104.076C5.1788 106.594 4.37147 109.124 3.88737 111.642L4.47656 111.755ZM9.73112 99.1992C11.0955 97.1297 12.7142 95.0775 14.6014 93.057L14.1631 92.6475C12.2543 94.6911 10.6144 96.7696 9.23026 98.8691L9.73112 99.1992ZM18.8514 88.9631C20.7308 87.3247 22.8023 85.715 25.0738 84.142L24.7324 83.6488C22.4438 85.2336 20.3546 86.8569 18.4573 88.5109L18.8514 88.9631ZM30.0418 80.9546C32.1978 79.6707 34.5006 78.4173 36.9549 77.1993L36.6884 76.6618C34.2212 77.8863 31.9049 79.147 29.7351 80.4391L30.0418 80.9546ZM42.315 74.7029C43.5136 74.1789 44.7434 73.6628 46.0048 73.155L45.781 72.5984C44.5142 73.1084 43.279 73.6268 42.075 74.1531L42.315 74.7029Z" fill="currentColor"/>
<path d="M323.983 95.2616C324.025 95.1906 324.003 95.0984 323.932 95.0557L322.776 94.3584C322.705 94.3156 322.613 94.3384 322.57 94.4093C322.527 94.4803 322.55 94.5725 322.621 94.6153L323.648 95.2351L323.028 96.2627C322.985 96.3336 323.008 96.4258 323.079 96.4686C323.15 96.5114 323.242 96.4885 323.285 96.4176L323.983 95.2616ZM323.818 95.0385C322.345 95.4032 320.916 95.7485 319.531 96.075L319.6 96.367C320.986 96.0403 322.416 95.6946 323.89 95.3297L323.818 95.0385ZM313.298 97.4805C310.258 98.132 307.465 98.6758 304.9 99.1185L304.951 99.4141C307.52 98.9707 310.317 98.426 313.361 97.7739L313.298 97.4805ZM298.58 100.065C295.268 100.473 292.454 100.659 290.076 100.645L290.074 100.945C292.469 100.959 295.296 100.772 298.617 100.363L298.58 100.065ZM283.783 99.9241C281.985 99.4226 280.723 98.6754 279.877 97.7295C279.032 96.7847 278.591 95.63 278.456 94.2939L278.158 94.3243C278.298 95.7103 278.758 96.9286 279.653 97.9296C280.548 98.9295 281.866 99.7009 283.703 100.213L283.783 99.9241ZM279.322 88.0293C280.035 85.553 281.084 82.8321 282.169 79.9677L281.888 79.8616C280.805 82.7211 279.751 85.4555 279.034 87.9464L279.322 88.0293ZM284.351 73.9162C285.258 71.1645 286.02 68.3579 286.4 65.5833L286.103 65.5427C285.726 68.2923 284.97 71.0797 284.066 73.8224L284.351 73.9162ZM286.475 59.1484C286.097 56.3738 285.108 53.7062 283.245 51.2439L283.006 51.425C284.834 53.8424 285.806 56.4605 286.178 59.1891L286.475 59.1484ZM278.575 46.8276C277.475 46.0551 276.244 45.3172 274.868 44.6181L274.732 44.8855C276.096 45.5788 277.315 46.3095 278.402 47.0731L278.575 46.8276ZM324.111 95.3391C324.197 95.1972 324.151 95.0128 324.009 94.9272L321.698 93.5326C321.556 93.4471 321.372 93.4927 321.286 93.6346C321.201 93.7765 321.246 93.9608 321.388 94.0464L323.442 95.286L322.202 97.3412C322.116 97.4831 322.162 97.6675 322.303 97.7531C322.445 97.8386 322.63 97.793 322.715 97.6511L324.111 95.3391ZM323.782 94.8929C322.309 95.2574 320.881 95.6027 319.497 95.929L319.634 96.513C321.021 96.1861 322.451 95.8404 323.926 95.4753L323.782 94.8929ZM313.267 97.3339C310.228 97.9849 307.437 98.5284 304.875 98.9707L304.976 99.5619C307.548 99.1181 310.347 98.573 313.392 97.9206L313.267 97.3339ZM298.562 99.9161C295.254 100.324 292.447 100.509 290.077 100.495L290.073 101.095C292.476 101.109 295.31 100.922 298.635 100.512L298.562 99.9161ZM283.824 99.7796C282.045 99.2835 280.811 98.5484 279.989 97.6295C279.169 96.7128 278.738 95.5899 278.605 94.2787L278.008 94.3395C278.151 95.7505 278.621 97.0005 279.542 98.0296C280.46 99.0565 281.806 99.84 283.662 100.358L283.824 99.7796ZM279.466 88.0708C280.178 85.6017 281.223 82.8875 282.309 80.0208L281.748 79.8085C280.666 82.6656 279.609 85.4067 278.89 87.905L279.466 88.0708ZM284.494 73.9631C285.402 71.2069 286.167 68.3908 286.548 65.6036L285.954 65.5225C285.579 68.2594 284.826 71.0372 283.924 73.7756L284.494 73.9631ZM286.624 59.1281C286.242 56.3304 285.244 53.6381 283.365 51.1533L282.886 51.5155C284.698 53.9105 285.66 56.5039 286.029 59.2095L286.624 59.1281ZM278.661 46.7049C277.555 45.9279 276.317 45.1864 274.936 44.4844L274.664 45.0193C276.022 45.7097 277.235 46.4367 278.316 47.1959L278.661 46.7049Z" fill="currentColor"/>
<path d="M217.829 22.5563C217.897 22.5087 217.913 22.4152 217.866 22.3474L217.091 21.2422C217.043 21.1743 216.95 21.1579 216.882 21.2055C216.814 21.2531 216.798 21.3466 216.845 21.4145L217.534 22.3969L216.551 23.0861C216.483 23.1336 216.467 23.2272 216.514 23.295C216.562 23.3628 216.655 23.3792 216.723 23.3317L217.829 22.5563ZM197.429 104.242C198.854 104.242 200.187 104.198 201.432 104.114L201.412 103.814C200.174 103.899 198.848 103.942 197.429 103.942L197.429 104.242ZM207.14 103.309C210.253 102.582 212.513 101.445 214.049 99.9583L213.84 99.7428C212.355 101.18 210.151 102.298 207.072 103.017L207.14 103.309ZM216.581 94.7516C216.858 92.4868 216.431 89.908 215.498 87.1106L215.213 87.2056C216.139 89.9809 216.553 92.5118 216.284 94.7153L216.581 94.7516ZM213.238 81.6981C212.175 79.5215 210.911 77.2557 209.516 74.9337L209.259 75.0883C210.651 77.4054 211.91 79.6633 212.969 81.8299L213.238 81.6981ZM206.425 69.999C205.047 67.8717 203.601 65.717 202.136 63.5581L201.888 63.7266C203.352 65.8848 204.796 68.0376 206.173 70.1623L206.425 69.999ZM198.867 58.756C197.396 56.5954 195.942 54.4479 194.555 52.3365L194.304 52.5013C195.693 54.6149 197.148 56.764 198.619 58.925L198.867 58.756ZM191.429 47.4339C190.007 45.1174 188.72 42.8724 187.639 40.7325L187.372 40.8678C188.457 43.0174 189.748 45.27 191.174 47.591L191.429 47.4339ZM185.33 35.3898C184.354 32.5563 183.963 30.0296 184.364 27.9082L184.069 27.8526C183.654 30.0477 184.062 32.6321 185.046 35.4876L185.33 35.3898ZM187.385 23.3204C189.025 22.1875 191.368 21.3841 194.557 20.9834L194.519 20.6857C191.303 21.0899 188.909 21.9035 187.215 23.0736L187.385 23.3204ZM200.316 20.6959C202.606 20.72 205.178 20.8802 208.054 21.1879L208.087 20.8896C205.202 20.5811 202.621 20.4201 200.319 20.3959L200.316 20.6959ZM213.728 21.9279C215.008 22.1217 216.337 22.3393 217.717 22.5813L217.769 22.2858C216.387 22.0434 215.056 21.8255 213.773 21.6313L213.728 21.9279ZM217.915 22.6791C218.051 22.5839 218.083 22.3968 217.988 22.2612L216.439 20.0508C216.344 19.9152 216.157 19.8824 216.021 19.9775C215.885 20.0727 215.853 20.2598 215.948 20.3954L217.325 22.3602L215.359 23.7386C215.224 23.8338 215.191 24.0209 215.286 24.1565C215.381 24.2921 215.568 24.325 215.704 24.2298L217.915 22.6791ZM197.428 104.392C198.857 104.392 200.193 104.348 201.442 104.263L201.402 103.665C200.168 103.749 198.845 103.792 197.429 103.792L197.428 104.392ZM207.174 103.455C210.304 102.724 212.591 101.578 214.153 100.066L213.736 99.635C212.276 101.048 210.1 102.155 207.038 102.871L207.174 103.455ZM216.73 94.7697C217.011 92.4743 216.577 89.8716 215.64 87.063L215.071 87.2531C215.993 90.0173 216.401 92.5243 216.135 94.6972L216.73 94.7697ZM213.373 81.6322C212.307 79.4506 211.042 77.1809 209.645 74.8564L209.131 75.1656C210.521 77.4802 211.778 79.7342 212.834 81.8958L213.373 81.6322ZM206.551 69.9174C205.172 67.7888 203.725 65.6331 202.261 63.4739L201.764 63.8109C203.228 65.9687 204.671 68.1205 206.048 70.2439L206.551 69.9174ZM198.991 58.6716C197.52 56.511 196.067 54.3644 194.681 52.2541L194.179 52.5838C195.568 54.6984 197.023 56.8484 198.495 59.0094L198.991 58.6716ZM191.557 47.3553C190.136 45.0411 188.851 42.7999 187.773 40.6648L187.238 40.9355C188.325 43.09 189.619 45.3463 191.046 47.6696L191.557 47.3553ZM185.471 35.3408C184.499 32.5184 184.117 30.0206 184.512 27.936L183.922 27.8248C183.5 30.0567 183.917 32.6699 184.904 35.5365L185.471 35.3408ZM187.47 23.4439C189.084 22.3295 191.4 21.5313 194.575 21.1322L194.501 20.5369C191.271 20.9428 188.85 21.7615 187.13 22.9502L187.47 23.4439ZM200.314 20.8459C202.599 20.8699 205.166 21.0298 208.038 21.3371L208.103 20.7405C205.215 20.4316 202.628 20.2701 200.321 20.2459L200.314 20.8459ZM213.706 22.0762C214.984 22.2698 216.312 22.4872 217.691 22.729L217.795 22.138C216.412 21.8955 215.08 21.6773 213.796 21.483L213.706 22.0762Z" fill="currentColor"/>
<path d="M136.632 94.4624C136.664 94.3862 136.629 94.2981 136.552 94.2656L135.311 93.7367C135.235 93.7042 135.146 93.7397 135.114 93.8159C135.081 93.8921 135.117 93.9802 135.193 94.0127L136.297 94.4829L135.826 95.587C135.794 95.6632 135.829 95.7513 135.905 95.7837C135.981 95.8162 136.069 95.7807 136.102 95.7045L136.632 94.4624ZM136.438 94.2645C135.064 94.8175 133.755 95.3207 132.508 95.7761L132.611 96.0579C133.861 95.6013 135.173 95.0969 136.55 94.5428L136.438 94.2645ZM126.727 97.6804C123.564 98.5897 120.938 99.0906 118.778 99.2407L118.799 99.5399C120.986 99.388 123.634 98.8817 126.809 97.9687L126.727 97.6804ZM112.94 98.3804C110.608 97.1451 109.862 94.7055 110.165 91.4638L109.866 91.436C109.558 94.7272 110.309 97.3262 112.799 98.6455L112.94 98.3804ZM111.516 85.5208C112.291 83.1378 113.332 80.5782 114.504 77.9514L114.23 77.8293C113.056 80.461 112.01 83.0312 111.231 85.4281L111.516 85.5208ZM117.098 72.403C118.301 69.9132 119.532 67.4423 120.687 65.0628L120.417 64.9319C119.265 67.3037 118.029 69.7865 116.828 72.2726L117.098 72.403ZM123.279 59.5291C124.598 56.5461 125.599 53.8847 125.978 51.792L125.683 51.7387C125.31 53.7937 124.323 56.4274 123.004 59.4079L123.279 59.5291ZM123.456 46.955C121.768 46.8082 119.206 47.4618 115.546 49.0809L115.667 49.3553C119.323 47.7379 121.824 47.1142 123.43 47.2539L123.456 46.955ZM110.14 51.7506C108.991 52.3655 107.768 53.0445 106.467 53.7904L106.616 54.0506C107.914 53.306 109.135 52.6285 110.281 52.0151L110.14 51.7506ZM136.77 94.5212C136.835 94.3687 136.764 94.1925 136.611 94.1276L134.128 93.0697C133.975 93.0048 133.799 93.0757 133.734 93.2282C133.669 93.3806 133.74 93.5568 133.892 93.6217L136.1 94.5621L135.158 96.7703C135.093 96.9227 135.164 97.0989 135.317 97.1639C135.469 97.2288 135.645 97.1578 135.71 97.0054L136.77 94.5212ZM136.382 94.1253C135.01 94.6778 133.702 95.1804 132.457 95.6352L132.663 96.1988C133.914 95.7415 135.228 95.2366 136.605 94.6819L136.382 94.1253ZM126.685 97.5363C123.529 98.4437 120.913 98.9419 118.768 99.091L118.809 99.6896C121.01 99.5367 123.669 99.0277 126.851 98.1129L126.685 97.5363ZM113.01 98.2478C110.758 97.0546 110.013 94.6946 110.314 91.4778L109.717 91.4221C109.407 94.738 110.16 97.4168 112.729 98.7781L113.01 98.2478ZM111.659 85.5671C112.432 83.1911 113.47 80.6368 114.641 78.0124L114.093 77.7682C112.918 80.4024 111.87 82.9779 111.088 85.3817L111.659 85.5671ZM117.233 72.4683C118.437 69.9766 119.665 67.5116 120.822 65.1283L120.282 64.8664C119.132 67.2344 117.893 69.7231 116.692 72.2074L117.233 72.4683ZM123.416 59.5897C124.736 56.6055 125.743 53.9302 126.126 51.8187L125.535 51.712C125.166 53.7483 124.185 56.368 122.867 59.3473L123.416 59.5897ZM123.469 46.8056C121.74 46.6552 119.147 47.3237 115.486 48.9438L115.728 49.4925C119.382 47.876 121.852 47.2672 123.417 47.4033L123.469 46.8056ZM110.069 51.6184C108.919 52.234 107.694 52.9137 106.392 53.6603L106.69 54.1807C107.988 53.4367 109.207 52.7599 110.352 52.1474L110.069 51.6184Z" fill="currentColor"/>
<path d="M69.8069 141.287C69.8069 145.841 66.1346 149.529 61.6088 149.529C57.083 149.529 53.4107 145.841 53.4107 141.287C53.4107 136.734 57.083 133.046 61.6088 133.046C66.1346 133.046 69.8069 136.734 69.8069 141.287Z" fill="transparent" stroke="currentColor" stroke-width="0.8"/>
<path d="M60.852 145.157C60.772 145.157 60.708 145.133 60.66 145.085C60.612 145.037 60.588 144.973 60.588 144.893V137.741L58.44 139.397C58.376 139.437 58.32 139.457 58.272 139.457C58.192 139.457 58.124 139.421 58.068 139.349L57.936 139.181C57.896 139.125 57.876 139.069 57.876 139.013C57.876 138.933 57.912 138.865 57.984 138.809L60.54 136.841C60.62 136.785 60.724 136.757 60.852 136.757H61.08C61.16 136.757 61.224 136.781 61.272 136.829C61.32 136.877 61.344 136.941 61.344 137.021V144.893C61.344 144.973 61.32 145.037 61.272 145.085C61.224 145.133 61.16 145.157 61.08 145.157H60.852Z" fill="currentColor"/>
</svg>
