<svg viewBox="0 0 170 141" fill="none" xmlns="http://www.w3.org/2000/svg">
<path d="M150.594 122.412C162.508 113.975 169.318 101.764 169.318 88.7916C169.318 70.3406 155.67 54.5769 136.488 48.2172C136.488 48.2172 136.487 48.2172 136.487 48.2189C136.487 48.2172 136.487 48.2172 136.487 48.2172C131.355 20.9821 103.151 0.12207 69.0306 0.12207C31.2648 0.12207 0.640625 25.6379 0.640625 57.114C0.640625 75.0938 10.7309 91.0094 26.2555 101.567C32.1731 105.598 17.8299 119.151 17.8299 119.151C17.8299 119.151 46.5094 111.057 50.7914 112.04C56.5911 113.372 62.7153 114.092 69.0306 114.092C71.257 114.092 73.4492 113.986 75.6174 113.812C75.6192 113.812 75.6209 113.812 75.6209 113.812C75.6209 113.814 75.6192 113.814 75.6174 113.816C84.9531 125.026 100.348 132.39 117.766 132.39C122.371 132.39 126.946 131.869 131.172 130.885C133.936 130.885 145.324 133.755 152.534 135.784L167.179 139.912L156.135 129.441C153.674 127.107 151.253 124.005 150.594 122.412ZM34.3687 67.2179C28.4648 67.2179 23.6706 62.434 23.6706 56.5233C23.6706 50.6313 28.4665 45.8321 34.3687 45.8321C40.2794 45.8321 45.0633 50.6313 45.0633 56.5233C45.0633 62.434 40.2794 67.2179 34.3687 67.2179ZM103.682 45.8321C109.585 45.8321 114.38 50.6313 114.38 56.5233C114.38 62.434 109.585 67.2179 103.682 67.2179C97.7767 67.2179 92.9877 62.434 92.9877 56.5233C92.9877 50.6313 97.7767 45.8321 103.682 45.8321ZM69.0357 67.2179C63.1216 67.2179 58.3343 62.434 58.3343 56.5233C58.3343 50.6313 63.1233 45.8321 69.0357 45.8321C74.9396 45.8321 79.727 50.6313 79.727 56.5233C79.7253 62.434 74.9379 67.2179 69.0357 67.2179ZM142.93 121.285C142.814 122.716 143.21 124.235 143.885 125.731C138.913 124.514 133.634 123.377 131.17 123.377L129.659 123.53C125.801 124.425 121.806 124.881 117.764 124.881C104.579 124.881 92.7589 120.083 84.6816 112.534C84.6799 112.532 84.6782 112.532 84.6765 112.53C84.6782 112.53 84.6799 112.53 84.6816 112.53C114.882 106.628 137.402 84.076 137.402 57.114C137.402 56.9177 137.366 56.723 137.366 56.5267C137.366 56.525 137.366 56.525 137.366 56.525C137.368 56.525 137.368 56.525 137.369 56.5267C151.827 62.4511 161.808 74.6686 161.808 88.7916C161.808 99.5357 155.882 109.735 145.558 116.778C144.018 117.825 143.077 119.423 142.93 121.285Z" fill="currentColor"/>
</svg>
