<svg viewBox="0 0 19 17" fill="none" xmlns="http://www.w3.org/2000/svg">
<path d="M10.7982 14.2229C10.5466 14.4741 10.5466 14.8822 10.7982 15.1334C11.0499 15.3846 11.4587 15.3846 11.7103 15.1334L17.3529 9.50103C19.4665 7.39064 19.4652 3.94348 17.351 1.8337C15.2362 -0.2779 11.7865 -0.2779 9.67167 1.8337L1.77296 9.71754C0.278398 11.21 0.279007 13.6415 1.77357 15.1334C3.2657 16.6222 5.70587 16.6216 7.19738 15.1322L15.0949 7.24894C15.968 6.37802 15.9668 4.95731 15.0943 4.0864C14.2224 3.21609 12.7985 3.2167 11.9272 4.08701L6.28529 9.71875C6.03366 9.96932 6.03366 10.3774 6.28529 10.6286C6.53692 10.8798 6.94575 10.8798 7.19738 10.6286L12.8387 4.99684C13.2098 4.62646 13.8117 4.62646 14.1828 4.99624C14.5544 5.36783 14.555 5.96811 14.1834 6.3391L6.2859 14.2223C5.2946 15.2118 3.67696 15.2131 2.68505 14.2229C1.69315 13.2334 1.69315 11.6175 2.68445 10.6274L10.5832 2.74354C12.1953 1.13429 14.8274 1.13429 16.4396 2.74354C18.0548 4.35582 18.0566 6.97829 16.4408 8.59058L10.7982 14.2229Z" fill="currentColor"/>
</svg>
