<svg viewBox="0 0 17 14" fill="none" xmlns="http://www.w3.org/2000/svg">
<path d="M2.51146 4.07005C2.51146 3.1864 3.2278 2.47005 4.11146 2.47005H12.1698C13.0534 2.47005 13.7698 3.1864 13.7698 4.07005V9.93028C13.7698 10.8139 13.0534 11.5303 12.1698 11.5303H4.11146C3.2278 11.5303 2.51146 10.8139 2.51146 9.93028V4.07005Z" fill="currentColor"/>
<path fill-rule="evenodd" clip-rule="evenodd" d="M2.80729 0.333496C1.33453 0.333496 0.140625 1.5274 0.140625 3.00016V11.0002C0.140625 12.4729 1.33453 13.6668 2.80729 13.6668H13.474C14.9467 13.6668 16.1406 12.4729 16.1406 11.0002V3.00016C16.1406 1.5274 14.9467 0.333496 13.474 0.333496H2.80729ZM12.5521 1.30355H3.72813C2.25537 1.30355 1.06146 2.49745 1.06146 3.97021V10.0301C1.06146 11.5029 2.25536 12.6968 3.72812 12.6968H12.5521C14.0249 12.6968 15.2188 11.5029 15.2188 10.0301V3.97021C15.2188 2.49746 14.0249 1.30355 12.5521 1.30355ZM4.11146 2.47005H12.1698C13.0534 2.47005 13.7698 3.1864 13.7698 4.07005V9.93028C13.7698 10.8139 13.0534 11.5303 12.1698 11.5303H4.11146C3.2278 11.5303 2.51146 10.8139 2.51146 9.93028V4.07005C2.51146 3.1864 3.2278 2.47005 4.11146 2.47005Z" fill="currentColor"/>
</svg>
