<svg viewBox="0 0 14 14" fill="none" xmlns="http://www.w3.org/2000/svg">
<path d="M4.3722 14C3.60357 14 3.00464 13.8353 2.57541 13.5059C2.14617 13.1765 1.84172 12.6973 1.66204 12.0684C1.49234 11.4396 1.40749 10.636 1.40749 9.65775C1.40749 9.14866 1.34261 8.75437 1.21284 8.47487C1.08307 8.18538 0.868453 7.94581 0.568988 7.75615L0.464175 7.71123C0.324425 7.62139 0.224603 7.53654 0.16471 7.45668C0.114799 7.36685 0.0898438 7.26203 0.0898438 7.14225V6.84278C0.0898438 6.72299 0.114799 6.62317 0.16471 6.54332C0.224603 6.45348 0.324425 6.36364 0.464175 6.2738L0.583961 6.2139C0.873445 6.02424 1.08307 5.78966 1.21284 5.51016C1.34261 5.22068 1.40749 4.82638 1.40749 4.32727C1.40749 3.34902 1.49234 2.55045 1.66204 1.93155C1.84172 1.30267 2.14617 0.823529 2.57541 0.494118C3.00464 0.164706 3.60357 0 4.3722 0H4.44706C4.54689 0 4.62674 0.0299464 4.68664 0.0898393C4.74653 0.149732 4.77647 0.22959 4.77647 0.329412V0.883423C4.77647 0.983244 4.74653 1.0631 4.68664 1.12299C4.62674 1.18289 4.55188 1.21283 4.46204 1.21283H4.38717C3.90803 1.22282 3.54867 1.3426 3.3091 1.57219C3.07951 1.80178 2.92478 2.15116 2.84492 2.62032C2.77505 3.0795 2.74011 3.74332 2.74011 4.61176C2.74011 5.7697 2.36578 6.56328 1.61712 6.99251C2.36578 7.42175 2.74011 8.21533 2.74011 9.37326C2.74011 10.2417 2.77505 10.9105 2.84492 11.3797C2.92478 11.8488 3.07951 12.1982 3.3091 12.4278C3.54867 12.6574 3.90803 12.7772 4.38717 12.7872H4.46204C4.55188 12.7872 4.62674 12.8171 4.68664 12.877C4.74653 12.9369 4.77647 13.0168 4.77647 13.1166V13.6706C4.77647 13.7704 4.74653 13.8503 4.68664 13.9102C4.62674 13.9701 4.54689 14 4.44706 14H4.3722Z" fill="currentColor"/>
<path d="M9.63202 0C10.4007 0 10.9996 0.164706 11.4288 0.494118C11.868 0.823529 12.1725 1.30267 12.3422 1.93155C12.5219 2.55045 12.6117 3.35401 12.6117 4.34225C12.6117 4.85134 12.6766 5.24563 12.8064 5.52513C12.9361 5.80464 13.1457 6.03922 13.4352 6.22888L13.555 6.28877C13.6948 6.37861 13.7896 6.46346 13.8395 6.54332C13.8894 6.62317 13.9144 6.72799 13.9144 6.85775V7.15722C13.9144 7.27701 13.8844 7.38182 13.8245 7.47166C13.7746 7.55152 13.6848 7.63137 13.555 7.71123L13.4203 7.7861C13.1308 7.97576 12.9211 8.21533 12.7914 8.50481C12.6716 8.78431 12.6117 9.17362 12.6117 9.67273C12.6117 10.651 12.5219 11.4496 12.3422 12.0684C12.1725 12.6973 11.868 13.1765 11.4288 13.5059C10.9996 13.8353 10.4056 14 9.647 14H9.55716C9.45734 14 9.37748 13.9701 9.31758 13.9102C9.25769 13.8503 9.22775 13.7704 9.22775 13.6706V13.1166C9.22775 13.0168 9.25769 12.9369 9.31758 12.877C9.37748 12.8171 9.45734 12.7872 9.55716 12.7872H9.61705C10.0962 12.7772 10.4556 12.6574 10.6951 12.4278C10.9347 12.1982 11.0894 11.8538 11.1593 11.3947C11.2392 10.9255 11.2791 10.2567 11.2791 9.38824C11.2791 8.21034 11.6484 7.41676 12.3871 7.00749C11.6484 6.58824 11.2791 5.79465 11.2791 4.62674C11.2791 3.75829 11.2392 3.08948 11.1593 2.62032C11.0894 2.15116 10.9347 1.80178 10.6951 1.57219C10.4655 1.3426 10.1112 1.22282 9.63202 1.21283H9.55716C9.45734 1.21283 9.37748 1.18289 9.31758 1.12299C9.25769 1.0631 9.22775 0.983244 9.22775 0.883423V0.329412C9.22775 0.22959 9.25769 0.149732 9.31758 0.0898393C9.37748 0.0299464 9.45734 0 9.55716 0H9.63202Z" fill="currentColor"/>
</svg>
