<svg viewBox="0 0 15 14" fill="none" xmlns="http://www.w3.org/2000/svg">
<path d="M13.2172 1.12232L12.73 0.691347C11.5953 -0.314824 9.85783 -0.210498 8.852 0.924466L7.45768 2.4975C7.14297 2.85261 7.17567 3.39777 7.53063 3.71277L7.66149 3.82889C8.01768 4.14468 8.56117 4.11207 8.87721 3.75583L10.2714 2.18285C10.5824 1.83228 11.1212 1.80002 11.472 2.11053L11.9586 2.54224C12.3094 2.85315 12.3425 3.3918 12.031 3.74256L8.98222 7.18194C8.72419 7.47351 8.30196 7.55213 7.95543 7.37308C7.5765 7.1774 7.11436 7.26337 6.83142 7.58247L6.80764 7.6093C6.61621 7.82521 6.5364 8.11185 6.58868 8.39572C6.64102 8.67945 6.81766 8.91879 7.07332 9.05241C7.47765 9.26373 7.91429 9.36603 8.34665 9.36603C9.11279 9.36603 9.86567 9.04482 10.4021 8.43992L13.4507 5.00094C14.4554 3.86751 14.3508 2.1278 13.2172 1.12232Z" fill="currentColor"/>
<path d="M6.75005 10.2882L6.61889 10.172C6.26354 9.85714 5.71823 9.89023 5.40347 10.2454L4.00979 11.8183C3.69864 12.1687 3.16028 12.2013 2.80981 11.8909L2.32251 11.4586C1.97155 11.1478 1.9386 10.6096 2.25015 10.2588L5.29885 6.81963C5.5516 6.53417 5.96748 6.45254 6.31025 6.62094C6.70418 6.8145 7.1825 6.72038 7.47412 6.39127L7.48507 6.37894C7.67241 6.16743 7.75124 5.88671 7.70142 5.60875C7.6516 5.33074 7.48024 5.09491 7.23118 4.96163C6.10515 4.35885 4.72691 4.60549 3.87957 5.56169L0.830667 9.00013V9.00018C-0.174172 10.1336 -0.0696481 11.8733 1.06379 12.8784L1.55099 13.3099C2.07302 13.7728 2.72349 14.0001 3.3718 14.0001C4.13113 14.0001 4.88732 13.688 5.42962 13.0765L6.8235 11.5037C7.13884 11.1476 7.10649 10.6042 6.75005 10.2882Z" fill="currentColor"/>
</svg>
