<svg viewBox="0 0 14 10" fill="none" xmlns="http://www.w3.org/2000/svg">
<path d="M0.75383 4.91063C0.390976 4.54776 0.390976 3.95945 0.75383 3.59659C1.11668 3.23372 1.70499 3.23372 2.06784 3.59659L6.19221 7.72104C6.55506 8.0839 6.55506 8.67222 6.19221 9.03508C5.82935 9.39794 5.24105 9.39794 4.8782 9.03508L0.75383 4.91063Z" fill="currentColor"/>
<path d="M6.19221 9.03508C5.82742 9.39988 5.23597 9.39986 4.87117 9.03506C4.50638 8.67026 4.50638 8.0788 4.87117 7.714L11.6155 0.969497C11.9803 0.604696 12.5718 0.604696 12.9366 0.969497C13.3014 1.3343 13.3014 1.92576 12.9366 2.29056L6.19221 9.03508Z" fill="currentColor"/>
</svg>
