<svg viewBox="0 0 19 19" fill="none" xmlns="http://www.w3.org/2000/svg">
<path d="M18.3316 1.15368C18.097 0.919123 17.8756 0.697556 17.5824 0.646339C17.5397 0.638545 17.4956 0.634277 17.4501 0.634277C17.1606 0.634277 16.8608 0.799246 16.5061 1.15386L15.8682 1.79407C15.868 1.79426 15.8678 1.79426 15.8676 1.79444L2.0898 15.5724C2.08962 15.5726 2.08962 15.5728 2.08943 15.573C2.07496 15.5876 2.06326 15.6051 2.05529 15.6244L2.0551 15.6248C2.0551 15.6249 2.0551 15.6251 2.05491 15.6253L1.28147 17.4845C1.28129 17.4847 1.28129 17.4849 1.2811 17.4852L0.90978 18.4079C0.90978 18.4081 0.90978 18.4081 0.90978 18.4083C0.902172 18.4276 0.89809 18.4482 0.898461 18.4693C0.898646 18.4903 0.9031 18.5109 0.911265 18.5298C0.911265 18.53 0.911265 18.5302 0.911265 18.5304C0.918873 18.5478 0.929822 18.5625 0.942069 18.5755C0.945409 18.5792 0.949306 18.5818 0.953017 18.5851C0.964337 18.5951 0.976399 18.6031 0.989945 18.6094C0.992729 18.6107 0.994584 18.6133 0.997739 18.6144C0.999409 18.6152 1.00164 18.615 1.00349 18.6155C1.02038 18.6217 1.03801 18.6259 1.05638 18.6259C1.05656 18.6259 1.05675 18.6261 1.05693 18.6261C1.05712 18.6261 1.05712 18.6259 1.05731 18.6259C1.07679 18.6259 1.09553 18.6213 1.11335 18.6142C1.11539 18.6133 1.11762 18.6137 1.11984 18.6128L3.86308 17.4288C3.86809 17.4266 3.87143 17.4225 3.87607 17.4197C3.88702 17.4138 3.89759 17.4075 3.90669 17.3991C3.90854 17.3975 3.91077 17.3969 3.91244 17.3952L15.6919 5.61805L17.6897 3.61838L18.3316 2.97873C19.2406 2.06723 18.7793 1.60368 18.3316 1.15368ZM1.99832 17.8879L1.61586 17.507L2.30821 15.8426L2.90258 15.8383V16.4114C2.90258 16.4991 2.97366 16.57 3.06143 16.57H3.64151V17.1785L1.99832 17.8879ZM3.95772 16.4195C3.9579 16.4166 3.95939 16.4143 3.95939 16.4114C3.95939 16.3236 3.88832 16.2527 3.80054 16.2527H3.22046V15.6786C3.22046 15.6784 3.22046 15.6782 3.22046 15.678C3.22046 15.6778 3.22046 15.6776 3.22046 15.6775C3.22046 15.6658 3.21619 15.6557 3.21359 15.645C3.21155 15.6353 3.21137 15.6251 3.20766 15.6164C3.20357 15.6068 3.19615 15.5993 3.1904 15.5908C3.18465 15.5824 3.18056 15.573 3.17351 15.5659C3.16553 15.5581 3.15496 15.5533 3.14549 15.547C3.13788 15.5422 3.13157 15.5355 3.12304 15.5322C3.10411 15.524 3.08333 15.5197 3.06143 15.5197C3.06106 15.5197 3.06069 15.5197 3.06032 15.5197L2.58823 15.5232L13.9793 4.13017L15.3541 5.50485L3.95939 16.8996V16.4277C3.95939 16.4247 3.9579 16.4225 3.95772 16.4195ZM14.2038 3.90582L14.6686 3.44153L16.0424 4.81659L15.5776 5.28162L14.2038 3.90582ZM14.8113 3.29883L15.0674 3.04312L16.4427 4.4165L16.1864 4.67277L14.8113 3.29883ZM15.2114 2.89931L15.4677 2.64323L16.8424 4.01679L16.5867 4.2725L15.2114 2.89931ZM15.6115 2.49941L15.9797 2.13162L17.3534 3.50556L16.9856 3.87353L15.6115 2.49941Z" fill="currentColor"/>
<path d="M14.5712 4.9294C14.5037 4.86259 14.4081 4.82715 14.2951 4.82715C14.06 4.82715 13.7612 4.97987 13.5155 5.22556C13.134 5.60467 13.0017 6.07045 13.2151 6.28626C13.2836 6.35492 13.3805 6.39111 13.495 6.39111C13.7304 6.39111 14.0311 6.23764 14.2801 5.9901C14.6577 5.60968 14.7858 5.14391 14.5712 4.9294ZM14.1387 5.66628C14.0442 5.76074 13.8993 5.76871 13.6874 5.76482L13.6087 5.76166L13.607 5.76315L13.837 5.99307L13.7794 6.05059L13.4526 5.72399L13.4951 5.6815L13.6022 5.68317C13.8575 5.68948 13.9828 5.68243 14.0607 5.60597C14.1127 5.55401 14.1357 5.48071 14.0593 5.40426C14.0129 5.35787 13.9505 5.34284 13.9073 5.33894L13.9342 5.26806C13.9995 5.27344 14.0719 5.30183 14.1311 5.36084C14.2409 5.47107 14.2118 5.59298 14.1387 5.66628Z" fill="currentColor"/>
</svg>
