<svg viewBox="0 0 21 21" fill="none" xmlns="http://www.w3.org/2000/svg">
<path d="M10.007 8.43115C9.63424 8.43115 9.33203 8.12894 9.33203 7.75615V3.11553H10.682V7.75615C10.682 8.12894 10.3798 8.43115 10.007 8.43115Z" fill="#C4C4C4"/>
<path d="M10.313 0.428262C10.1769 0.279121 9.83674 0.279121 9.70066 0.428262L7.55473 2.78021C7.41865 2.92935 7.58875 3.11578 7.8609 3.11578H12.1528C12.4249 3.11578 12.595 2.92935 12.4589 2.78021L10.313 0.428262Z" fill="#C4C4C4"/>
<path d="M10.007 12.1987C9.63424 12.1987 9.33203 12.5009 9.33203 12.8737V17.5165H10.682V12.8737C10.682 12.5009 10.3798 12.1987 10.007 12.1987Z" fill="#C4C4C4"/>
<path d="M7.34863 10.3149C7.34863 10.5911 7.57249 10.8149 7.84863 10.8149H12.1664C12.4425 10.8149 12.6664 10.5911 12.6664 10.3149C12.6664 10.0388 12.4425 9.81494 12.1664 9.81494H7.84863C7.57249 9.81494 7.34863 10.0388 7.34863 10.3149Z" fill="#C4C4C4"/>
<path d="M10.313 20.2041C10.1769 20.3532 9.83674 20.3532 9.70066 20.2041L7.55473 17.8521C7.41865 17.703 7.58875 17.5165 7.8609 17.5165H12.1528C12.4249 17.5165 12.595 17.703 12.4589 17.8521L10.313 20.2041Z" fill="#C4C4C4"/>
</svg>
