<svg viewBox="0 0 21 21" fill="none" xmlns="http://www.w3.org/2000/svg">
<path fill-rule="evenodd" clip-rule="evenodd" d="M8.54916 14.1413L8.26682 13.9783C7.12549 13.3193 6.73444 11.8599 7.39339 10.7186L10.9419 4.57244C11.6008 3.4311 13.0602 3.04005 14.2016 3.699L14.4839 3.86201C15.6252 4.52096 16.0163 5.98038 15.3573 7.12171L11.8089 13.2678C11.1499 14.4092 9.69049 14.8002 8.54916 14.1413ZM12.8694 5.13806L8.84667 12.1057C8.68193 12.391 8.7797 12.7558 9.06503 12.9206C9.35036 13.0853 9.71522 12.9876 9.87996 12.7022L13.9027 5.73463C14.0674 5.44929 13.9697 5.08444 13.6843 4.9197C13.399 4.75496 13.0342 4.85272 12.8694 5.13806Z" fill="currentColor"/>
<path fill-rule="evenodd" clip-rule="evenodd" d="M5.34277 17.184C5.34277 18.1025 6.33705 18.6765 7.13248 18.2173L9.1313 17.0633C9.92672 16.604 9.92672 15.4559 9.1313 14.9967L7.13248 13.8427C6.33705 13.3834 5.34277 13.9575 5.34277 14.876L5.34277 17.184ZM6.44748 15.1362L6.44748 16.9234C6.44748 17.1071 6.64634 17.2219 6.80542 17.1301L8.35319 16.2365C8.51228 16.1446 8.51228 15.915 8.35319 15.8231L6.80542 14.9295C6.64634 14.8377 6.44748 14.9525 6.44748 15.1362Z" fill="currentColor"/>
</svg>
