<svg viewBox="0 0 31 31" fill="none" xmlns="http://www.w3.org/2000/svg">
<path d="M15.4565 0.807116C7.3506 0.647288 0.643087 7.07533 0.458008 15.1807C0.479158 19.3066 2.30611 23.2165 5.4575 25.8796V30.1792C5.4575 30.5244 5.73732 30.8042 6.08246 30.8042C6.19958 30.8042 6.31435 30.7713 6.41366 30.7092L9.89707 28.5332C11.6718 29.212 13.5564 29.5581 15.4565 29.5543C23.5625 29.7142 30.27 23.2861 30.4551 15.1808C30.27 7.07533 23.5625 0.647288 15.4565 0.807116Z" fill="#2196F3"/>
<path d="M25.3307 11.0564C25.1448 10.8072 24.8038 10.7326 24.5308 10.8814L18.0315 14.4248L13.9881 10.9577C13.7402 10.7451 13.3704 10.7592 13.1395 10.9902L5.64021 18.4894C5.39689 18.7342 5.39807 19.1299 5.6429 19.3732C5.83865 19.5678 6.13879 19.6109 6.38141 19.4793L12.8808 15.9359L16.9278 19.4043C17.1758 19.6169 17.5456 19.6028 17.7765 19.3718L25.2758 11.8726C25.4943 11.652 25.5177 11.3044 25.3307 11.0564Z" fill="#FAFAFA"/>
</svg>
