<svg viewBox="0 0 31 30" fill="none" xmlns="http://www.w3.org/2000/svg">
<path d="M15.6523 -0.0600586C7.36834 -0.0600586 0.652344 6.65594 0.652344 14.9399C0.652344 23.2239 7.36834 29.9399 15.6523 29.9399C23.9363 29.9399 30.6523 23.2239 30.6523 14.9399C30.6523 6.65594 23.9363 -0.0600586 15.6523 -0.0600586ZM13.919 21.4146V14.5479C13.919 14.0882 14.1016 13.6474 14.4267 13.3223C14.7518 12.9972 15.1926 12.8146 15.6523 12.8146C16.1121 12.8146 16.5529 12.9972 16.878 13.3223C17.2031 13.6474 17.3857 14.0882 17.3857 14.5479V21.4146C17.3857 21.8743 17.2031 22.3152 16.878 22.6403C16.5529 22.9653 16.1121 23.1479 15.6523 23.1479C15.1926 23.1479 14.7518 22.9653 14.4267 22.6403C14.1016 22.3152 13.919 21.8743 13.919 21.4146ZM15.6523 10.9233C15.2403 10.9233 14.8375 10.8011 14.4949 10.5722C14.1523 10.3432 13.8853 10.0179 13.7276 9.6372C13.5699 9.25652 13.5287 8.83763 13.609 8.4335C13.6894 8.02938 13.8878 7.65816 14.1792 7.3668C14.4706 7.07544 14.8418 6.87702 15.2459 6.79664C15.65 6.71625 16.0689 6.75751 16.4496 6.91519C16.8303 7.07287 17.1557 7.3399 17.3846 7.6825C17.6135 8.02511 17.7357 8.4279 17.7357 8.83994C17.7357 9.39248 17.5162 9.92238 17.1255 10.3131C16.7348 10.7038 16.2049 10.9233 15.6523 10.9233Z" fill="currentColor"/>
</svg>
