<svg viewBox="0 0 41 17" fill="none" xmlns="http://www.w3.org/2000/svg">
<path d="M17.7926 0.87793H38.2659C38.4322 0.87793 38.5615 0.896407 38.7093 0.914885C39.4669 1.09966 39.9658 1.74638 39.9658 2.52245C39.9658 2.67027 39.9473 2.81809 39.9104 2.98439L37.1757 14.8101C37.0463 15.3645 36.7137 15.8634 36.2518 16.2144C35.8083 16.584 35.254 16.8057 34.6997 16.8057H14.2264C14.0786 16.8057 13.9307 16.7872 13.8014 16.7688C13.4134 16.6764 13.1177 16.4731 12.896 16.196C12.6743 15.9188 12.5449 15.5492 12.5449 15.1612C12.5449 15.0134 12.5634 14.8656 12.6004 14.6993L15.3351 2.87352C15.5753 1.78334 16.6654 0.87793 17.7926 0.87793ZM16.7024 1.70943L26.2738 8.56466L39.1158 1.63552C38.968 1.50617 38.8017 1.43226 38.5985 1.37683C38.5061 1.35835 38.3952 1.33987 38.2659 1.33987H17.7926C17.423 1.33987 17.035 1.46922 16.7024 1.70943ZM39.393 2.00507L26.3662 9.04508C26.2923 9.08204 26.1999 9.08204 26.1075 9.02661L16.3328 2.00507C16.0742 2.28224 15.8709 2.61484 15.797 2.98439L13.0623 14.8101C13.0253 14.921 13.0253 15.0503 13.0253 15.1612C13.0253 15.4569 13.0993 15.7155 13.2656 15.9003C13.4134 16.1036 13.6351 16.2514 13.9123 16.3068C14.0047 16.3253 14.1155 16.3438 14.2264 16.3438H34.6997C35.1431 16.3438 35.6051 16.159 35.9746 15.8634C36.3257 15.5677 36.6213 15.1612 36.7137 14.6993L39.4484 2.87352C39.4669 2.76266 39.4854 2.63331 39.4854 2.52245C39.4854 2.33767 39.4484 2.17137 39.393 2.00507Z" fill="currentColor"/>
<path d="M0.293998 14.8842C0.164654 14.8842 0.0722656 14.7733 0.0722656 14.644C0.0722656 14.5147 0.164654 14.4038 0.293998 14.4038H9.27415C9.42197 14.4038 9.51436 14.5147 9.51436 14.644C9.51436 14.7733 9.42197 14.8842 9.27415 14.8842H0.293998Z" fill="currentColor"/>
<path d="M5.24607 10.8374C5.11673 10.8374 5.00586 10.7266 5.00586 10.5972C5.00586 10.4679 5.11673 10.3755 5.24607 10.3755H10.9372C11.0665 10.3755 11.1589 10.4679 11.1589 10.5972C11.1589 10.7266 11.0665 10.8374 10.9372 10.8374H5.24607Z" fill="currentColor"/>
<path d="M23.4102 8.26912C23.521 8.21369 23.6689 8.25064 23.7243 8.36151C23.7982 8.47238 23.7613 8.60172 23.6504 8.67563L14.3561 14.1266C14.2452 14.2005 14.0974 14.1635 14.0235 14.0527C13.9681 13.9418 14.005 13.794 14.1159 13.7385L23.4102 8.26912Z" fill="currentColor"/>
<path d="M28.7306 9.06372C28.6198 8.98981 28.6013 8.84199 28.6752 8.73113C28.7491 8.62026 28.8969 8.60178 29.0078 8.67569L35.8815 13.7016C35.9924 13.7755 36.0108 13.9233 35.9369 14.0157C35.863 14.1266 35.7152 14.1451 35.6043 14.0712L28.7306 9.06372Z" fill="currentColor"/>
<path d="M7.59177 6.80903C7.46243 6.80903 7.35156 6.69817 7.35156 6.56882C7.35156 6.43948 7.46243 6.32861 7.59177 6.32861H12.3036C12.4329 6.32861 12.5253 6.43948 12.5253 6.56882C12.5253 6.69817 12.4329 6.80903 12.3036 6.80903H7.59177Z" fill="currentColor"/>
</svg>
