<svg viewBox="0 0 15 16" fill="none" xmlns="http://www.w3.org/2000/svg">
<path fill-rule="evenodd" clip-rule="evenodd" d="M0.818822 13.9146V2.07909C0.818822 1.20784 1.52511 0.50155 2.39637 0.50155H11.9022C12.7735 0.50155 13.4798 1.20784 13.4798 2.0791V13.9146C13.4798 14.7859 12.7735 15.4921 11.9022 15.4921H2.39637C1.52512 15.4921 0.818822 14.7859 0.818822 13.9146ZM8.3878 6.12436L6.92094 4.6575C6.65871 4.39528 6.65871 3.97013 6.92094 3.7079C7.18317 3.44567 7.60832 3.44567 7.87054 3.7079L8.92901 4.76637L11.1547 2.54067C11.4169 2.27845 11.8421 2.27845 12.1043 2.54067C12.3665 2.8029 12.3665 3.22805 12.1043 3.49028L9.47018 6.12441C9.3221 6.27248 9.12208 6.33694 8.92877 6.31778C8.7356 6.3368 8.53576 6.27232 8.3878 6.12436ZM11.6601 13.2508C11.3979 13.513 10.9728 13.513 10.7105 13.2508L9.51245 12.0527L8.32577 13.2394C8.06354 13.5016 7.63839 13.5016 7.37617 13.2394C7.11394 12.9772 7.11394 12.552 7.37617 12.2898L8.56285 11.1031L7.36536 9.90561C7.10314 9.64339 7.10314 9.21824 7.36536 8.95601C7.62759 8.69379 8.05274 8.69379 8.31496 8.95601L9.51245 10.1535L10.6985 8.96743C10.9608 8.7052 11.3859 8.7052 11.6481 8.96743C11.9104 9.22965 11.9104 9.6548 11.6481 9.91703L10.4621 11.1031L11.6601 12.3012C11.9224 12.5634 11.9224 12.9886 11.6601 13.2508ZM3.02647 6.16747C3.7357 6.16747 4.31065 5.59253 4.31065 4.88329C4.31065 4.17406 3.7357 3.59912 3.02647 3.59912C2.31724 3.59912 1.7423 4.17406 1.7423 4.88329C1.7423 5.59253 2.31724 6.16747 3.02647 6.16747ZM3.02647 12.3879C3.7357 12.3879 4.31065 11.813 4.31065 11.1038C4.31065 10.3945 3.7357 9.81958 3.02647 9.81958C2.31724 9.81958 1.7423 10.3945 1.7423 11.1038C1.7423 11.813 2.31724 12.3879 3.02647 12.3879Z" fill="currentColor"/>
<path fill-rule="evenodd" clip-rule="evenodd" d="M1.72135 16C0.850093 16 0.143799 15.2937 0.143799 14.4225V1.57755C0.143799 0.706292 0.85009 0 1.72134 0H12.5596C13.4308 0 14.1371 0.706291 14.1371 1.57755V14.4225C14.1371 15.2937 13.4308 16 12.5596 16H1.72135ZM0.818822 13.9146V2.07909C0.818822 1.20784 1.52511 0.50155 2.39637 0.50155H11.9022C12.7735 0.50155 13.4798 1.20784 13.4798 2.0791V13.9146C13.4798 14.7859 12.7735 15.4921 11.9022 15.4921H2.39637C1.52512 15.4921 0.818822 14.7859 0.818822 13.9146Z" fill="currentColor"/>
</svg>
