<svg viewBox="0 0 23 18" fill="none" xmlns="http://www.w3.org/2000/svg">
<g clip-path="url(#clip0)">
<path d="M17.8392 7.81745C18.0969 7.89967 18.3416 8.02257 18.5554 8.1954L20.257 3.98637C20.5059 3.39336 20.1729 2.70432 19.5626 2.5096C18.9387 2.31055 18.286 2.67014 18.1277 3.307L17.0364 7.71075C17.3108 7.6937 17.5815 7.73523 17.8392 7.81745Z" fill="currentColor"/>
<path d="M17.532 8.78049C16.8539 8.56413 16.1248 8.92922 15.9084 9.60735C15.6747 10.3397 16.3365 11.029 15.8362 12.035C15.7485 12.2162 15.9086 12.4167 16.106 12.3602C17.4789 11.9913 18.1339 11.1094 18.3589 10.4041C18.5753 9.726 18.2102 8.99685 17.532 8.78049Z" fill="currentColor"/>
<path d="M9.65152 2.96191H9.64043L9.62934 2.96241C8.21958 3.02499 6.1042 3.42829 4.32343 4.45405C2.52623 5.48927 1.02588 7.1921 1.02588 9.82241C1.02588 11.4324 1.51791 12.6861 2.28742 13.6479C3.05056 14.6017 4.0654 15.2427 5.07887 15.6746C7.09614 16.5343 9.20578 16.607 9.65152 16.607C10.0799 16.607 10.9523 16.5893 11.8087 16.2951C12.6762 15.9971 13.5809 15.3937 13.9471 14.2035C14.1345 13.5945 14.0785 13.0719 13.849 12.6191C13.6328 12.1924 13.2805 11.8665 12.9609 11.6003C12.8508 11.5086 12.7462 11.425 12.6463 11.3451C12.431 11.173 12.2375 11.0184 12.0586 10.8387C11.8124 10.5915 11.6592 10.3554 11.6052 10.0851C11.455 9.33436 11.5422 9.01069 11.6766 8.80365C11.7525 8.68681 11.8657 8.57245 12.0404 8.43723C12.1855 8.32488 12.351 8.21417 12.5531 8.07907C12.6012 8.04685 12.6515 8.01324 12.704 7.9779C13.0575 7.74009 13.3952 7.31694 13.6226 6.84167C13.8522 6.36165 14.0008 5.7631 13.8938 5.16153C13.7828 4.53713 13.4056 3.96642 12.6944 3.56776C12.0025 3.18001 11.0106 2.96191 9.65152 2.96191Z" fill="white" stroke="currentColor"/>
<path d="M9.92454 6.60446C9.92454 7.11778 9.50841 7.53391 8.99509 7.53391C8.48176 7.53391 8.06563 7.11778 8.06563 6.60446C8.06563 6.09114 8.48176 5.67501 8.99509 5.67501C9.50841 5.67501 9.92454 6.09114 9.92454 6.60446Z" fill="currentColor"/>
<path fill-rule="evenodd" clip-rule="evenodd" d="M10.4452 6.60446C10.4452 7.40536 9.79599 8.05462 8.99509 8.05462C8.19418 8.05462 7.54492 7.40536 7.54492 6.60446C7.54492 5.80356 8.19418 5.1543 8.99509 5.1543C9.79599 5.1543 10.4452 5.80356 10.4452 6.60446ZM8.99509 7.53391C9.50841 7.53391 9.92454 7.11778 9.92454 6.60446C9.92454 6.09114 9.50841 5.67501 8.99509 5.67501C8.48176 5.67501 8.06563 6.09114 8.06563 6.60446C8.06563 7.11778 8.48176 7.53391 8.99509 7.53391Z" fill="currentColor"/>
<path d="M5.99412 9.50485C5.99412 10.0182 5.57799 10.4343 5.06467 10.4343C4.55134 10.4343 4.13521 10.0182 4.13521 9.50485C4.13521 8.99153 4.55134 8.5754 5.06467 8.5754C5.57799 8.5754 5.99412 8.99153 5.99412 9.50485Z" fill="currentColor"/>
<path fill-rule="evenodd" clip-rule="evenodd" d="M6.51483 9.50485C6.51483 10.3058 5.86557 10.955 5.06467 10.955C4.26376 10.955 3.6145 10.3058 3.6145 9.50485C3.6145 8.70395 4.26376 8.05469 5.06467 8.05469C5.86557 8.05469 6.51483 8.70395 6.51483 9.50485ZM5.06467 10.4343C5.57799 10.4343 5.99412 10.0182 5.99412 9.50485C5.99412 8.99153 5.57799 8.5754 5.06467 8.5754C4.55134 8.5754 4.13521 8.99153 4.13521 9.50485C4.13521 10.0182 4.55134 10.4343 5.06467 10.4343Z" fill="currentColor"/>
<path d="M9.65647 13.4067C9.65647 13.92 9.24034 14.3362 8.72702 14.3362C8.2137 14.3362 7.79757 13.92 7.79757 13.4067C7.79757 12.8934 8.2137 12.4773 8.72702 12.4773C9.24034 12.4773 9.65647 12.8934 9.65647 13.4067Z" fill="currentColor"/>
<path fill-rule="evenodd" clip-rule="evenodd" d="M10.1772 13.4067C10.1772 14.2076 9.52792 14.8569 8.72702 14.8569C7.92612 14.8569 7.27686 14.2076 7.27686 13.4067C7.27686 12.6058 7.92612 11.9565 8.72702 11.9565C9.52792 11.9565 10.1772 12.6058 10.1772 13.4067ZM8.72702 14.3362C9.24034 14.3362 9.65647 13.92 9.65647 13.4067C9.65647 12.8934 9.24034 12.4773 8.72702 12.4773C8.2137 12.4773 7.79757 12.8934 7.79757 13.4067C7.79757 13.92 8.2137 14.3362 8.72702 14.3362Z" fill="currentColor"/>
</g>
<defs>
<clipPath id="clip0">
<rect width="22" height="17" fill="white" transform="translate(0.140625 0.606934)"/>
</clipPath>
</defs>
</svg>
