<svg viewBox="0 0 30 31" fill="none" xmlns="http://www.w3.org/2000/svg">
<ellipse cx="15.0016" cy="15.6338" rx="15.0016" ry="15" fill="currentColor"/>
<path d="M10.041 19.6405C10.041 15.7969 13.1565 12.681 16.9996 12.681C20.8427 12.681 23.9582 15.7969 23.9582 19.6405V21.4432C23.9582 22.653 22.9776 23.6338 21.7679 23.6338H12.2313C11.0216 23.6338 10.041 22.653 10.041 21.4432V19.6405Z" fill="white"/>
<path fill-rule="evenodd" clip-rule="evenodd" d="M23.3725 21.4432V19.6405C23.3725 16.1204 20.5193 13.2667 16.9996 13.2667C13.4799 13.2667 10.6267 16.1204 10.6267 19.6405V21.4432C10.6267 22.3295 11.3451 23.048 12.2313 23.048H21.7679C22.6541 23.048 23.3725 22.3295 23.3725 21.4432ZM16.9996 12.681C13.1565 12.681 10.041 15.7969 10.041 19.6405V21.4432C10.041 22.653 11.0216 23.6338 12.2313 23.6338H21.7679C22.9776 23.6338 23.9582 22.653 23.9582 21.4432V19.6405C23.9582 15.7969 20.8427 12.681 16.9996 12.681Z" fill="currentColor"/>
<path d="M22.3605 10.9889C22.3605 13.9464 19.963 16.3439 17.0055 16.3439C14.0479 16.3439 11.6504 13.9464 11.6504 10.9889C11.6504 8.03133 14.0479 5.63379 17.0055 5.63379C19.963 5.63379 22.3605 8.03133 22.3605 10.9889Z" fill="white"/>
<path fill-rule="evenodd" clip-rule="evenodd" d="M17.0055 15.7582C19.6395 15.7582 21.7748 13.6229 21.7748 10.9889C21.7748 8.35482 19.6395 6.21951 17.0055 6.21951C14.3714 6.21951 12.2361 8.35482 12.2361 10.9889C12.2361 13.6229 14.3714 15.7582 17.0055 15.7582ZM17.0055 16.3439C19.963 16.3439 22.3605 13.9464 22.3605 10.9889C22.3605 8.03133 19.963 5.63379 17.0055 5.63379C14.0479 5.63379 11.6504 8.03133 11.6504 10.9889C11.6504 13.9464 14.0479 16.3439 17.0055 16.3439Z" fill="currentColor"/>
<path d="M6.04102 21.6405C6.04102 17.7969 9.15648 14.681 12.9996 14.681C16.8427 14.681 19.9582 17.7969 19.9582 21.6405V23.4432C19.9582 24.653 18.9776 25.6338 17.7679 25.6338H8.23127C7.02162 25.6338 6.04102 24.653 6.04102 23.4432V21.6405Z" fill="white"/>
<path fill-rule="evenodd" clip-rule="evenodd" d="M19.3725 23.4432V21.6405C19.3725 18.1204 16.5193 15.2667 12.9996 15.2667C9.47992 15.2667 6.62666 18.1204 6.62666 21.6405V23.4432C6.62666 24.3295 7.34507 25.048 8.23127 25.048H17.7679C18.6541 25.048 19.3725 24.3295 19.3725 23.4432ZM12.9996 14.681C9.15648 14.681 6.04102 17.7969 6.04102 21.6405V23.4432C6.04102 24.653 7.02162 25.6338 8.23127 25.6338H17.7679C18.9776 25.6338 19.9582 24.653 19.9582 23.4432V21.6405C19.9582 17.7969 16.8427 14.681 12.9996 14.681Z" fill="currentColor"/>
<path d="M18.3605 12.9889C18.3605 15.9464 15.963 18.3439 13.0055 18.3439C10.0479 18.3439 7.65039 15.9464 7.65039 12.9889C7.65039 10.0313 10.0479 7.63379 13.0055 7.63379C15.963 7.63379 18.3605 10.0313 18.3605 12.9889Z" fill="white"/>
<path fill-rule="evenodd" clip-rule="evenodd" d="M13.0055 17.7582C15.6395 17.7582 17.7748 15.6229 17.7748 12.9889C17.7748 10.3548 15.6395 8.21951 13.0055 8.21951C10.3714 8.21951 8.23611 10.3548 8.23611 12.9889C8.23611 15.6229 10.3714 17.7582 13.0055 17.7582ZM13.0055 18.3439C15.963 18.3439 18.3605 15.9464 18.3605 12.9889C18.3605 10.0313 15.963 7.63379 13.0055 7.63379C10.0479 7.63379 7.65039 10.0313 7.65039 12.9889C7.65039 15.9464 10.0479 18.3439 13.0055 18.3439Z" fill="currentColor"/>
</svg>
