<svg viewBox="0 0 25 21" fill="none" xmlns="http://www.w3.org/2000/svg">
<g clip-path="url(#clip0)">
<path fill-rule="evenodd" clip-rule="evenodd" d="M8.06426 0.641724C10.68 0.641724 12.7994 2.76186 12.7994 5.37688C12.7994 7.99189 10.68 10.112 8.06426 10.112C5.44924 10.112 3.3291 7.99189 3.3291 5.37688C3.3291 2.76186 5.44924 0.641724 8.06426 0.641724Z" fill="currentColor"/>
<path fill-rule="evenodd" clip-rule="evenodd" d="M8.06411 10.9481C11.6955 10.9481 14.8054 13.5461 16.0989 17.2321C14.0191 19.2416 11.187 20.4778 8.06411 20.4778C4.94124 20.4778 2.10916 19.2416 0.0292969 17.2321C1.32281 13.5461 4.43271 10.9481 8.06411 10.9481Z" fill="currentColor"/>
<path fill-rule="evenodd" clip-rule="evenodd" d="M18.2729 0.5C20.4531 0.5 22.2197 2.26724 22.2197 4.44676C22.2197 6.62628 20.4531 8.39283 18.2729 8.39283C16.0934 8.39283 14.3262 6.62628 14.3262 4.44676C14.3262 2.26724 16.0934 0.5 18.2729 0.5V0.5Z" fill="currentColor"/>
<path fill-rule="evenodd" clip-rule="evenodd" d="M18.273 9.09009C21.2997 9.09009 23.8915 11.2553 24.97 14.3276C23.2362 16.0027 20.8758 17.0327 18.273 17.0327C18.03 17.0327 17.7898 17.0239 17.5515 17.0061C16.7317 14.6792 15.4601 12.7092 13.4314 11.256C14.7133 9.90988 16.4109 9.09009 18.273 9.09009Z" fill="currentColor"/>
</g>
<defs>
<clipPath id="clip0">
<rect width="24.9147" height="20" fill="none" transform="translate(0.0292969 0.5)"/>
</clipPath>
</defs>
</svg>
