<svg viewBox="0 0 21 19" fill="none" xmlns="http://www.w3.org/2000/svg">
<path d="M17.2766 8.11147V5.89522V3.39097C17.276 3.02117 17.1288 2.66669 16.8673 2.40521C16.6059 2.14372 16.2514 1.99656 15.8816 1.99597H14.5586V0.720215C14.5586 0.645623 14.529 0.574086 14.4762 0.521341C14.4235 0.468596 14.3519 0.438965 14.2773 0.438965H12.4211C12.3465 0.438965 12.275 0.468596 12.2222 0.521341C12.1695 0.574086 12.1398 0.645623 12.1398 0.720215V1.98697H9.94834V0.720215C9.94834 0.645623 9.91871 0.574086 9.86597 0.521341C9.81322 0.468596 9.74169 0.438965 9.66709 0.438965H7.82434C7.74975 0.438965 7.67821 0.468596 7.62547 0.521341C7.57273 0.574086 7.54309 0.645623 7.54309 0.720215V1.98697H5.35159V0.720215C5.35159 0.645623 5.32196 0.574086 5.26922 0.521341C5.21647 0.468596 5.14494 0.438965 5.07034 0.438965H3.21409C3.1395 0.438965 3.06796 0.468596 3.01522 0.521341C2.96248 0.574086 2.93284 0.645623 2.93284 0.720215V1.98697H1.60984C1.24005 1.98756 0.885571 2.13472 0.624087 2.39621C0.362603 2.65769 0.215439 3.01217 0.214844 3.38197V5.89522V17.4355C0.215427 17.7277 0.33132 18.0079 0.537338 18.2152C0.743357 18.4225 1.02285 18.5401 1.31509 18.5425H15.3258C15.3656 18.5415 15.4046 18.5324 15.4406 18.5155C15.8506 18.4798 16.2552 18.3975 16.6466 18.2702C17.688 17.9286 18.6029 17.2824 19.2731 16.4151C19.9432 15.5479 20.3377 14.4995 20.4056 13.4056C20.4734 12.3117 20.2115 11.2226 19.6537 10.2792C19.0959 9.33576 18.2678 8.58142 17.2766 8.11372V8.11147ZM12.7023 1.01047H13.9961V4.05697H12.7023V1.01047ZM8.10559 1.01047H9.38584V4.05697H8.10559V1.01047ZM3.49534 1.01047H4.78909V4.05697H3.49534V1.01047ZM1.60984 2.55847H2.93284V4.33822C2.93284 4.41281 2.96248 4.48435 3.01522 4.53709C3.06796 4.58984 3.1395 4.61947 3.21409 4.61947H5.07034C5.14494 4.61947 5.21647 4.58984 5.26922 4.53709C5.32196 4.48435 5.35159 4.41281 5.35159 4.33822V2.55847H7.54309V4.33822C7.54309 4.41281 7.57273 4.48435 7.62547 4.53709C7.67821 4.58984 7.74975 4.61947 7.82434 4.61947H9.66709C9.74169 4.61947 9.81322 4.58984 9.86597 4.53709C9.91871 4.48435 9.94834 4.41281 9.94834 4.33822V2.55847H12.1398V4.33822C12.1398 4.41281 12.1695 4.48435 12.2222 4.53709C12.275 4.58984 12.3465 4.61947 12.4211 4.61947H14.2773C14.3519 4.61947 14.4235 4.58984 14.4762 4.53709C14.529 4.48435 14.5586 4.41281 14.5586 4.33822V2.55847H15.8816C16.1024 2.55847 16.3141 2.64618 16.4703 2.8023C16.6264 2.95842 16.7141 3.17017 16.7141 3.39097V5.60497H0.777344V3.39097C0.777344 3.17017 0.865053 2.95842 1.02118 2.8023C1.1773 2.64618 1.38905 2.55847 1.60984 2.55847ZM12.5223 17.98H1.31509C1.17087 17.9794 1.03271 17.9218 0.930728 17.8198C0.828743 17.7179 0.771186 17.5797 0.770594 17.4355V6.16747H16.7141V7.87747L16.5746 7.83697L16.3901 7.78072C16.2933 7.75372 16.1966 7.73122 16.0976 7.70872L15.9131 7.67047C15.8051 7.65247 15.6881 7.63672 15.5891 7.62547C15.5351 7.62547 15.4833 7.60972 15.4293 7.60522C15.2673 7.58947 15.1053 7.58272 14.9411 7.58272H2.56609C2.4915 7.58272 2.41996 7.61235 2.36722 7.66509C2.31448 7.71784 2.28484 7.78938 2.28484 7.86397V16.1102C2.28484 16.1848 2.31448 16.2564 2.36722 16.3091C2.41996 16.3618 2.4915 16.3915 2.56609 16.3915H10.5873C10.6256 16.441 10.6616 16.4905 10.7021 16.5377C10.7426 16.585 10.7493 16.5917 10.7741 16.621C10.7988 16.6502 10.8708 16.7335 10.9203 16.7875C10.9698 16.8415 10.9811 16.8482 11.0103 16.8775C11.0396 16.9067 11.1026 16.9742 11.1521 17.0215L11.2533 17.1137L11.3973 17.242L11.5076 17.3297C11.5548 17.368 11.6043 17.4085 11.6538 17.4445L11.7708 17.5277C11.8203 17.5637 11.8698 17.5997 11.9216 17.6335L12.0453 17.71L12.2006 17.8045L12.3288 17.8742C12.3806 17.9035 12.4346 17.9305 12.4886 17.9575L12.5223 17.98ZM12.1826 8.32747L12.1151 8.37022C12.0071 8.43547 11.8901 8.50297 11.7978 8.57497L11.7303 8.62447C11.6403 8.68747 11.5526 8.75497 11.4671 8.82697L11.4063 8.87422C11.3096 8.95747 11.2151 9.04297 11.1251 9.13072L11.0981 9.15547V8.14522H12.5201L12.4796 8.16547C12.3806 8.21722 12.2793 8.27122 12.1826 8.32747ZM10.3601 10.042L10.2543 10.2107C10.2318 10.2512 10.2048 10.2895 10.1823 10.33C10.1598 10.3705 10.1126 10.456 10.0788 10.5212L10.0226 10.6202C9.97309 10.7215 9.92809 10.8205 9.88309 10.924C9.83809 11.0275 9.79309 11.149 9.75484 11.2682L9.72784 11.3447C9.68959 11.4595 9.65584 11.5697 9.62659 11.6912H6.96484V8.14522H10.5266V9.80347C10.4973 9.84172 10.4726 9.88222 10.4433 9.92272L10.3601 10.042ZM9.91009 15.217C9.93034 15.2687 9.95509 15.3182 9.97984 15.37C10.0046 15.4217 10.0361 15.4915 10.0676 15.5522C10.0991 15.613 10.1193 15.649 10.1463 15.6962C10.1733 15.7435 10.1891 15.7817 10.2138 15.8222H6.96484V12.2672H9.51184V12.3257C9.51184 12.418 9.48934 12.5102 9.48259 12.6047C9.48259 12.6385 9.48259 12.6722 9.48259 12.706C9.48259 12.823 9.48259 12.931 9.48259 13.0615C9.48259 13.192 9.48259 13.3112 9.48259 13.435L9.49609 13.561C9.49609 13.642 9.50959 13.723 9.52084 13.804C9.53209 13.885 9.53884 13.9052 9.54559 13.9547C9.55234 14.0042 9.56809 14.0987 9.58384 14.1797C9.59959 14.2607 9.60859 14.2855 9.62209 14.3372C9.63559 14.389 9.65134 14.4722 9.66934 14.5375C9.68734 14.6027 9.70309 14.6455 9.71884 14.6995C9.73459 14.7535 9.75934 14.8277 9.78184 14.8907C9.80434 14.9537 9.82009 14.9965 9.84034 15.0482C9.86059 15.1 9.86509 15.1652 9.90109 15.226L9.91009 15.217ZM6.40234 11.7047H2.84059V8.14522H6.40234V11.7047ZM2.84059 12.2672H6.40234V15.829H2.84059V12.2672ZM16.4688 17.7347C16.0416 17.8746 15.5972 17.9556 15.1481 17.9755H15.1211C15.0198 17.9755 14.9208 17.9755 14.8218 17.9755H14.8151C13.9125 17.9488 13.0342 17.6766 12.2748 17.188C12.1983 17.1385 12.1233 17.0867 12.0498 17.0327L12.0228 17.0147C11.9553 16.9652 11.8901 16.9135 11.8271 16.8595C11.8136 16.8595 11.7978 16.8392 11.7843 16.8257C11.7258 16.7785 11.6696 16.7267 11.6111 16.6727L11.5593 16.6255C11.5076 16.576 11.4558 16.5242 11.4063 16.4725L11.3478 16.414C11.2983 16.36 11.2511 16.3037 11.2038 16.2475L11.1498 16.1867C11.0868 16.1102 11.0238 16.0315 10.9653 15.9617C10.9068 15.892 10.8281 15.7637 10.7606 15.6535C10.2824 14.8794 10.0299 13.9871 10.0316 13.0772C10.0316 12.9887 10.0316 12.901 10.0316 12.814C10.0442 12.5605 10.0773 12.3084 10.1306 12.0602C10.1929 11.7515 10.2864 11.45 10.4096 11.1602C10.6749 10.5369 11.0663 9.97527 11.5593 9.5106C12.0522 9.04593 12.636 8.68831 13.2738 8.46022C13.4336 8.40397 13.5956 8.35447 13.7621 8.31172C13.9286 8.26897 14.0951 8.23972 14.2661 8.21497C14.3493 8.20372 14.4348 8.19247 14.5226 8.18572C14.6597 8.16459 14.798 8.15107 14.9366 8.14522C15.559 8.1454 16.1758 8.26295 16.7546 8.49172C16.7951 8.50972 16.8378 8.52547 16.8828 8.54797C17.7996 8.94295 18.5745 9.60767 19.1043 10.4537C19.6341 11.2998 19.8938 12.2871 19.8489 13.2843C19.8039 14.2816 19.4565 15.2415 18.8527 16.0365C18.2489 16.8315 17.4174 17.4238 16.4688 17.7347Z" fill="currentColor"/>
<path d="M15.2148 12.9447V10.2852C15.2148 10.2106 15.1852 10.139 15.1325 10.0863C15.0797 10.0335 15.0082 10.0039 14.9336 10.0039C14.859 10.0039 14.7875 10.0335 14.7347 10.0863C14.682 10.139 14.6523 10.2106 14.6523 10.2852V13.0617C14.6522 13.1357 14.6813 13.2069 14.7333 13.2597L15.8583 14.3847C15.884 14.4112 15.9148 14.4323 15.9488 14.4466C15.9828 14.4609 16.0194 14.4682 16.0563 14.4679C16.1111 14.4681 16.1648 14.4522 16.2107 14.4223C16.2566 14.3924 16.2928 14.3497 16.3147 14.2995C16.3367 14.2493 16.3436 14.1938 16.3345 14.1398C16.3253 14.0858 16.3006 14.0356 16.2633 13.9954L15.2148 12.9447Z" fill="currentColor"/>
</svg>
