<svg viewBox="0 0 19 20" fill="none" xmlns="http://www.w3.org/2000/svg">
<path d="M15 8.13916C15 12.2813 11.6421 15.6392 7.5 15.6392C3.35786 15.6392 0 12.2813 0 8.13916C0 3.99702 3.35786 0.63916 7.5 0.63916C11.6421 0.63916 15 3.99702 15 8.13916ZM2.81297 8.13916C2.81297 10.7277 4.91143 12.8262 7.5 12.8262C10.0886 12.8262 12.187 10.7277 12.187 8.13916C12.187 5.55059 10.0886 3.45213 7.5 3.45213C4.91143 3.45213 2.81297 5.55059 2.81297 8.13916Z" fill="currentColor"/>
<path d="M16.1483 19.4713C16.6985 20.0215 17.5906 20.0215 18.1408 19.4713C18.691 18.9211 18.691 18.029 18.1408 17.4788L14.2045 13.5425C13.6543 12.9923 12.7622 12.9923 12.212 13.5425C11.6618 14.0927 11.6618 14.9848 12.212 15.535L16.1483 19.4713Z" fill="currentColor"/>
</svg>
