<svg viewBox="0 0 17 16" fill="none" xmlns="http://www.w3.org/2000/svg">
<path d="M5.62898 6.38122C5.62898 6.6736 5.866 6.91062 6.15837 6.91062C6.45075 6.91062 6.68777 6.6736 6.68777 6.38122C6.68777 6.08885 6.45075 5.85183 6.15837 5.85183C5.866 5.85183 5.62898 6.08885 5.62898 6.38122Z" fill="currentColor"/>
<path d="M10.2403 6.38122C10.2403 6.6736 10.4773 6.91062 10.7697 6.91062C11.0621 6.91062 11.2991 6.6736 11.2991 6.38122C11.2991 6.08885 11.0621 5.85183 10.7697 5.85183C10.4773 5.85183 10.2403 6.08885 10.2403 6.38122Z" fill="currentColor"/>
<path fill-rule="evenodd" clip-rule="evenodd" d="M0.140625 8C0.140625 12.4183 3.72235 16 8.14062 16C12.5589 16 16.1406 12.4183 16.1406 8C16.1406 3.58172 12.5589 0 8.14062 0C3.72235 0 0.140625 3.58172 0.140625 8ZM5.82003 7.88747C5.22325 7.88747 4.73946 7.40368 4.73946 6.8069C4.73946 6.21011 5.22325 5.72632 5.82003 5.72632C6.41682 5.72632 6.90061 6.21011 6.90061 6.8069C6.90061 7.40368 6.41682 7.88747 5.82003 7.88747ZM10.4513 7.88747C9.85455 7.88747 9.37076 7.40368 9.37076 6.8069C9.37076 6.21011 9.85455 5.72632 10.4513 5.72632C11.0481 5.72632 11.5319 6.21011 11.5319 6.8069C11.5319 7.40368 11.0481 7.88747 10.4513 7.88747ZM5.68918 11.652C5.1356 11.206 4.79286 10.6219 4.71263 10.0002C4.69258 9.84479 4.82148 9.71722 4.97821 9.71722H11.2032C11.36 9.71722 11.4889 9.8448 11.4688 10.0002C11.3886 10.6219 11.0458 11.206 10.4923 11.652C9.85533 12.1651 8.99147 12.4533 8.09072 12.4533C7.18997 12.4533 6.32611 12.1651 5.68918 11.652Z" fill="currentColor"/>
<path fill-rule="evenodd" clip-rule="evenodd" d="M5.62898 6.38122C5.62898 6.6736 5.866 6.91062 6.15837 6.91062C6.45075 6.91062 6.68777 6.6736 6.68777 6.38122C6.68777 6.08885 6.45075 5.85183 6.15837 5.85183C5.866 5.85183 5.62898 6.08885 5.62898 6.38122ZM10.7697 6.91062C10.4773 6.91062 10.2403 6.6736 10.2403 6.38122C10.2403 6.08885 10.4773 5.85183 10.7697 5.85183C11.0621 5.85183 11.2991 6.08885 11.2991 6.38122C11.2991 6.6736 11.0621 6.91062 10.7697 6.91062Z" fill="currentColor"/>
</svg>
