<svg viewBox="0 0 17 17" fill="none" xmlns="http://www.w3.org/2000/svg">
<path d="M6.91598 6.66774C7.28078 6.30294 7.28078 5.70578 6.91598 5.34098C6.55118 4.97618 5.95403 4.97618 5.58905 5.34098L5.49412 5.43592L5.39918 5.34098C5.03438 4.97618 4.43723 4.97618 4.07243 5.34098C3.70763 5.70578 3.70763 6.30294 4.07243 6.66774L5.49412 8.08943L6.91598 6.66774Z" fill="currentColor"/>
<path d="M11.9037 5.34074L11.8087 5.43567L11.7138 5.34074C11.349 4.97594 10.7519 4.97594 10.3869 5.34074C10.0221 5.70554 10.0221 6.3027 10.3869 6.6675L11.8086 8.08918L13.2303 6.6675C13.5951 6.3027 13.5951 5.70554 13.2303 5.34074C12.8656 4.97594 12.2685 4.97594 11.9037 5.34074Z" fill="currentColor"/>
<path d="M8.65234 0.249512C4.24114 0.249512 0.652344 3.83831 0.652344 8.24951C0.652344 12.6607 4.24114 16.2495 8.65234 16.2495C13.0635 16.2495 16.6523 12.6607 16.6523 8.24951C16.6523 3.83831 13.0635 0.249512 8.65234 0.249512ZM8.65234 15.3606C4.73128 15.3606 1.54123 12.1706 1.54123 8.24951C1.54123 4.32844 4.73128 1.1384 8.65234 1.1384C12.5734 1.1384 15.7635 4.32844 15.7635 8.24951C15.7635 12.1706 12.5734 15.3606 8.65234 15.3606Z" fill="currentColor"/>
<path d="M11.5137 9.85062C9.90926 11.2808 7.3953 11.2808 5.79085 9.85062C5.60756 9.68706 5.32667 9.70324 5.16347 9.88671C5.0001 10.07 5.01627 10.3509 5.19956 10.5143C6.16739 11.377 7.40988 11.8087 8.65219 11.8087C9.8945 11.8087 11.137 11.3772 12.105 10.5143C12.2883 10.3509 12.3045 10.07 12.1411 9.88671C11.9777 9.70342 11.697 9.68706 11.5137 9.85062Z" fill="currentColor"/>
</svg>
