<svg viewBox="0 0 18 19" fill="none" xmlns="http://www.w3.org/2000/svg">
<g clip-path="url(#clip0)">
<path fill-rule="evenodd" clip-rule="evenodd" d="M15.5899 0.564494C15.4911 0.567597 15.3935 0.5767 15.2941 0.588638C14.4986 0.684928 13.6635 1.04719 12.9033 1.63312C12.8571 1.66832 12.8183 1.71229 12.7891 1.76252C12.7599 1.81275 12.7409 1.86824 12.7332 1.92582C12.7256 1.98341 12.7293 2.04194 12.7443 2.09807C12.7593 2.1542 12.7852 2.20681 12.8206 2.2529C12.8559 2.29899 12.9 2.33765 12.9504 2.36665C13.0007 2.39566 13.0563 2.41444 13.1139 2.42193C13.1715 2.42941 13.23 2.42544 13.2861 2.41026C13.3422 2.39507 13.3947 2.36897 13.4406 2.33344C14.0918 1.83157 14.7948 1.53691 15.3967 1.46406C15.9987 1.39121 16.4749 1.52798 16.7914 1.84443C17.1516 2.20469 17.2807 2.77849 17.1294 3.49261C16.9782 4.20672 16.5356 5.02225 15.8375 5.7204C15.1393 6.41853 14.3238 6.86114 13.6097 7.01237C12.8956 7.16361 12.3218 7.03459 11.9615 6.67428C11.8603 6.57317 11.7826 6.45543 11.72 6.32412C11.6694 6.2187 11.5791 6.13768 11.4688 6.0988C11.3585 6.05992 11.2373 6.06636 11.1318 6.11673C11.0263 6.16709 10.945 6.25726 10.9059 6.36744C10.8668 6.47763 10.8729 6.59885 10.9231 6.70448C11.0265 6.92137 11.1657 7.1222 11.3397 7.29612C11.6373 7.59378 12.0048 7.77537 12.4083 7.86968C12.3888 7.89229 12.3695 7.91447 12.3479 7.93609C11.8869 8.39701 11.1546 8.39703 10.6937 7.93609C10.2327 7.47514 10.2327 6.74282 10.6937 6.28185C11.1546 5.82091 11.8869 5.82089 12.3479 6.28185C12.3951 6.32911 12.4376 6.38081 12.4747 6.43278C12.5082 6.48026 12.5509 6.52064 12.6001 6.5516C12.6493 6.58255 12.7042 6.60347 12.7615 6.61317C12.8188 6.62287 12.8775 6.62114 12.9342 6.60809C12.9908 6.59504 13.0444 6.57092 13.0917 6.53712C13.139 6.50333 13.1792 6.46052 13.2099 6.41115C13.2406 6.36178 13.2613 6.30683 13.2707 6.24945C13.2801 6.19207 13.2781 6.13339 13.2648 6.07679C13.2515 6.02018 13.2271 5.96677 13.1931 5.91962C13.1278 5.82805 13.0573 5.74156 12.9758 5.66C12.5769 5.26108 12.047 5.05626 11.5208 5.05628C10.9946 5.05628 10.4707 5.26108 10.0718 5.66C9.27399 6.45783 9.27398 7.7601 10.0718 8.55791C10.8696 9.35575 12.1779 9.35575 12.9758 8.55791C13.1624 8.37133 13.3048 8.15906 13.4044 7.93003C13.5346 7.91678 13.6661 7.89734 13.7968 7.86968C14.2155 7.781 14.637 7.6158 15.0526 7.39272L15.0466 9.78953L7.27051 17.5656L1.06414 11.3593L8.84021 3.58316H12.8067L14.7447 5.52116C14.7844 5.56685 14.833 5.6039 14.8876 5.62998C14.9422 5.65607 15.0016 5.67063 15.0621 5.67277C15.1225 5.6749 15.1828 5.66456 15.2391 5.6424C15.2954 5.62023 15.3465 5.58672 15.3893 5.54394C15.4321 5.50115 15.4656 5.45002 15.4878 5.39371C15.51 5.33741 15.5203 5.27715 15.5182 5.21668C15.516 5.15621 15.5015 5.09683 15.4754 5.04223C15.4493 4.98763 15.4123 4.93899 15.3666 4.89933L13.3018 2.8285C13.2604 2.78772 13.2114 2.75553 13.1575 2.73377C13.1036 2.71202 13.046 2.70113 12.9879 2.70174H8.65306C8.63898 2.70106 8.62488 2.70106 8.6108 2.70174C8.50821 2.71095 8.41208 2.7558 8.33912 2.8285L0.12835 11.0453C0.0461473 11.1279 0 11.2397 0 11.3562C0 11.4728 0.0461473 11.5846 0.12835 11.6672L6.96261 18.5014C7.04521 18.5836 7.157 18.6298 7.27353 18.6298C7.39006 18.6298 7.50185 18.5836 7.58445 18.5014L15.8013 10.2906C15.842 10.2492 15.8742 10.2002 15.896 10.1463C15.9177 10.0924 15.9286 10.0348 15.928 9.97669L15.9341 6.81313C16.1167 6.66738 16.2936 6.51395 16.4653 6.34223C17.273 5.53452 17.7991 4.58836 17.9928 3.67374C18.1865 2.75913 18.0324 1.84179 17.4132 1.22257C17.0053 0.814657 16.4673 0.606853 15.8858 0.570542V0.564531C15.7888 0.558531 15.6888 0.56139 15.5899 0.564494Z" fill="currentColor"/>
</g>
<defs>
<clipPath id="clip0">
<rect width="18" height="18" fill="none" transform="translate(0 0.561035)"/>
</clipPath>
</defs>
</svg>
