<svg viewBox="0 0 31 30" fill="none" xmlns="http://www.w3.org/2000/svg">
<path d="M15.8867 30C24.171 30 30.8867 23.2843 30.8867 15C30.8867 6.71573 24.171 0 15.8867 0C7.60245 0 0.886719 6.71573 0.886719 15C0.886719 23.2843 7.60245 30 15.8867 30Z" fill="#039BE5"/>
<path d="M7.75055 14.6748L22.2131 9.09852C22.8843 8.85602 23.4706 9.26227 23.253 10.2773L23.2543 10.276L20.7918 21.8773C20.6093 22.6998 20.1206 22.8998 19.4368 22.5123L15.6868 19.7485L13.8781 21.491C13.6781 21.691 13.5093 21.8598 13.1218 21.8598L13.3881 18.0435L20.3381 11.7648C20.6406 11.4985 20.2706 11.3485 19.8718 11.6135L11.2831 17.021L7.58055 15.866C6.7768 15.611 6.7593 15.0623 7.75055 14.6748Z" fill="white"/>
</svg>
