<svg viewBox="0 0 21 21" fill="none" xmlns="http://www.w3.org/2000/svg">
<path d="M5.10059 7.37006V17.5846C5.10059 18.0604 5.64746 18.4521 6.31152 18.4521H15.7061C16.3701 18.4521 16.917 18.0604 16.917 17.5846V7.37006H5.10059ZM8.16699 8.50345V17.2908H7.46387V8.50345H8.16699ZM11.3506 8.50345V17.2908H10.6475V8.50345H11.3506ZM14.5342 8.50345V17.2908H13.8311V8.50345H14.5342ZM13.7529 5.00532V4.27771C13.7529 3.81595 13.2451 3.45215 12.6006 3.45215H9.39746C8.75293 3.45215 8.24512 3.81595 8.24512 4.27771V5.00532H4.70996C4.0459 5.00532 3.49902 5.39711 3.49902 5.87286V6.47454H18.499V5.85887C18.499 5.38312 17.9521 4.99133 17.2881 4.99133H13.7529V5.00532ZM12.6006 4.01185C12.7959 4.01185 12.9521 4.12379 12.9521 4.26372V4.99133H9.02637V4.26372C9.02637 4.12379 9.18262 4.01185 9.37793 4.01185H12.6006Z" fill="currentColor"/>
</svg>
