<svg viewBox="0 0 31 30" fill="none" xmlns="http://www.w3.org/2000/svg">
<circle cx="15.6523" cy="15" r="15" fill="currentColor"/>
<path d="M8.69336 20.0069C8.69336 16.1632 11.8088 13.0474 15.6519 13.0474C19.4951 13.0474 22.6105 16.1632 22.6105 20.0069V21.8096C22.6105 23.0194 21.6299 24.0001 20.4203 24.0001H10.8836C9.67397 24.0001 8.69336 23.0194 8.69336 21.8096V20.0069Z" fill="white"/>
<path fill-rule="evenodd" clip-rule="evenodd" d="M22.0249 21.8096V20.0069C22.0249 16.4867 19.1716 13.6331 15.6519 13.6331C12.1323 13.6331 9.279 16.4867 9.279 20.0069V21.8096C9.279 22.6959 9.99741 23.4144 10.8836 23.4144H20.4203C21.3065 23.4144 22.0249 22.6959 22.0249 21.8096ZM15.6519 13.0474C11.8088 13.0474 8.69336 16.1632 8.69336 20.0069V21.8096C8.69336 23.0194 9.67397 24.0001 10.8836 24.0001H20.4203C21.6299 24.0001 22.6105 23.0194 22.6105 21.8096V20.0069C22.6105 16.1632 19.4951 13.0474 15.6519 13.0474Z" fill="currentColor"/>
<path d="M21.0129 11.3551C21.0129 14.3126 18.6153 16.7101 15.6578 16.7101C12.7003 16.7101 10.3027 14.3126 10.3027 11.3551C10.3027 8.39754 12.7003 6 15.6578 6C18.6153 6 21.0129 8.39754 21.0129 11.3551Z" fill="white"/>
<path fill-rule="evenodd" clip-rule="evenodd" d="M15.6578 16.1244C18.2918 16.1244 20.4271 13.9891 20.4271 11.3551C20.4271 8.72103 18.2918 6.58572 15.6578 6.58572C13.0238 6.58572 10.8885 8.72103 10.8885 11.3551C10.8885 13.9891 13.0238 16.1244 15.6578 16.1244ZM15.6578 16.7101C18.6153 16.7101 21.0129 14.3126 21.0129 11.3551C21.0129 8.39754 18.6153 6 15.6578 6C12.7003 6 10.3027 8.39754 10.3027 11.3551C10.3027 14.3126 12.7003 16.7101 15.6578 16.7101Z" fill="currentColor"/>
</svg>
