<svg viewBox="0 0 31 31" fill="none" xmlns="http://www.w3.org/2000/svg">
<path d="M15.457 30.8042C23.7413 30.8042 30.457 24.0885 30.457 15.8042C30.457 7.51993 23.7413 0.804199 15.457 0.804199C7.17276 0.804199 0.457031 7.51993 0.457031 15.8042C0.457031 24.0885 7.17276 30.8042 15.457 30.8042Z" fill="#6F3FAA"/>
<path d="M21.9646 9.03338C18.3135 8.15155 14.6559 7.12006 10.9117 8.43057C8.48741 9.33965 8.48741 11.9659 8.58843 14.1882C8.58843 14.7942 7.88138 15.6023 8.18437 16.3094C8.7904 18.3296 9.29548 20.3498 11.4167 21.3599C11.7197 21.5619 11.4167 21.9659 11.6187 22.2689C11.5177 22.2689 11.3157 22.37 11.3157 22.471C11.3157 22.9551 11.5329 23.6957 11.3886 24.1731L17.8343 30.6161C24.4607 29.5608 29.6396 24.1668 30.3683 17.4371L21.9646 9.03338Z" fill="#512D84"/>
<path d="M23.3917 11.3465L23.3868 11.3267C22.986 9.70642 21.1791 7.96782 19.5197 7.60612L19.501 7.60226C16.8171 7.09026 14.0957 7.09026 11.4123 7.60226L11.393 7.60612C9.73424 7.96782 7.92727 9.70653 7.52596 11.3267L7.5215 11.3465C7.02604 13.6092 7.02604 15.904 7.5215 18.1667L7.52596 18.1865C7.91022 19.7376 9.58254 21.3964 11.18 21.8525V23.6612C11.18 24.3159 11.9777 24.6374 12.4314 24.165L14.2639 22.2601C14.6614 22.2823 15.0591 22.2948 15.4566 22.2948C16.8076 22.2948 18.1593 22.167 19.5009 21.911L19.5196 21.9072C21.179 21.5455 22.9859 19.8067 23.3867 18.1866L23.3916 18.1668C23.8871 15.904 23.8871 13.6093 23.3917 11.3465ZM21.9414 17.8386C21.6738 18.8957 20.3019 20.2099 19.2118 20.4527C17.7848 20.7241 16.3464 20.84 14.9094 20.8003C14.8808 20.7994 14.8533 20.8106 14.8335 20.8311C14.6295 21.0404 13.4955 22.2046 13.4955 22.2046L12.0724 23.6653C11.9683 23.7738 11.7855 23.6999 11.7855 23.5502V20.5539C11.7855 20.5044 11.7502 20.4624 11.7015 20.4528C11.7012 20.4527 11.701 20.4527 11.7007 20.4526C10.6106 20.2098 9.23918 18.8957 8.97111 17.8386C8.52516 15.7933 8.52516 13.7199 8.97111 11.6746C9.23918 10.6175 10.6106 9.30341 11.7007 9.0606C14.193 8.58657 16.7201 8.58657 19.2119 9.0606C20.3025 9.30341 21.6739 10.6175 21.9415 11.6746C22.3879 13.72 22.3879 15.7934 21.9414 17.8386Z" fill="white"/>
<path d="M17.8289 19.2218C17.6613 19.1709 17.5017 19.1367 17.3532 19.0753C15.8163 18.4376 14.4018 17.6149 13.2814 16.3539C12.6443 15.6369 12.1456 14.8273 11.7241 13.9705C11.5242 13.5642 11.3557 13.1421 11.184 12.7225C11.0274 12.34 11.258 11.9449 11.5008 11.6566C11.7287 11.3861 12.022 11.1791 12.3395 11.0265C12.5874 10.9074 12.8319 10.9761 13.0129 11.1861C13.4042 11.6404 13.7637 12.1178 14.0547 12.6443C14.2337 12.9681 14.1846 13.364 13.8602 13.5844C13.7813 13.6379 13.7095 13.7009 13.6361 13.7613C13.5716 13.8144 13.511 13.8679 13.4668 13.9397C13.3862 14.071 13.3823 14.226 13.4342 14.3688C13.8342 15.468 14.5085 16.3229 15.615 16.7834C15.7921 16.8571 15.9698 16.9428 16.1739 16.9191C16.5155 16.8792 16.6261 16.5044 16.8655 16.3086C17.0995 16.1173 17.3985 16.1148 17.6505 16.2743C17.9027 16.4339 18.147 16.6051 18.3899 16.7783C18.6284 16.9482 18.8658 17.1143 19.0857 17.3081C19.2972 17.4943 19.37 17.7387 19.2509 17.9914C19.0329 18.4543 18.7157 18.8394 18.2581 19.0852C18.1289 19.1545 17.9746 19.1769 17.8289 19.2218C17.6613 19.1709 17.9746 19.1769 17.8289 19.2218Z" fill="white"/>
<path d="M15.4604 10.4969C17.4707 10.5533 19.122 11.8874 19.4758 13.8749C19.5361 14.2136 19.5576 14.5597 19.5844 14.9035C19.5957 15.048 19.5138 15.1854 19.3578 15.1873C19.1967 15.1893 19.1242 15.0544 19.1136 14.9099C19.093 14.6239 19.0786 14.3365 19.0392 14.0529C18.8311 12.5553 17.637 11.3163 16.1463 11.0505C15.922 11.0105 15.6925 11 15.4652 10.9761C15.3216 10.9611 15.1335 10.9524 15.1017 10.7738C15.0751 10.6241 15.2014 10.5049 15.344 10.4972C15.3826 10.495 15.4215 10.4968 15.4604 10.4969C17.4709 10.5533 15.4215 10.4968 15.4604 10.4969Z" fill="white"/>
<path d="M18.5166 14.4575C18.5132 14.4826 18.5115 14.5416 18.4967 14.5972C18.4434 14.799 18.1373 14.8242 18.067 14.6206C18.046 14.5602 18.0429 14.4914 18.0428 14.4264C18.0421 14.0006 17.9496 13.5752 17.7348 13.2048C17.5141 12.824 17.1769 12.504 16.7814 12.3102C16.5422 12.1931 16.2837 12.1203 16.0215 12.077C15.907 12.058 15.7912 12.0466 15.676 12.0305C15.5365 12.0111 15.462 11.9223 15.4687 11.7848C15.4748 11.656 15.569 11.5633 15.7094 11.5713C16.1707 11.5974 16.6164 11.6973 17.0266 11.9144C17.8606 12.3561 18.3371 13.0533 18.4762 13.9843C18.4824 14.0265 18.4925 14.0683 18.4957 14.1106C18.5036 14.215 18.5086 14.3196 18.5166 14.4575C18.5132 14.4825 18.5086 14.3196 18.5166 14.4575Z" fill="white"/>
<path d="M17.2659 14.4086C17.0977 14.4117 17.0077 14.3185 16.9903 14.1644C16.9783 14.057 16.9687 13.948 16.9431 13.8433C16.8925 13.6373 16.783 13.4464 16.6097 13.3201C16.5279 13.2605 16.4352 13.2171 16.3381 13.189C16.2147 13.1533 16.0865 13.1631 15.9635 13.133C15.8299 13.1002 15.7559 12.992 15.777 12.8666C15.7961 12.7525 15.9071 12.6634 16.0318 12.6725C16.8112 12.7288 17.3683 13.1317 17.4478 14.0493C17.4535 14.114 17.46 14.1824 17.4457 14.2445C17.4209 14.3503 17.3424 14.4035 17.2659 14.4086C17.0977 14.4116 17.3424 14.4035 17.2659 14.4086Z" fill="white"/>
<path d="M23.3915 11.3466L23.3866 11.3268C23.162 10.4186 22.4953 9.4732 21.6605 8.75391L20.5321 9.75398C21.2031 10.2887 21.778 11.0293 21.9414 11.6747C22.3879 13.72 22.3879 15.7934 21.9414 17.8387C21.6738 18.8958 20.3018 20.21 19.2118 20.4528C17.7847 20.7242 16.3463 20.8402 14.9094 20.8004C14.8808 20.7996 14.8533 20.8107 14.8334 20.8312C14.6295 21.0405 13.4954 22.2047 13.4954 22.2047L12.0723 23.6654C11.9683 23.7739 11.7854 23.7001 11.7854 23.5503V20.554C11.7854 20.5045 11.7501 20.4625 11.7015 20.4529C11.7012 20.4529 11.701 20.4528 11.7007 20.4528C11.0812 20.3148 10.3711 19.8306 9.82402 19.2445L8.70898 20.2326C9.40537 20.9902 10.3036 21.6026 11.1798 21.8528V23.6614C11.1798 24.3161 11.9775 24.6376 12.4312 24.1652L14.2637 22.2604C14.6612 22.2826 15.0587 22.295 15.4564 22.295C16.8074 22.295 18.159 22.1672 19.5007 21.9112L19.5194 21.9074C21.1788 21.5457 22.9857 19.8071 23.3865 18.1869L23.3914 18.1671C23.8869 15.9041 23.8869 13.6095 23.3915 11.3466Z" fill="#D1D1D1"/>
<path d="M17.8277 19.2215C17.9733 19.1766 17.6601 19.1706 17.8277 19.2215V19.2215Z" fill="white"/>
<path d="M19.0854 17.3079C18.8655 17.1142 18.628 16.948 18.3897 16.7781C18.1467 16.6049 17.9024 16.4337 17.6503 16.2741C17.3983 16.1146 17.0993 16.1171 16.8652 16.3085C16.6258 16.5042 16.5153 16.879 16.1736 16.9189C15.9696 16.9426 15.7918 16.8568 15.6147 16.7832C14.9339 16.5 14.4174 16.0669 14.027 15.52L13.1973 16.2554C13.2254 16.288 13.2523 16.3215 13.281 16.3538C14.4014 17.6147 15.8159 18.4374 17.3528 19.0751C17.5011 19.1366 17.6609 19.1708 17.8285 19.2216C17.6609 19.1707 17.9742 19.1768 17.8285 19.2216C17.9742 19.1768 18.1285 19.1542 18.2578 19.085C18.7155 18.8391 19.0326 18.454 19.2506 17.9912C19.3698 17.7385 19.2969 17.4942 19.0854 17.3079Z" fill="#D1D1D1"/>
<path d="M15.4609 10.4971C15.4626 10.4971 15.4643 10.4972 15.466 10.4972C15.5775 10.5012 17.3921 10.5512 15.4609 10.4971Z" fill="white"/>
<path d="M18.3445 11.6934L17.9907 12.0069C18.5466 12.5477 18.9299 13.2645 19.0395 14.0533C19.0789 14.337 19.0933 14.6243 19.114 14.9103C19.1245 15.0549 19.1969 15.1897 19.3582 15.1878C19.5142 15.1859 19.5961 15.0486 19.5848 14.904C19.5579 14.5603 19.5365 14.214 19.4762 13.8754C19.3213 13.0054 18.9178 12.2606 18.3445 11.6934Z" fill="#D1D1D1"/>
<path d="M18.4764 13.9843C18.3751 13.3059 18.0936 12.7523 17.6262 12.3306L17.2734 12.6432C17.4558 12.8051 17.6136 12.9952 17.7352 13.2049C17.9499 13.5754 18.0424 14.0008 18.0431 14.4265C18.0432 14.4916 18.0463 14.5604 18.0673 14.6209C18.1378 14.8246 18.4437 14.7994 18.497 14.5974C18.5118 14.5418 18.5135 14.4828 18.5169 14.4578C18.5135 14.4829 18.5088 14.3199 18.5169 14.4578C18.5088 14.3199 18.5038 14.2152 18.4959 14.1107C18.4928 14.0682 18.4827 14.0265 18.4764 13.9843Z" fill="#D1D1D1"/>
<path d="M18.5166 14.4575C18.5086 14.3195 18.5133 14.4825 18.5166 14.4575V14.4575Z" fill="white"/>
<path d="M17.2652 14.4086C17.2678 14.4084 17.2703 14.407 17.2728 14.4067C17.2657 14.4067 17.2548 14.4069 17.2437 14.4073C17.2509 14.4075 17.2575 14.4086 17.2652 14.4086Z" fill="white"/>
<path d="M17.266 14.4089C17.2584 14.4091 17.2517 14.4079 17.2444 14.4077C17.208 14.4087 17.1705 14.4106 17.266 14.4089Z" fill="white"/>
<path d="M17.2728 14.4067C17.2702 14.407 17.2677 14.4084 17.2651 14.4086C17.2848 14.4072 17.2831 14.4067 17.2728 14.4067Z" fill="white"/>
<path d="M16.9113 12.9639L16.5522 13.2821C16.5721 13.2942 16.5914 13.3067 16.6103 13.3204C16.7836 13.4466 16.8931 13.6375 16.9436 13.8436C16.9693 13.9482 16.9788 14.0571 16.9909 14.1647C17.0075 14.3119 17.0911 14.4025 17.245 14.4077C17.2561 14.4074 17.2672 14.4072 17.2741 14.4071C17.3482 14.3989 17.4224 14.347 17.4462 14.2446C17.4605 14.1827 17.454 14.1142 17.4483 14.0494C17.4036 13.5364 17.2097 13.1845 16.9113 12.9639Z" fill="#D1D1D1"/>
</svg>
