<svg viewBox="0 0 31 30" fill="none" xmlns="http://www.w3.org/2000/svg">
<path d="M15.8867 30C24.171 30 30.8867 23.2843 30.8867 15C30.8867 6.71573 24.171 0 15.8867 0C7.60245 0 0.886719 6.71573 0.886719 15C0.886719 23.2843 7.60245 30 15.8867 30Z" fill="#4D76A1"/>
<path fill-rule="evenodd" clip-rule="evenodd" d="M15.3202 21.579H16.4975C16.4975 21.579 16.8531 21.5399 17.0347 21.3442C17.2018 21.1645 17.1964 20.8271 17.1964 20.8271C17.1964 20.8271 17.1734 19.2473 17.9066 19.0147C18.6294 18.7855 19.5575 20.5415 20.5412 21.2167C21.2851 21.7276 21.8503 21.6156 21.8503 21.6156L24.4806 21.579C24.4806 21.579 25.8566 21.4942 25.2042 20.4123C25.1507 20.3238 24.8242 19.612 23.2485 18.1494C21.5993 16.6186 21.8201 16.8662 23.8068 14.2183C25.0168 12.6056 25.5005 11.6211 25.3494 11.1994C25.2053 10.7978 24.3154 10.904 24.3154 10.904L21.3538 10.9224C21.3538 10.9224 21.1343 10.8925 20.9714 10.9898C20.8123 11.0853 20.7099 11.3077 20.7099 11.3077C20.7099 11.3077 20.2412 12.5556 19.616 13.6169C18.2973 15.8563 17.77 15.9745 17.5545 15.8354C17.0531 15.5114 17.1782 14.5335 17.1782 13.8388C17.1782 11.6687 17.5074 10.7639 16.5373 10.5296C16.2154 10.4518 15.9785 10.4005 15.1552 10.3922C14.0985 10.3812 13.204 10.3954 12.6976 10.6435C12.3607 10.8085 12.1008 11.1762 12.2591 11.1973C12.4548 11.2235 12.8981 11.3168 13.1332 11.6369C13.4367 12.0497 13.426 12.9771 13.426 12.9771C13.426 12.9771 13.6003 15.5317 13.0187 15.8491C12.6195 16.0667 12.0719 15.6223 10.8962 13.5907C10.2938 12.55 9.83895 11.3997 9.83895 11.3997C9.83895 11.3997 9.75124 11.1847 9.59482 11.0698C9.40497 10.9305 9.13972 10.8861 9.13972 10.8861L6.32545 10.9045C6.32545 10.9045 5.90298 10.9163 5.74789 11.1C5.60992 11.2634 5.73693 11.6013 5.73693 11.6013C5.73693 11.6013 7.94022 16.7561 10.435 19.3537C12.7225 21.7354 15.3202 21.579 15.3202 21.579Z" fill="white"/>
</svg>
