<svg viewBox="0 0 31 31" fill="none" xmlns="http://www.w3.org/2000/svg">
<path d="M0.75943 30.4165C0.590973 30.4165 0.427094 30.3499 0.305558 30.227C0.14534 30.0649 0.0835422 29.8297 0.143738 29.6097L2.09404 22.4878C0.879822 20.2921 0.23964 17.8083 0.240555 15.287C0.243988 7.08727 6.91681 0.416504 15.1158 0.416504C19.0926 0.418106 22.8294 1.96718 25.638 4.77785C28.4461 7.58875 29.992 11.3252 29.9908 15.2989C29.9872 23.4988 23.3144 30.17 15.1158 30.17C15.1158 30.17 15.1096 30.17 15.1094 30.17C12.7146 30.1691 10.3404 29.5854 8.22647 28.4799L0.92125 30.3957C0.867691 30.4096 0.813217 30.4165 0.75943 30.4165Z" fill="#E5E5E5"/>
<path d="M0.759766 29.778L2.77942 22.4027C1.53362 20.2441 0.878326 17.7956 0.879242 15.287C0.882446 7.43935 7.26871 1.05469 15.1161 1.05469C18.9243 1.05629 22.4987 2.53853 25.1867 5.22881C27.8745 7.91908 29.3542 11.4951 29.3528 15.2985C29.3494 23.1459 22.9622 29.5315 15.1161 29.5315C15.1157 29.5315 15.1164 29.5315 15.1161 29.5315H15.11C12.7273 29.5306 10.3863 28.933 8.30692 27.7988L0.759766 29.778ZM8.65642 25.2223L9.08878 25.4784C10.9052 26.5565 12.9878 27.1266 15.1116 27.1278H15.1161C21.6379 27.1278 26.9461 21.8204 26.9489 15.2975C26.95 12.1365 25.7205 9.16397 23.4864 6.92802C21.252 4.69208 18.2814 3.46001 15.1205 3.45863C8.59348 3.45863 3.28548 8.76526 3.28296 15.2879C3.28204 17.5232 3.90735 19.6999 5.09204 21.5836L5.37357 22.0312L4.17789 26.3965L8.65642 25.2223Z" fill="white"/>
<path d="M1.25488 29.2813L3.20473 22.161C2.00172 20.0773 1.36932 17.7131 1.37001 15.2918C1.37299 7.71581 7.53838 1.55225 15.1137 1.55225C18.7904 1.55385 22.2413 2.98482 24.8357 5.58194C27.4307 8.17906 28.8589 11.6313 28.8576 15.3026C28.8544 22.8788 22.6888 29.043 15.1144 29.043C15.1137 29.043 15.1146 29.043 15.1144 29.043H15.1082C12.8082 29.0421 10.5479 28.4649 8.54065 27.3708L1.25488 29.2813Z" fill="#00E676"/>
<path d="M0.759766 29.778L2.77942 22.4027C1.53362 20.2441 0.878326 17.7956 0.879242 15.287C0.882446 7.43935 7.26871 1.05469 15.1161 1.05469C18.9243 1.05629 22.4987 2.53853 25.1867 5.22881C27.8745 7.91908 29.3542 11.4951 29.3528 15.2985C29.3494 23.1459 22.9622 29.5315 15.1161 29.5315C15.1157 29.5315 15.1164 29.5315 15.1161 29.5315H15.11C12.7273 29.5306 10.3863 28.933 8.30692 27.7988L0.759766 29.778ZM8.65642 25.2223L9.08878 25.4784C10.9052 26.5565 12.9878 27.1266 15.1116 27.1278H15.1161C21.6379 27.1278 26.9461 21.8204 26.9489 15.2975C26.95 12.1365 25.7205 9.16397 23.4864 6.92802C21.252 4.69208 18.2814 3.46001 15.1205 3.45863C8.59348 3.45863 3.28548 8.76526 3.28296 15.2879C3.28204 17.5232 3.90735 19.6999 5.09204 21.5836L5.37357 22.0312L4.17789 26.3965L8.65642 25.2223Z" fill="white"/>
<path fill-rule="evenodd" clip-rule="evenodd" d="M11.5579 9.33689C11.2915 8.74454 11.0109 8.73264 10.7573 8.72234C10.5499 8.71341 10.3126 8.71387 10.0757 8.71387C9.83854 8.71387 9.45311 8.80314 9.12718 9.15905C8.80102 9.51496 7.88184 10.3756 7.88184 12.1258C7.88184 13.8763 9.15671 15.5675 9.33455 15.8051C9.51239 16.0424 11.7955 19.749 15.4111 21.1749C18.4161 22.36 19.0275 22.1243 19.6798 22.065C20.3321 22.0057 21.7843 21.2044 22.0807 20.3738C22.3774 19.5432 22.3774 18.8314 22.2883 18.6824C22.1993 18.5343 21.9622 18.4452 21.6065 18.2674C21.2508 18.0896 19.5019 17.2287 19.1758 17.1102C18.8496 16.9914 18.6125 16.9323 18.3754 17.2885C18.138 17.6442 17.4569 18.4452 17.2493 18.6824C17.0417 18.9202 16.8341 18.9499 16.4784 18.7719C16.1227 18.5936 14.9769 18.2182 13.6178 17.0063C12.5604 16.0635 11.8463 14.8989 11.6387 14.5428C11.4313 14.1871 11.6353 14.0113 11.795 13.817C12.0827 13.4671 12.5654 12.8379 12.684 12.6007C12.8026 12.3632 12.7433 12.1556 12.6545 11.9775C12.5654 11.7997 11.874 10.0405 11.5579 9.33689Z" fill="white"/>
</svg>
