<svg viewBox="0 0 54 23" fill="none" xmlns="http://www.w3.org/2000/svg"><path d="M0.581057 17.1958C0.421057 17.1958 0.285057 17.1398 0.173057 17.0278C0.0610567 16.9158 0.00505668 16.7798 0.00505668 16.6198V0.971799C0.00505668 0.7958 0.0610567 0.6598 0.173057 0.5638C0.285057 0.4518 0.421057 0.3958 0.581057 0.3958H2.81306C2.98906 0.3958 3.12506 0.4518 3.22106 0.5638C3.33306 0.6598 3.38906 0.7958 3.38906 0.971799V14.3398H10.9971C11.1731 14.3398 11.3171 14.3958 11.4291 14.5078C11.5411 14.6198 11.5971 14.7638 11.5971 14.9398V16.6198C11.5971 16.7958 11.5411 16.9398 11.4291 17.0518C11.3171 17.1478 11.1731 17.1958 10.9971 17.1958H0.581057ZM18.9714 17.4358C17.0994 17.4358 15.6514 16.9558 14.6274 15.9958C13.6034 15.0198 13.0514 13.6918 12.9714 12.0118L12.9474 10.9558L12.9714 9.8998C13.0514 8.2358 13.6114 6.9158 14.6514 5.9398C15.6914 4.9638 17.1314 4.4758 18.9714 4.4758C20.8114 4.4758 22.2514 4.9638 23.2914 5.9398C24.3314 6.9158 24.8914 8.2358 24.9714 9.8998C24.9874 10.0918 24.9954 10.4438 24.9954 10.9558C24.9954 11.4678 24.9874 11.8198 24.9714 12.0118C24.8914 13.6918 24.3394 15.0198 23.3154 15.9958C22.2914 16.9558 20.8434 17.4358 18.9714 17.4358ZM18.9714 15.0598C19.8194 15.0598 20.4754 14.7958 20.9394 14.2678C21.4034 13.7238 21.6594 12.9318 21.7074 11.8918C21.7234 11.7318 21.7314 11.4198 21.7314 10.9558C21.7314 10.4918 21.7234 10.1798 21.7074 10.0198C21.6594 8.9798 21.4034 8.1958 20.9394 7.6678C20.4754 7.1238 19.8194 6.8518 18.9714 6.8518C18.1234 6.8518 17.4674 7.1238 17.0034 7.6678C16.5394 8.1958 16.2834 8.9798 16.2354 10.0198L16.2114 10.9558L16.2354 11.8918C16.2834 12.9318 16.5394 13.7238 17.0034 14.2678C17.4674 14.7958 18.1234 15.0598 18.9714 15.0598ZM33.2946 22.4758C31.8706 22.4758 30.7186 22.2358 29.8386 21.7558C28.9586 21.2918 28.3346 20.7558 27.9666 20.1478C27.5986 19.5398 27.4146 19.0198 27.4146 18.5878C27.4146 18.4438 27.4706 18.3158 27.5826 18.2038C27.7106 18.0918 27.8466 18.0358 27.9906 18.0358H30.0786C30.2226 18.0358 30.3426 18.0678 30.4386 18.1318C30.5506 18.2118 30.6386 18.3478 30.7026 18.5398C30.8626 18.9718 31.1186 19.3318 31.4706 19.6198C31.8386 19.9238 32.4066 20.0758 33.1746 20.0758C34.1346 20.0758 34.8386 19.8598 35.2866 19.4278C35.7506 18.9958 35.9826 18.2518 35.9826 17.1958V15.5638C35.1026 16.6038 33.8706 17.1238 32.2866 17.1238C30.6226 17.1238 29.3666 16.6118 28.5186 15.5878C27.6866 14.5638 27.2386 13.1878 27.1746 11.4598L27.1506 10.8118L27.1746 10.1638C27.2386 8.4678 27.6946 7.0998 28.5426 6.0598C29.3906 5.0038 30.6386 4.4758 32.2866 4.4758C33.1346 4.4758 33.8786 4.6358 34.5186 4.9558C35.1586 5.2758 35.6946 5.7158 36.1266 6.2758V5.3158C36.1266 5.1398 36.1826 4.9958 36.2946 4.8838C36.4066 4.7718 36.5426 4.7158 36.7026 4.7158H38.6466C38.8066 4.7158 38.9426 4.7798 39.0546 4.9078C39.1666 5.0198 39.2226 5.1558 39.2226 5.3158L39.2466 16.8838C39.2466 18.6598 38.7506 20.0358 37.7586 21.0118C36.7666 21.9878 35.2786 22.4758 33.2946 22.4758ZM33.1746 14.5798C34.0866 14.5798 34.7666 14.2918 35.2146 13.7158C35.6786 13.1398 35.9346 12.4358 35.9826 11.6038C35.9986 11.4758 36.0066 11.2118 36.0066 10.8118C36.0066 10.4278 35.9986 10.1718 35.9826 10.0438C35.9346 9.1958 35.6786 8.4838 35.2146 7.9078C34.7666 7.3318 34.0866 7.0438 33.1746 7.0438C31.4466 7.0438 30.5346 8.1078 30.4386 10.2358L30.4146 10.8118C30.4146 11.9478 30.6146 12.8598 31.0146 13.5478C31.4306 14.2358 32.1506 14.5798 33.1746 14.5798ZM47.9636 17.4358C46.0916 17.4358 44.6436 16.9558 43.6196 15.9958C42.5956 15.0198 42.0436 13.6918 41.9636 12.0118L41.9396 10.9558L41.9636 9.8998C42.0436 8.2358 42.6036 6.9158 43.6436 5.9398C44.6836 4.9638 46.1236 4.4758 47.9636 4.4758C49.8036 4.4758 51.2436 4.9638 52.2836 5.9398C53.3236 6.9158 53.8836 8.2358 53.9636 9.8998C53.9796 10.0918 53.9876 10.4438 53.9876 10.9558C53.9876 11.4678 53.9796 11.8198 53.9636 12.0118C53.8836 13.6918 53.3316 15.0198 52.3076 15.9958C51.2836 16.9558 49.8356 17.4358 47.9636 17.4358ZM47.9636 15.0598C48.8116 15.0598 49.4676 14.7958 49.9316 14.2678C50.3956 13.7238 50.6516 12.9318 50.6996 11.8918C50.7156 11.7318 50.7236 11.4198 50.7236 10.9558C50.7236 10.4918 50.7156 10.1798 50.6996 10.0198C50.6516 8.9798 50.3956 8.1958 49.9316 7.6678C49.4676 7.1238 48.8116 6.8518 47.9636 6.8518C47.1156 6.8518 46.4596 7.1238 45.9956 7.6678C45.5316 8.1958 45.2756 8.9798 45.2276 10.0198L45.2036 10.9558L45.2276 11.8918C45.2756 12.9318 45.5316 13.7238 45.9956 14.2678C46.4596 14.7958 47.1156 15.0598 47.9636 15.0598Z" fill="currentColor"/>
</svg>
